<?xml version="1.0" encoding="UTF-8" standalone="no"?>
<!-- Generator: Adobe Illustrator 19.2.0, SVG Export Plug-In . SVG Version: 6.00 Build 0)  -->

<svg
   version="1.1"
   id="Warstwa_1"
   x="0px"
   y="0px"
   width="1360.8524"
   height="79.699997"
   viewBox="0 0 1360.8525 79.699994"
   enable-background="new 0 0 453.4 77.3"
   xml:space="preserve"
   inkscape:version="1.1.2 (0a00cf5339, 2022-02-04)"
   sodipodi:docname="sidebar-logo-dark.svg"
   xmlns:inkscape="http://www.inkscape.org/namespaces/inkscape"
   xmlns:sodipodi="http://sodipodi.sourceforge.net/DTD/sodipodi-0.dtd"
   xmlns="http://www.w3.org/2000/svg"
   xmlns:svg="http://www.w3.org/2000/svg"
   xmlns:rdf="http://www.w3.org/1999/02/22-rdf-syntax-ns#"
   xmlns:cc="http://creativecommons.org/ns#"
   xmlns:dc="http://purl.org/dc/elements/1.1/"><metadata
     id="metadata29"><rdf:RDF><cc:Work
         rdf:about=""><dc:format>image/svg+xml</dc:format><dc:type
           rdf:resource="http://purl.org/dc/dcmitype/StillImage" /></cc:Work></rdf:RDF></metadata><defs
     id="defs27" /><sodipodi:namedview
     pagecolor="#ffffff"
     bordercolor="#666666"
     borderopacity="1"
     objecttolerance="10"
     gridtolerance="10"
     guidetolerance="10"
     inkscape:pageopacity="0"
     inkscape:pageshadow="2"
     inkscape:window-width="2560"
     inkscape:window-height="1376"
     id="namedview25"
     showgrid="false"
     inkscape:zoom="0.7146008"
     inkscape:cx="849.4253"
     inkscape:cy="35.684259"
     inkscape:window-x="0"
     inkscape:window-y="27"
     inkscape:window-maximized="1"
     inkscape:current-layer="text5542"
     fit-margin-top="0"
     fit-margin-left="0"
     fit-margin-right="0"
     fit-margin-bottom="0"
     inkscape:pagecheckerboard="0" /><g
     id="g3"><path
       d="M 269.9,78.3 287.2,1.4 h 29.6 l 17.3,76.9 h -15.6 l -3.1,-13.9 h -26.9 l -3.1,13.9 z m 29.4,-64 -7.8,36.5 h 21 l -7.8,-36.5 z"
       id="path5"
       inkscape:connector-curvature="0"
       style="fill:#ef3f3f" /><path
       d="M 333.4,15.2 V 1.4 H 390 V 15.2 H 369.6 V 78.3 H 354 V 15.2 Z"
       id="path7"
       inkscape:connector-curvature="0"
       style="fill:#ef3f3f" /><path
       d="M 389.2,78.3 406.5,1.4 h 29.6 l 17.3,76.9 h -15.6 l -3.1,-13.9 h -26.9 l -3.1,13.9 z m 29.4,-64 -7.8,36.5 h 21 L 424,14.3 Z"
       id="path9"
       inkscape:connector-curvature="0"
       style="fill:#ef3f3f" /><path
       d="M 262.6,21.7 C 261.7,17.4 260.1,13.6 257.7,10.4 255.3,7.2 252,4.9 247.7,3.5 243.4,2.1 237.9,1.4 231.3,1.4 H 221.1 V 15 h 10.2 c 3.8,0 6.8,0.4 9,1.2 2.2,0.8 3.9,2.2 5,4.4 1.1,2.1 1.8,4.5 2.2,7 0.3,2.6 0.5,6 0.5,10.2 0,4.3 -0.1,7.6 -0.2,10 -0.5,6.1 -1.9,10.3 -4.1,12.7 -2.6,2.9 -6.7,4.3 -12.3,4.3 h -10.2 v 13.6 h 10.2 c 6.8,0 12.4,-0.8 16.7,-2.4 4.4,-1.6 7.7,-4.2 10,-7.8 2.3,-3.6 3.9,-7.7 4.7,-12.2 0.8,-4.6 1.2,-10.3 1.2,-17.3 -0.1,-7.1 -0.5,-12.7 -1.4,-17 z"
       id="path11"
       inkscape:connector-curvature="0"
       style="fill:#ef3f3f" /></g><g
     id="g13"><path
       d="m 56.6,70.1 c -4.8,6.4 -13,9.6 -24.7,9.6 C 20.2,79.7 12,76.5 7.2,70.1 2.4,63.7 0,53.7 0,40.2 0,26.7 2.4,16.5 7.2,9.9 12,3.3 20.2,0 31.9,0 c 11.7,0 19.9,3.3 24.7,9.9 4.8,6.6 7.2,16.7 7.2,30.3 0,13.6 -2.4,23.5 -7.2,29.9 z m -37.2,-10 c 2.2,4 6.4,5.9 12.5,5.9 6.1,0 10.3,-2 12.5,-5.9 2.2,-4 3.3,-10.6 3.3,-19.9 0,-9.3 -1.1,-16.1 -3.4,-20.3 -2.3,-4.2 -6.4,-6.3 -12.4,-6.3 -6,0 -10.2,2.1 -12.4,6.3 -2.3,4.2 -3.4,11 -3.4,20.3 0,9.3 1.1,16 3.3,19.9 z"
       id="path15"
       inkscape:connector-curvature="0" /><path
       d="M 77.2,78.3 V 1.4 h 26.4 l 18.6,63.4 h 1.1 V 1.4 h 15.6 V 78.3 H 113.2 L 93.9,14.9 h -1.1 v 63.4 z"
       id="path17"
       inkscape:connector-curvature="0" /></g><rect
     x="155.60001"
     y="1.4"
     width="49.799999"
     height="13.6"
     id="rect19" /><rect
     x="155.60001"
     y="33"
     width="49.799999"
     height="13.6"
     id="rect21" /><rect
     x="155.60001"
     y="64.699997"
     width="49.799999"
     height="13.6"
     id="rect23" /><g
     aria-label="DOCUMENTATION"
     id="text5542"
     style="font-size:105.333px;line-height:1.25"><path
       d="m 572.53304,39.207096 q 0,12.703736 -4.4264,21.24147 -4.37982,8.486301 -12.72009,12.8066 -8.34028,4.268867 -20.0819,4.268867 H 516.01484 V 2.33026 h 21.38653 q 10.71655,0 18.5909,4.2174346 7.87434,4.1660024 12.20756,12.3951434 4.33321,8.177708 4.33321,20.264258 z m -15.00319,0.411458 q 0,-8.332005 -2.23649,-13.680947 -2.18991,-5.400373 -6.52312,-7.97198 -4.28663,-2.571606 -10.62338,-2.571606 h -7.68796 v 48.963387 h 6.19697 q 10.57678,0 15.70208,-6.223288 5.1719,-6.223288 5.1719,-18.515566 z"
       style="font-weight:bold;font-family:'Open Sans';-inkscape-font-specification:'Open Sans Bold';stroke-width:0.951802"
       id="path63255" /><path
       d="m 648.48082,39.824282 q 0,8.69203 -1.95693,15.841096 -1.95693,7.097634 -5.964,12.240846 -3.96047,5.143213 -10.06425,7.920548 -6.10378,2.725903 -14.44405,2.725903 -8.34028,0 -14.44407,-2.725903 -6.10377,-2.777335 -10.11083,-7.920548 -3.96047,-5.143212 -5.91741,-12.292278 -1.95693,-7.149066 -1.95693,-15.892528 0,-11.675094 3.44794,-20.315691 3.49452,-8.69203 10.71656,-13.475218 7.22203,-4.783188 18.35793,-4.783188 11.08931,0 18.21814,4.783188 7.17544,4.783188 10.62338,13.475218 3.49452,8.69203 3.49452,20.418555 z m -49.71551,0 q 0,7.869116 1.77056,13.578082 1.81716,5.657534 5.63784,8.743462 3.82069,3.034496 9.87788,3.034496 6.15036,0 9.97106,-3.034496 3.82068,-3.085928 5.54465,-8.743462 1.77056,-5.708966 1.77056,-13.578082 0,-11.82939 -4.00706,-18.618431 -4.00706,-6.789041 -13.18602,-6.789041 -6.10379,0 -9.97107,3.085928 -3.82068,3.034496 -5.63784,8.743462 -1.77056,5.657534 -1.77056,13.578082 z"
       style="font-weight:bold;font-family:'Open Sans';-inkscape-font-specification:'Open Sans Bold';stroke-width:0.951802"
       id="path63257" /><path
       d="m 691.53344,14.519675 q -4.14684,0 -7.3618,1.800124 -3.16838,1.748692 -5.3583,5.091781 -2.1433,3.343088 -3.26155,8.074844 -1.11826,4.731756 -1.11826,10.646451 0,7.97198 1.77057,13.629514 1.81716,5.606102 5.59124,8.589166 3.7741,2.931631 9.7381,2.931631 4.14683,0 8.29368,-1.028643 4.19344,-1.028642 9.08579,-2.931631 v 13.372353 q -4.5196,2.057286 -8.89941,2.931632 -4.37983,0.925778 -9.83129,0.925778 -10.53018,0 -17.33286,-4.783188 -6.75609,-4.83462 -10.01766,-13.475218 -3.26155,-8.692029 -3.26155,-20.264258 0,-8.537734 2.09672,-15.635368 2.09672,-7.097633 6.15037,-12.292278 4.05366,-5.1946455 10.01765,-8.0234126 5.964,-2.8287671 13.69856,-2.8287671 5.07872,0 10.15743,1.4400996 5.1253,1.3886675 9.78468,3.8574097 l -4.65938,12.9608964 q -3.82067,-2.005853 -7.68796,-3.497385 -3.86727,-1.491531 -7.59477,-1.491531 z"
       style="font-weight:bold;font-family:'Open Sans';-inkscape-font-specification:'Open Sans Bold';stroke-width:0.951802"
       id="path63259" /><path
       d="m 778.85009,2.33026 v 48.654794 q 0,7.766252 -3.12178,14.040971 -3.07518,6.223288 -9.36534,9.874969 -6.24356,3.651681 -15.74869,3.651681 -13.51217,0 -20.59442,-7.611955 -7.08225,-7.611955 -7.08225,-20.161394 V 2.33026 h 14.39747 v 46.031755 q 0,9.309216 3.44793,13.063761 3.44793,3.754546 10.20403,3.754546 4.75256,0 7.68797,-1.800125 2.982,-1.800124 4.3798,-5.55467 1.39781,-3.754545 1.39781,-9.566376 V 2.33026 Z"
       style="font-weight:bold;font-family:'Open Sans';-inkscape-font-specification:'Open Sans Bold';stroke-width:0.951802"
       id="path63261" /><path
       d="M 824.37217,77.524033 807.97118,18.531381 h -0.41935 q 0.0932,2.108717 0.27957,6.377584 0.23297,4.217434 0.41934,9.000622 0.18638,4.783188 0.18638,8.640598 V 77.524033 H 795.53065 V 2.33026 h 19.66256 l 16.12143,57.50112 h 0.27956 L 848.6941,2.33026 h 19.66256 V 77.524033 H 854.89108 V 41.932999 q 0,-3.548817 0.0932,-8.177708 0.13978,-4.628892 0.32616,-8.794894 0.18637,-4.217435 0.27956,-6.326152 h -0.41934 l -17.56585,58.889788 z"
       style="font-weight:bold;font-family:'Open Sans';-inkscape-font-specification:'Open Sans Bold';stroke-width:0.951802"
       id="path63263" /><path
       d="M 924.73507,77.524033 H 885.50314 V 2.33026 h 39.23193 V 15.394021 H 899.9472 v 16.509713 h 23.0639 v 13.063761 h -23.0639 v 19.389913 h 24.78787 z"
       style="font-weight:bold;font-family:'Open Sans';-inkscape-font-specification:'Open Sans Bold';stroke-width:0.951802"
       id="path63265" /><path
       d="M 999.37812,77.524033 H 981.02035 L 951.38668,20.640098 h -0.41934 q 0.18637,3.548817 0.32615,7.149066 0.13978,3.600249 0.27957,7.200498 0.13977,3.548817 0.27956,7.149066 V 77.524033 H 938.94616 V 2.33026 h 18.21811 l 29.587,56.318181 h 0.3263 q -0.0925,-3.497385 -0.23299,-6.943337 -0.13987,-3.445953 -0.27965,-6.891905 -0.0925,-3.445953 -0.18633,-6.891906 V 2.33026 h 12.99952 z"
       style="font-weight:bold;font-family:'Open Sans';-inkscape-font-specification:'Open Sans Bold';stroke-width:0.951802"
       id="path63267" /><path
       d="m 1042.8037,77.524033 h -14.4441 V 15.599749 h -18.4977 V 2.33026 h 51.4395 v 13.269489 h -18.4977 z"
       style="font-weight:bold;font-family:'Open Sans';-inkscape-font-specification:'Open Sans Bold';stroke-width:0.951802"
       id="path63269" /><path
       d="m 1113.4862,77.524033 -4.9389,-17.898381 h -24.8345 l -4.9389,17.898381 h -15.5623 l 24.0423,-75.5023658 h 17.6592 l 24.1355,75.5023658 z m -8.3869,-31.270735 -4.9389,-17.486924 q -0.4659,-1.748692 -1.2579,-4.474595 -0.7456,-2.777335 -1.5377,-5.606102 -0.7455,-2.880199 -1.2114,-4.988916 -0.466,2.108717 -1.3046,5.246077 -0.7921,3.085927 -1.5376,5.863262 -0.7455,2.777335 -1.0717,3.960274 l -4.8924,17.486924 z"
       style="font-weight:bold;font-family:'Open Sans';-inkscape-font-specification:'Open Sans Bold';stroke-width:0.951802"
       id="path63271" /><path
       d="m 1163.9007,77.524033 h -14.4441 V 15.599749 h -18.4977 V 2.33026 h 51.4395 v 13.269489 h -18.4977 z"
       style="font-weight:bold;font-family:'Open Sans';-inkscape-font-specification:'Open Sans Bold';stroke-width:0.951802"
       id="path63273" /><path
       d="M 1192.882,77.524033 V 2.33026 h 14.444 v 75.193773 z"
       style="font-weight:bold;font-family:'Open Sans';-inkscape-font-specification:'Open Sans Bold';stroke-width:0.951802"
       id="path63275" /><path
       d="m 1286.3024,39.824282 q 0,8.69203 -1.9569,15.841096 -1.9569,7.097634 -5.9641,12.240846 -3.9604,5.143213 -10.0641,7.920548 -6.1038,2.725903 -14.4441,2.725903 -8.3402,0 -14.4441,-2.725903 -6.1037,-2.777335 -10.1108,-7.920548 -3.9604,-5.143212 -5.9174,-12.292278 -1.957,-7.149066 -1.957,-15.892528 0,-11.675094 3.4479,-20.315691 3.4947,-8.69203 10.7166,-13.475218 7.222,-4.783188 18.358,-4.783188 11.0892,0 18.2182,4.783188 7.1753,4.783188 10.6233,13.475218 3.4945,8.69203 3.4945,20.418555 z m -49.7155,0 q 0,7.869116 1.7706,13.578082 1.8172,5.657534 5.6377,8.743462 3.8209,3.034496 9.878,3.034496 6.1503,0 9.9711,-3.034496 3.8207,-3.085928 5.5446,-8.743462 1.7705,-5.708966 1.7705,-13.578082 0,-11.82939 -4.007,-18.618431 -4.007,-6.789041 -13.186,-6.789041 -6.1038,0 -9.9712,3.085928 -3.8205,3.034496 -5.6377,8.743462 -1.7706,5.657534 -1.7706,13.578082 z"
       style="font-weight:bold;font-family:'Open Sans';-inkscape-font-specification:'Open Sans Bold';stroke-width:0.951802"
       id="path63277" /><path
       d="m 1360.8524,77.524033 h -18.358 l -29.6336,-56.883935 h -0.4193 q 0.1863,3.548817 0.3261,7.149066 0.1399,3.600249 0.2796,7.200498 0.1397,3.548817 0.2796,7.149066 v 35.385305 h -12.9066 V 2.33026 h 18.2182 l 29.587,56.318181 h 0.3263 q -0.094,-3.497385 -0.2331,-6.943337 -0.1397,-3.445953 -0.2795,-6.891905 -0.093,-3.445953 -0.1864,-6.891906 V 2.33026 h 12.9997 z"
       style="font-weight:bold;font-family:'Open Sans';-inkscape-font-specification:'Open Sans Bold';stroke-width:0.951802"
       id="path63279" /></g></svg>
