<?xml version="1.0" encoding="UTF-8" standalone="no"?>
<!-- Created with Inkscape (http://www.inkscape.org/) -->

<svg
   width="1280"
   height="600"
   viewBox="0 0 338.66665 158.74998"
   version="1.1"
   id="svg5"
   inkscape:version="1.1.2 (0a00cf5339, 2022-02-04)"
   sodipodi:docname="archive-incremental.svg"
   xmlns:inkscape="http://www.inkscape.org/namespaces/inkscape"
   xmlns:sodipodi="http://sodipodi.sourceforge.net/DTD/sodipodi-0.dtd"
   xmlns="http://www.w3.org/2000/svg"
   xmlns:svg="http://www.w3.org/2000/svg">
  <sodipodi:namedview
     id="namedview7"
     pagecolor="#ffffff"
     bordercolor="#666666"
     borderopacity="1.0"
     inkscape:pageshadow="2"
     inkscape:pageopacity="0.0"
     inkscape:pagecheckerboard="0"
     inkscape:document-units="mm"
     showgrid="false"
     inkscape:zoom="0.70710678"
     inkscape:cx="640.63874"
     inkscape:cy="412.95036"
     inkscape:window-width="2560"
     inkscape:window-height="743"
     inkscape:window-x="0"
     inkscape:window-y="660"
     inkscape:window-maximized="0"
     inkscape:current-layer="layer1"
     units="px" />
  <defs
     id="defs2">
    <marker
       style="overflow:visible;"
       id="marker34101"
       refX="0.0"
       refY="0.0"
       orient="auto"
       inkscape:stockid="Arrow2Lend"
       inkscape:isstock="true">
      <path
         transform="scale(1.1) rotate(180) translate(1,0)"
         d="M 8.7185878,4.0337352 L -2.2072895,0.016013256 L 8.7185884,-4.0017078 C 6.9730900,-1.6296469 6.9831476,1.6157441 8.7185878,4.0337352 z "
         style="stroke:context-stroke;fill-rule:evenodd;fill:context-stroke;stroke-width:0.62500000;stroke-linejoin:round;"
         id="path34099" />
    </marker>
    <marker
       style="overflow:visible"
       id="Arrow2Lend"
       refX="0"
       refY="0"
       orient="auto"
       inkscape:stockid="Arrow2Lend"
       inkscape:isstock="true">
      <path
         transform="matrix(-1.1,0,0,-1.1,-1.1,0)"
         d="M 8.7185878,4.0337352 -2.2072895,0.01601326 8.7185884,-4.0017078 c -1.7454984,2.3720609 -1.7354408,5.6174519 -6e-7,8.035443 z"
         style="fill:context-stroke;fill-rule:evenodd;stroke:context-stroke;stroke-width:0.625;stroke-linejoin:round"
         id="path16117" />
    </marker>
    <rect
       id="path-1"
       x="1"
       y="162"
       width="206.2522"
       height="66.974953" />
    <filter
       x="-0.0099999998"
       y="-0.029999999"
       width="1.0190001"
       height="1.0599999"
       filterUnits="objectBoundingBox"
       id="filter-2">
      <feGaussianBlur
         stdDeviation="1.5"
         in="SourceAlpha"
         result="shadowBlurInner1"
         id="feGaussianBlur12" />
      <feOffset
         dx="0"
         dy="1"
         in="shadowBlurInner1"
         result="shadowOffsetInner1"
         id="feOffset14" />
      <feComposite
         in="shadowOffsetInner1"
         in2="SourceAlpha"
         operator="arithmetic"
         k2="-1"
         k3="1"
         result="shadowInnerInner1"
         id="feComposite16"
         k1="0"
         k4="0" />
      <feColorMatrix
         values="0 0 0 0 0   0 0 0 0 0   0 0 0 0 0  0 0 0 0.5 0"
         type="matrix"
         in="shadowInnerInner1"
         id="feColorMatrix18" />
    </filter>
    <rect
       id="path-3"
       x="0"
       y="0"
       width="288"
       height="37"
       rx="5" />
  </defs>
  <g
     inkscape:label="Warstwa 1"
     inkscape:groupmode="layer"
     id="layer1">
    <rect
       style="fill:#ffeeaa;fill-opacity:1;stroke:none;stroke-width:0.264999;stroke-linecap:round;stroke-miterlimit:4;stroke-dasharray:none;stroke-dashoffset:0"
       id="rect34989"
       width="81.045929"
       height="15.95965"
       x="136.83214"
       y="48.783085" />
    <rect
       style="fill:#f2f2f2;fill-opacity:1;stroke:none;stroke-width:0.264583;stroke-linecap:round;stroke-miterlimit:4;stroke-dasharray:1.05833, 1.05833;stroke-dashoffset:0"
       id="rect32721"
       width="74.726349"
       height="74.264923"
       x="261.90469"
       y="82.353142" />
    <path
       style="fill:#b3b3b3;stroke:#b3b3b3;stroke-width:0.5;stroke-linecap:butt;stroke-linejoin:miter;stroke-miterlimit:4;stroke-dasharray:none;stroke-dashoffset:0;stroke-opacity:1"
       d="m 29.237091,113.30223 v 17.17128"
       id="path4008"
       sodipodi:nodetypes="cc" />
    <path
       style="fill:#b3b3b3;stroke:#b3b3b3;stroke-width:0.5;stroke-linecap:butt;stroke-linejoin:miter;stroke-miterlimit:4;stroke-dasharray:none;stroke-dashoffset:0;stroke-opacity:1"
       d="m 29.1322,130.48522 v 0 l 10.839741,-0.0169"
       id="path4010"
       sodipodi:nodetypes="ccc" />
    <path
       style="fill:#b3b3b3;stroke:#b3b3b3;stroke-width:0.5;stroke-linecap:butt;stroke-linejoin:miter;stroke-miterlimit:4;stroke-dasharray:none;stroke-dashoffset:0;stroke-opacity:1"
       d="m 28.312559,80.724379 v 0 l 15.07498,-0.01694"
       id="path3336"
       sodipodi:nodetypes="ccc" />
    <path
       style="fill:#b3b3b3;stroke:#b3b3b3;stroke-width:0.5;stroke-linecap:butt;stroke-linejoin:miter;stroke-miterlimit:4;stroke-dasharray:none;stroke-dashoffset:0;stroke-opacity:1"
       d="M 28.361143,46.551379 V 80.822655"
       id="path2520"
       sodipodi:nodetypes="cc" />
    <path
       style="fill:#b3b3b3;stroke:#b3b3b3;stroke-width:0.5;stroke-linecap:butt;stroke-linejoin:miter;stroke-miterlimit:4;stroke-dasharray:none;stroke-dashoffset:0;stroke-opacity:1"
       d="m 28.312559,60.086866 v 0 l 15.07498,-0.01694"
       id="path1907"
       sodipodi:nodetypes="ccc" />
    <path
       style="fill:#b3b3b3;stroke:#b3b3b3;stroke-width:0.5;stroke-linecap:butt;stroke-linejoin:miter;stroke-miterlimit:4;stroke-dasharray:none;stroke-dashoffset:0;stroke-opacity:1"
       d="m 14.51457,42.095188 c 14.327156,0 14.327156,0 14.327156,0 v -0.01694"
       id="path1903" />
    <path
       style="fill:#b3b3b3;stroke:#b3b3b3;stroke-width:0.5;stroke-linecap:butt;stroke-linejoin:miter;stroke-miterlimit:4;stroke-dasharray:none;stroke-dashoffset:0;stroke-opacity:1"
       d="m 14.51457,113.53276 c 14.327156,0 14.327156,0 14.327156,0 v -0.0169"
       id="path1905" />
    <path
       style="fill:#b3b3b3;stroke:#b3b3b3;stroke-width:0.5;stroke-linecap:butt;stroke-linejoin:miter;stroke-miterlimit:4;stroke-dasharray:none;stroke-dashoffset:0;stroke-opacity:1"
       d="m 14.51457,24.632677 c 14.327156,0 14.327156,0 14.327156,0 v -0.01694"
       id="path1821" />
    <path
       style="fill:#b3b3b3;stroke:#b3b3b3;stroke-width:0.5;stroke-linecap:butt;stroke-linejoin:miter;stroke-miterlimit:4;stroke-dasharray:none;stroke-dashoffset:0;stroke-opacity:1"
       d="m 14.602801,13.864886 c 0,123.585194 0,123.585194 0,123.585194"
       id="path1706" />
    <g
       id="g1385"
       transform="matrix(0.13879077,0,0,0.13879077,19.970954,15.516874)"
       style="fill:#555d72;fill-opacity:1">
      <g
         style="fill:#555d72;fill-opacity:1;fill-rule:evenodd;stroke:none;stroke-width:1"
         id="g1381"
         transform="translate(1580,-271)" />
      <path
         d="m 55.024,28 h -27 c -4.95,0 -8.955,4.05 -8.955,9 L 19,91 c 0,4.95 4.05,9 9,9 h 72 c 4.95,0 9,-4.05 9,-9 V 46 c 0,-4.95 -4.05,-9 -9,-9 H 64 l -9,-9 v 0 z"
         id="path1383"
         inkscape:connector-curvature="0"
         style="fill:#555d72;fill-opacity:1;fill-rule:evenodd;stroke:none;stroke-width:1" />
    </g>
    <g
       id="g1409"
       transform="matrix(0.13879077,0,0,0.13879077,35.046069,51.279557)"
       style="fill:#555d72;fill-opacity:1">
      <g
         style="fill:#555d72;fill-opacity:1;fill-rule:evenodd;stroke:none;stroke-width:1"
         id="g1405"
         transform="translate(1580,-271)" />
      <path
         d="m 55.024,28 h -27 c -4.95,0 -8.955,4.05 -8.955,9 L 19,91 c 0,4.95 4.05,9 9,9 h 72 c 4.95,0 9,-4.05 9,-9 V 46 c 0,-4.95 -4.05,-9 -9,-9 H 64 l -9,-9 v 0 z"
         id="path1407"
         inkscape:connector-curvature="0"
         style="fill:#555d72;fill-opacity:1;fill-rule:evenodd;stroke:none;stroke-width:1" />
    </g>
    <g
       id="g1415"
       transform="matrix(0.13879077,0,0,0.13879077,19.970954,103.79764)"
       style="fill:#555d72;fill-opacity:1">
      <g
         style="fill:#555d72;fill-opacity:1;fill-rule:evenodd;stroke:none;stroke-width:1"
         id="g1411"
         transform="translate(1580,-271)" />
      <path
         d="m 55.024,28 h -27 c -4.95,0 -8.955,4.05 -8.955,9 L 19,91 c 0,4.95 4.05,9 9,9 h 72 c 4.95,0 9,-4.05 9,-9 V 46 c 0,-4.95 -4.05,-9 -9,-9 H 64 l -9,-9 v 0 z"
         id="path1413"
         inkscape:connector-curvature="0"
         style="fill:#555d72;fill-opacity:1;fill-rule:evenodd;stroke:none;stroke-width:1" />
    </g>
    <path
       d="m 35.287138,39.323665 v 6.624306 c 0,0.607273 -0.399121,1.104131 -0.886937,1.104131 h -8.868175 c -0.488205,0 -0.886937,-0.496858 -0.886937,-1.104131 v -0.301212 l 8.397035,1.7e-4 c 0.460714,0 0.842316,-0.443186 0.883294,-1.004008 l 0.0037,-0.100124 -2.93e-4,-5.219137 z m -2.037116,-0.70259 v 5.502284 c 0,0.504413 -0.39912,0.917116 -0.886931,0.917116 h -8.868175 c -0.488211,0 -0.886937,-0.412703 -0.886937,-0.917116 v -5.502284 z m -7.538164,-2.980216 c 0.487817,0 0.886937,0.412703 0.886937,0.917117 v 0 0.228872 h 5.764296 c 0.487811,0 0.886931,0.413107 0.886931,0.917116 v 0 0.458559 H 22.607979 v -1.604547 c 0,-0.504414 0.398726,-0.917117 0.886937,-0.917117 v 0 z"
       id="path1503"
       style="fill:#596e99;fill-opacity:1;fill-rule:nonzero;stroke:none;stroke-width:0.633955" />
    <g
       id="g1671"
       stroke="none"
       stroke-width="1"
       fill="none"
       fill-rule="evenodd"
       transform="matrix(0.53844606,0,0,0.53844606,35.313541,121.06403)"
       style="fill:#596e99;fill-opacity:1">
      <path
         d="m 25,14.25 v 10.5 c 0,0.9625 -0.7875,1.75 -1.75,1.75 v 0 H 12.74125 C 11.77875,26.5 11,25.7125 11,24.75 v 0 l 10e-4,-1.25 h 9.249 c 0.9625,0 1.75,-0.7875 1.75,-1.75 v -10.5 z"
         id="path1667"
         fill="#000000"
         style="fill:#596e99;fill-opacity:1" />
      <path
         d="m 15.75,5 h -7 C 7.7875,5 7.00875,5.7875 7.00875,6.75 L 7,20.75 c 0,0.9625 0.77875,1.75 1.74125,1.75 H 19.25 c 0.9625,0 1.75,-0.7875 1.75,-1.75 v -10.5 z m 1.75,14 h -7 v -1.75 h 7 z m 0,-3.5 h -7 v -1.75 h 7 z M 14.875,11.125 V 6.3125 l 4.8125,4.8125 z"
         id="path1669"
         fill="#000000"
         style="fill:#596e99;fill-opacity:1" />
    </g>
    <text
       xml:space="preserve"
       style="font-style:normal;font-weight:normal;font-size:5.64444px;line-height:1.25;font-family:sans-serif;fill:#000000;fill-opacity:1;stroke:none;stroke-width:0.264583"
       x="41.345081"
       y="26.866173"
       id="text6891"><tspan
         sodipodi:role="line"
         id="tspan6889"
         style="font-size:5.64444px;stroke-width:0.264583"
         x="41.345081"
         y="26.866173">...</tspan></text>
    <text
       xml:space="preserve"
       style="font-style:normal;font-weight:normal;font-size:5.64444px;line-height:1.25;font-family:sans-serif;fill:#000000;fill-opacity:1;stroke:none;stroke-width:0.264583"
       x="41.383644"
       y="43.432827"
       id="text7437"><tspan
         sodipodi:role="line"
         id="tspan7435"
         style="font-size:5.64444px;stroke-width:0.264583"
         x="41.383644"
         y="43.432827">Experiment A</tspan></text>
    <path
       style="fill:#b3b3b3;stroke:#b3b3b3;stroke-width:0.5;stroke-linecap:butt;stroke-linejoin:miter;stroke-miterlimit:4;stroke-dasharray:none;stroke-dashoffset:0;stroke-opacity:1"
       d="M 44.024507,80.438147 V 97.609425"
       id="path3576"
       sodipodi:nodetypes="cc" />
    <path
       style="fill:#b3b3b3;stroke:#b3b3b3;stroke-width:0.5;stroke-linecap:butt;stroke-linejoin:miter;stroke-miterlimit:4;stroke-dasharray:none;stroke-dashoffset:0;stroke-opacity:1"
       d="m 43.919617,97.621138 v 0 l 15.07498,-0.01694"
       id="path3574"
       sodipodi:nodetypes="ccc" />
    <g
       id="g1397"
       transform="matrix(0.13879077,0,0,0.13879077,35.046069,71.394439)"
       style="fill:#555d72;fill-opacity:1">
      <g
         style="fill:#555d72;fill-opacity:1;fill-rule:evenodd;stroke:none;stroke-width:1"
         id="g1393"
         transform="translate(1580,-271)" />
      <path
         d="m 55.024,28 h -27 c -4.95,0 -8.955,4.05 -8.955,9 L 19,91 c 0,4.95 4.05,9 9,9 h 72 c 4.95,0 9,-4.05 9,-9 V 46 c 0,-4.95 -4.05,-9 -9,-9 H 64 l -9,-9 v 0 z"
         id="path1395"
         inkscape:connector-curvature="0"
         style="fill:#555d72;fill-opacity:1;fill-rule:evenodd;stroke:none;stroke-width:1" />
    </g>
    <path
       d="m 65.005607,95.201233 v 6.624317 c 0,0.60727 -0.39912,1.10413 -0.88694,1.10413 h -8.86817 c -0.48821,0 -0.88694,-0.49686 -0.88694,-1.10413 v -0.30122 l 8.39704,1.7e-4 c 0.46071,0 0.84231,-0.44318 0.88329,-1.00401 l 0.004,-0.10013 -2.9e-4,-5.219132 z m -2.03712,-0.70259 v 5.502287 c 0,0.50441 -0.39912,0.91712 -0.88693,0.91712 h -8.86817 c -0.48821,0 -0.88694,-0.41271 -0.88694,-0.91712 v -5.502287 z m -7.53816,-2.980215 c 0.48782,0 0.88694,0.412702 0.88694,0.917116 v 0 0.228872 h 5.76429 c 0.48781,0 0.88693,0.413107 0.88693,0.917116 v 0 0.458559 h -10.64204 v -1.604547 c 0,-0.504414 0.39873,-0.917116 0.88694,-0.917116 v 0 z"
       id="path1585"
       style="fill:#596e99;fill-opacity:1;fill-rule:nonzero;stroke:none;stroke-width:0.633955" />
    <text
       xml:space="preserve"
       style="font-style:normal;font-weight:normal;font-size:5.64444px;line-height:1.25;font-family:sans-serif;fill:#000000;fill-opacity:1;stroke:none;stroke-width:0.264583"
       x="55.823711"
       y="82.679115"
       id="text9131"><tspan
         sodipodi:role="line"
         id="tspan9129"
         style="font-size:5.64444px;stroke-width:0.264583"
         x="55.823711"
         y="82.679115">Processed</tspan></text>
    <text
       xml:space="preserve"
       style="font-style:normal;font-weight:normal;font-size:5.64444px;line-height:1.25;font-family:sans-serif;fill:#000000;fill-opacity:1;stroke:none;stroke-width:0.264583"
       x="55.823711"
       y="63.099926"
       id="text9624"><tspan
         sodipodi:role="line"
         id="tspan9622"
         style="font-size:5.64444px;stroke-width:0.264583"
         x="55.823711"
         y="63.099926">Inputs</tspan></text>
    <text
       xml:space="preserve"
       style="font-style:normal;font-weight:normal;font-size:5.64444px;line-height:1.25;font-family:sans-serif;fill:#000000;fill-opacity:1;stroke:none;stroke-width:0.264583"
       x="70.043663"
       y="100.40287"
       id="text10960"><tspan
         sodipodi:role="line"
         id="tspan10958"
         style="font-size:5.64444px;stroke-width:0.264583"
         x="70.043663"
         y="100.40287">Results</tspan></text>
    <text
       xml:space="preserve"
       style="font-style:normal;font-weight:normal;font-size:5.64444px;line-height:1.25;font-family:sans-serif;fill:#000000;fill-opacity:1;stroke:none;stroke-width:0.264583"
       x="40.990112"
       y="114.62043"
       id="text12746"><tspan
         sodipodi:role="line"
         id="tspan12744"
         style="font-size:5.64444px;stroke-width:0.264583"
         x="40.990112"
         y="114.62043">...</tspan></text>
    <text
       xml:space="preserve"
       style="font-style:normal;font-weight:normal;font-size:5.64444px;line-height:1.25;font-family:sans-serif;fill:#000000;fill-opacity:1;stroke:none;stroke-width:0.264583"
       x="53.379795"
       y="132.60803"
       id="text12750"><tspan
         sodipodi:role="line"
         id="tspan12748"
         style="font-size:5.64444px;stroke-width:0.264583"
         x="53.379795"
         y="132.60803">Statistics.csv</tspan></text>
    <path
       style="fill:#b3b3b3;stroke:#808080;stroke-width:0.5;stroke-linecap:butt;stroke-linejoin:miter;stroke-miterlimit:4;stroke-dasharray:none;stroke-dashoffset:0;stroke-opacity:1;marker-end:url(#Arrow2Lend)"
       d="m 86.803139,41.017847 c 9.598625,0.0061 33.848411,-0.0053 42.750381,-0.0169"
       id="path16094"
       sodipodi:nodetypes="cc" />
    <path
       d="m 150.8058,38.490083 c 0.61716,0 1.11088,0.473281 1.11088,1.064885 v 0 5.087781 c 0,0.5916 -0.49372,1.064885 -1.11088,1.064885 v 0 h -6.17158 c -0.61716,0 -1.11088,-0.473285 -1.11088,-1.064885 v 0 -5.087781 c 0,-0.591604 0.49372,-1.064885 1.11088,-1.064885 v 0 z m -1.69102,1.620991 c -0.20983,0 -0.37029,0.153815 -0.37029,0.35496 v 0 0.544274 h -2.04896 v -0.544274 c 0,-0.201145 -0.16046,-0.35496 -0.37029,-0.35496 -0.20984,0 -0.37029,0.153815 -0.37029,0.35496 v 0 0.899239 c 0,0.201141 0.16045,0.354959 0.37029,0.354959 v 0 h 2.78954 c 0.20984,0 0.3703,-0.153818 0.3703,-0.354959 v 0 -0.899239 c 0,-0.201145 -0.16046,-0.35496 -0.3703,-0.35496 z m 1.72776,-2.995764 c 0.21232,0 0.3747,0.148931 0.3747,0.343695 0,0.194758 -0.16238,0.343689 -0.3747,0.343689 v 0 h -6.24505 c -0.21233,0 -0.37471,-0.148931 -0.37471,-0.343689 0,-0.194764 0.16238,-0.343695 0.37471,-0.343695 v 0 z m -0.68968,-1.374772 c 0.2068,0 0.36493,0.148934 0.36493,0.343693 0,0.19476 -0.15813,0.343691 -0.36493,0.343691 v 0 h -4.8657 c -0.20679,0 -0.36493,-0.148931 -0.36493,-0.343691 0,-0.194759 0.15814,-0.343693 0.36493,-0.343693 v 0 z"
       id="path18435"
       style="fill:#596e99;fill-opacity:1;fill-rule:nonzero;stroke:none;stroke-width:0.524582" />
    <text
       xml:space="preserve"
       style="font-style:normal;font-weight:normal;font-size:4.5604px;line-height:1.25;font-family:sans-serif;fill:#000000;fill-opacity:1;stroke:none;stroke-width:0.213769"
       x="156.97459"
       y="42.557648"
       id="text18457"><tspan
         sodipodi:role="line"
         id="tspan18455"
         style="font-size:4.5604px;stroke-width:0.213769"
         x="156.97459"
         y="42.557648">snapshot @ 11.02.2022</tspan></text>
    <path
       d="m 150.8058,54.496924 c 0.61716,0 1.11088,0.473281 1.11088,1.064885 v 0 5.087781 c 0,0.5916 -0.49372,1.064885 -1.11088,1.064885 v 0 h -6.17158 c -0.61716,0 -1.11088,-0.473285 -1.11088,-1.064885 v 0 -5.087781 c 0,-0.591604 0.49372,-1.064885 1.11088,-1.064885 v 0 z m -1.69102,1.620991 c -0.20983,0 -0.37029,0.153815 -0.37029,0.35496 v 0 0.544274 h -2.04896 v -0.544274 c 0,-0.201145 -0.16046,-0.35496 -0.37029,-0.35496 -0.20984,0 -0.37029,0.153815 -0.37029,0.35496 v 0 0.899239 c 0,0.201141 0.16045,0.35496 0.37029,0.35496 v 0 h 2.78954 c 0.20984,0 0.3703,-0.153819 0.3703,-0.35496 v 0 -0.899239 c 0,-0.201145 -0.16046,-0.35496 -0.3703,-0.35496 z m 1.72776,-2.995764 c 0.21232,0 0.3747,0.148931 0.3747,0.343695 0,0.194758 -0.16238,0.343689 -0.3747,0.343689 v 0 h -6.24505 c -0.21233,0 -0.37471,-0.148931 -0.37471,-0.343689 0,-0.194764 0.16238,-0.343695 0.37471,-0.343695 v 0 z m -0.68968,-1.374772 c 0.2068,0 0.36493,0.148934 0.36493,0.343693 0,0.19476 -0.15813,0.343691 -0.36493,0.343691 v 0 h -4.8657 c -0.20679,0 -0.36493,-0.148931 -0.36493,-0.343691 0,-0.194759 0.15814,-0.343693 0.36493,-0.343693 v 0 z"
       id="path18825"
       style="fill:#596e99;fill-opacity:1;fill-rule:nonzero;stroke:none;stroke-width:0.524582" />
    <text
       xml:space="preserve"
       style="font-style:normal;font-weight:normal;font-size:4.5604px;line-height:1.25;font-family:sans-serif;fill:#000000;fill-opacity:1;stroke:none;stroke-width:0.213769"
       x="156.97459"
       y="58.564487"
       id="text18829"><tspan
         sodipodi:role="line"
         id="tspan18827"
         style="font-size:4.5604px;stroke-width:0.213769"
         x="156.97459"
         y="58.564487">snapshot @ 26.06.2023</tspan></text>
    <rect
       style="fill:none;fill-opacity:1;stroke:#808080;stroke-width:0.403972;stroke-linecap:round;stroke-miterlimit:4;stroke-dasharray:none;stroke-dashoffset:0"
       id="rect20791"
       width="81.252792"
       height="32.030453"
       x="136.62527"
       y="32.712284" />
    <path
       style="fill:#b3b3b3;stroke:#808080;stroke-width:0.5;stroke-linecap:butt;stroke-linejoin:miter;stroke-miterlimit:4;stroke-dasharray:none;stroke-dashoffset:0;stroke-opacity:1;marker-end:url(#Arrow2Lend)"
       d="m 96.093352,98.225894 c 9.598628,0.0061 33.848408,-0.0053 42.750378,-0.0169"
       id="path20903"
       sodipodi:nodetypes="cc" />
    <path
       style="fill:none;stroke:#000000;stroke-width:0.264583;stroke-linecap:butt;stroke-linejoin:miter;stroke-miterlimit:4;stroke-dasharray:1.05833, 1.05833;stroke-dashoffset:0;stroke-opacity:1"
       d="m 136.83213,48.783086 h 81.05592"
       id="path24098" />
    <g
       id="g32677"
       transform="matrix(0.90149251,0,0,0.90149251,50.922691,81.023036)">
      <g
         id="g24190"
         transform="matrix(0.13879077,0,0,0.13879077,241.87376,4.2357378)"
         style="fill:#555d72;fill-opacity:1">
        <g
           style="fill:#555d72;fill-opacity:1;fill-rule:evenodd;stroke:none;stroke-width:1"
           id="g24186"
           transform="translate(1580,-271)" />
        <path
           d="m 55.024,28 h -27 c -4.95,0 -8.955,4.05 -8.955,9 L 19,91 c 0,4.95 4.05,9 9,9 h 72 c 4.95,0 9,-4.05 9,-9 V 46 c 0,-4.95 -4.05,-9 -9,-9 H 64 l -9,-9 v 0 z"
           id="path24188"
           inkscape:connector-curvature="0"
           style="fill:#555d72;fill-opacity:1;fill-rule:evenodd;stroke:none;stroke-width:1" />
      </g>
      <text
         xml:space="preserve"
         style="font-style:normal;font-weight:normal;font-size:4.93889px;line-height:1.25;font-family:sans-serif;fill:#000000;fill-opacity:1;stroke:none;stroke-width:0.264583"
         x="262.70444"
         y="15.204431"
         id="text24204"><tspan
           sodipodi:role="line"
           id="tspan24202"
           style="font-size:4.93889px;stroke-width:0.264583"
           x="262.70444"
           y="15.204431">Directory</tspan></text>
    </g>
    <g
       id="g32683"
       transform="matrix(0.90149251,0,0,0.90149251,50.922691,83.545472)">
      <path
         d="m 257.18994,27.96777 v 6.624306 c 0,0.607273 -0.39912,1.104131 -0.88693,1.104131 h -8.86818 c -0.4882,0 -0.88694,-0.496858 -0.88694,-1.104131 v -0.301212 l 8.39704,1.7e-4 c 0.46071,0 0.84232,-0.443186 0.88329,-1.004008 l 0.004,-0.100124 -2.9e-4,-5.219137 z m -2.03711,-0.70259 v 5.502284 c 0,0.504413 -0.39912,0.917116 -0.88693,0.917116 h -8.86818 c -0.48821,0 -0.88694,-0.412703 -0.88694,-0.917116 V 27.26518 Z m -7.53817,-2.980216 c 0.48782,0 0.88694,0.412703 0.88694,0.917117 v 0 0.228872 h 5.7643 c 0.48781,0 0.88693,0.413107 0.88693,0.917116 v 0 0.458559 h -10.64205 v -1.604547 c 0,-0.504414 0.39873,-0.917117 0.88694,-0.917117 v 0 z"
         id="path24192"
         style="fill:#596e99;fill-opacity:1;fill-rule:nonzero;stroke:none;stroke-width:0.633955" />
      <text
         xml:space="preserve"
         style="font-style:normal;font-weight:normal;font-size:4.93889px;line-height:1.25;font-family:sans-serif;fill:#000000;fill-opacity:1;stroke:none;stroke-width:0.264583"
         x="262.84918"
         y="28.567074"
         id="text24892"><tspan
           sodipodi:role="line"
           id="tspan24890"
           style="font-size:4.93889px;stroke-width:0.264583"
           x="262.84918"
           y="28.567074">Directory marked</tspan><tspan
           sodipodi:role="line"
           style="font-size:4.93889px;stroke-width:0.264583"
           x="262.84918"
           y="34.740685"
           id="tspan26374">as a dataset</tspan></text>
    </g>
    <g
       id="g32691"
       transform="matrix(0.90149251,0,0,0.90149251,50.922691,84.072022)">
      <g
         id="g24198"
         stroke="none"
         stroke-width="1"
         fill="none"
         fill-rule="evenodd"
         transform="matrix(0.53844606,0,0,0.53844606,242.14123,40.596279)"
         style="fill:#596e99;fill-opacity:1">
        <path
           d="m 25,14.25 v 10.5 c 0,0.9625 -0.7875,1.75 -1.75,1.75 v 0 H 12.74125 C 11.77875,26.5 11,25.7125 11,24.75 v 0 l 10e-4,-1.25 h 9.249 c 0.9625,0 1.75,-0.7875 1.75,-1.75 v -10.5 z"
           id="path24194"
           fill="#000000"
           style="fill:#596e99;fill-opacity:1" />
        <path
           d="m 15.75,5 h -7 C 7.7875,5 7.00875,5.7875 7.00875,6.75 L 7,20.75 c 0,0.9625 0.77875,1.75 1.74125,1.75 H 19.25 c 0.9625,0 1.75,-0.7875 1.75,-1.75 v -10.5 z m 1.75,14 h -7 v -1.75 h 7 z m 0,-3.5 h -7 v -1.75 h 7 z M 14.875,11.125 V 6.3125 l 4.8125,4.8125 z"
           id="path24196"
           fill="#000000"
           style="fill:#596e99;fill-opacity:1" />
      </g>
      <text
         xml:space="preserve"
         style="font-style:normal;font-weight:normal;font-size:4.93889px;line-height:1.25;font-family:sans-serif;fill:#000000;fill-opacity:1;stroke:none;stroke-width:0.264583"
         x="262.63205"
         y="47.653294"
         id="text26658"><tspan
           sodipodi:role="line"
           id="tspan26654"
           style="font-size:4.93889px;stroke-width:0.264583"
           x="262.63205"
           y="47.653294">File marked</tspan><tspan
           sodipodi:role="line"
           style="font-size:4.93889px;stroke-width:0.264583"
           x="262.63205"
           y="53.826904"
           id="tspan26656">as a dataset</tspan></text>
    </g>
    <path
       d="m 279.7595,144.1198 c 0.55636,0 1.00145,0.42666 1.00145,0.95998 v 0 4.5866 c 0,0.53332 -0.44509,0.95999 -1.00145,0.95999 v 0 h -5.56364 c -0.55636,0 -1.00145,-0.42667 -1.00145,-0.95999 v 0 -4.5866 c 0,-0.53332 0.44509,-0.95998 1.00145,-0.95998 v 0 z m -1.52444,1.46131 c -0.18917,0 -0.33382,0.13866 -0.33382,0.31999 v 0 0.49066 h -1.84712 v -0.49066 c 0,-0.18133 -0.14465,-0.31999 -0.33381,-0.31999 -0.18917,0 -0.33382,0.13866 -0.33382,0.31999 v 0 0.81066 c 0,0.18133 0.14465,0.31999 0.33382,0.31999 v 0 h 2.51475 c 0.18916,0 0.33382,-0.13866 0.33382,-0.31999 v 0 -0.81066 c 0,-0.18133 -0.14466,-0.31999 -0.33382,-0.31999 z m 1.55756,-2.70066 c 0.1914,0 0.33779,0.13426 0.33779,0.30984 0,0.17557 -0.14639,0.30983 -0.33779,0.30983 v 0 h -5.62987 c -0.19141,0 -0.3378,-0.13426 -0.3378,-0.30983 0,-0.17558 0.14639,-0.30984 0.3378,-0.30984 v 0 z m -0.62174,-1.23935 c 0.18643,0 0.32898,0.13427 0.32898,0.30984 0,0.17557 -0.14255,0.30983 -0.32898,0.30983 v 0 h -4.3864 c -0.18642,0 -0.32898,-0.13426 -0.32898,-0.30983 0,-0.17557 0.14256,-0.30984 0.32898,-0.30984 v 0 z"
       id="path24200"
       style="fill:#596e99;fill-opacity:1;fill-rule:nonzero;stroke:none;stroke-width:0.472907" />
    <text
       xml:space="preserve"
       style="font-style:normal;font-weight:normal;font-size:4.45237px;line-height:1.25;font-family:sans-serif;fill:#000000;fill-opacity:1;stroke:none;stroke-width:0.23852"
       x="288.13675"
       y="144.85045"
       id="text27674"><tspan
         sodipodi:role="line"
         style="font-size:4.45237px;stroke-width:0.23852"
         x="288.13675"
         y="144.85045"
         id="tspan27672">Dataset snapshot</tspan><tspan
         sodipodi:role="line"
         style="font-size:4.45237px;stroke-width:0.23852"
         x="288.13675"
         y="150.41591"
         id="tspan27798">— an archive</tspan></text>
    <path
       style="fill:none;stroke:#000000;stroke-width:0.265;stroke-linecap:butt;stroke-linejoin:miter;stroke-miterlimit:4;stroke-dasharray:none;stroke-opacity:1;marker-end:url(#marker34101)"
       d="m 218.03341,40.38901 c 8.95163,3.9072 8.24488,13.623392 -0.0112,16.440741"
       id="path33462"
       sodipodi:nodetypes="cc" />
    <text
       xml:space="preserve"
       style="font-style:normal;font-weight:normal;font-size:4.5604px;line-height:1.25;font-family:sans-serif;fill:#000000;fill-opacity:1;stroke:none;stroke-width:0.213769"
       x="229.83084"
       y="49.726501"
       id="text35095"><tspan
         sodipodi:role="line"
         id="tspan35093"
         style="font-size:4.5604px;stroke-width:0.213769"
         x="229.83084"
         y="49.726501">Incremental archive</tspan></text>
    <path
       d="m 158.89598,96.555031 c 0.61716,0 1.11088,0.47328 1.11088,1.06489 v 0 5.087779 c 0,0.5916 -0.49372,1.06488 -1.11088,1.06488 v 0 h -6.17158 c -0.61716,0 -1.11088,-0.47328 -1.11088,-1.06488 v 0 -5.087779 c 0,-0.59161 0.49372,-1.06489 1.11088,-1.06489 v 0 z m -1.69102,1.62099 c -0.20983,0 -0.37029,0.15382 -0.37029,0.35496 v 0 0.54428 h -2.04896 v -0.54428 c 0,-0.20114 -0.16046,-0.35496 -0.37029,-0.35496 -0.20984,0 -0.37029,0.15382 -0.37029,0.35496 v 0 0.89924 c 0,0.20114 0.16045,0.35496 0.37029,0.35496 v 0 h 2.78954 c 0.20984,0 0.3703,-0.15382 0.3703,-0.35496 v 0 -0.89924 c 0,-0.20114 -0.16046,-0.35496 -0.3703,-0.35496 z m 1.72776,-2.99576 c 0.21232,0 0.3747,0.14893 0.3747,0.34369 0,0.19476 -0.16238,0.34369 -0.3747,0.34369 v 0 h -6.24505 c -0.21233,0 -0.37471,-0.14893 -0.37471,-0.34369 0,-0.19476 0.16238,-0.34369 0.37471,-0.34369 v 0 z m -0.68968,-1.37477 c 0.2068,0 0.36493,0.14893 0.36493,0.34369 0,0.19476 -0.15813,0.34369 -0.36493,0.34369 v 0 h -4.8657 c -0.20679,0 -0.36493,-0.14893 -0.36493,-0.34369 0,-0.19476 0.15814,-0.34369 0.36493,-0.34369 v 0 z"
       id="path1097"
       style="fill:#596e99;fill-opacity:1;fill-rule:nonzero;stroke:none;stroke-width:0.524582" />
    <text
       xml:space="preserve"
       style="font-style:normal;font-weight:normal;font-size:4.5604px;line-height:1.25;font-family:sans-serif;fill:#000000;fill-opacity:1;stroke:none;stroke-width:0.213769"
       x="165.06477"
       y="100.6226"
       id="text1101"><tspan
         sodipodi:role="line"
         id="tspan1099"
         style="font-size:4.5604px;stroke-width:0.213769"
         x="165.06477"
         y="100.6226">snapshot @ 13.04.2022</tspan></text>
    <path
       d="m 158.89598,112.56187 c 0.61716,0 1.11088,0.47328 1.11088,1.06489 v 0 5.08778 c 0,0.5916 -0.49372,1.06488 -1.11088,1.06488 v 0 h -6.17158 c -0.61716,0 -1.11088,-0.47328 -1.11088,-1.06488 v 0 -5.08778 c 0,-0.59161 0.49372,-1.06489 1.11088,-1.06489 v 0 z m -1.69102,1.62099 c -0.20983,0 -0.37029,0.15382 -0.37029,0.35496 v 0 0.54428 h -2.04896 v -0.54428 c 0,-0.20114 -0.16046,-0.35496 -0.37029,-0.35496 -0.20984,0 -0.37029,0.15382 -0.37029,0.35496 v 0 0.89924 c 0,0.20114 0.16045,0.35496 0.37029,0.35496 v 0 h 2.78954 c 0.20984,0 0.3703,-0.15382 0.3703,-0.35496 v 0 -0.89924 c 0,-0.20114 -0.16046,-0.35496 -0.3703,-0.35496 z m 1.72776,-2.99576 c 0.21232,0 0.3747,0.14893 0.3747,0.3437 0,0.19475 -0.16238,0.34368 -0.3747,0.34368 v 0 h -6.24505 c -0.21233,0 -0.37471,-0.14893 -0.37471,-0.34368 0,-0.19477 0.16238,-0.3437 0.37471,-0.3437 v 0 z m -0.68968,-1.37477 c 0.2068,0 0.36493,0.14893 0.36493,0.34369 0,0.19476 -0.15813,0.34369 -0.36493,0.34369 v 0 h -4.8657 c -0.20679,0 -0.36493,-0.14893 -0.36493,-0.34369 0,-0.19476 0.15814,-0.34369 0.36493,-0.34369 v 0 z"
       id="path1103"
       style="fill:#596e99;fill-opacity:1;fill-rule:nonzero;stroke:none;stroke-width:0.524582" />
    <text
       xml:space="preserve"
       style="font-style:normal;font-weight:normal;font-size:4.5604px;line-height:1.25;font-family:sans-serif;fill:#000000;fill-opacity:1;stroke:none;stroke-width:0.213769"
       x="165.06477"
       y="116.62943"
       id="text1107"><tspan
         sodipodi:role="line"
         id="tspan1105"
         style="font-size:4.5604px;stroke-width:0.213769"
         x="165.06477"
         y="116.62943">snapshot @ 17.04.2023</tspan></text>
    <rect
       style="fill:none;fill-opacity:1;stroke:#808080;stroke-width:0.403972;stroke-linecap:round;stroke-miterlimit:4;stroke-dasharray:none;stroke-dashoffset:0"
       id="rect1109"
       width="81.252792"
       height="32.030453"
       x="144.71545"
       y="90.777229" />
    <path
       style="fill:none;stroke:#000000;stroke-width:0.264583;stroke-linecap:butt;stroke-linejoin:miter;stroke-miterlimit:4;stroke-dasharray:1.05833, 1.05833;stroke-dashoffset:0;stroke-opacity:1"
       d="m 144.92231,106.84804 h 81.05592"
       id="path1111" />
  </g>
</svg>
