<svg id="Warstwa_1" data-name="Warstwa 1" xmlns="http://www.w3.org/2000/svg" viewBox="0 0 275.86 277.74"><defs><style>.cls-1{fill:#f2f2f2;}.cls-2,.cls-8{fill:none;stroke-miterlimit:10;}.cls-2{stroke:#666;stroke-dasharray:5 5;}.cls-3,.cls-5{font-size:8px;}.cls-3{fill:#676767;}.cls-3,.cls-5,.cls-6,.cls-7{font-family:Myriad Pro;}.cls-4{fill:#b5b9bf;}.cls-10,.cls-5,.cls-6{fill:#fff;}.cls-6{font-size:8.85px;}.cls-7{font-size:5px;}.cls-7,.cls-9{fill:#ea565c;}.cls-8{stroke:#ea565c;}.cls-11{fill:#f53b3b;}.cls-12{fill:#595959;}.cls-13{fill:#1d1d1b;}</style></defs><title>docker_onedata</title><rect class="cls-1" width="275.86" height="277.74" rx="9.93" ry="9.93"/><path class="cls-2" d="M608.27,7208.4H376.64c-3.55,0-6.45-.68-6.45-1.5V7170.4c0-.83,2.9-1.5,6.45-1.5H608.27c3.55,0,6.45.68,6.45,1.5v36.49C614.72,7207.72,611.82,7208.4,608.27,7208.4Z" transform="translate(-356.84 -6948.6)"/><path class="cls-2" d="M608.27,7117.39H376.64c-3.55,0-6.45-2.62-6.45-5.81V6970.5c0-3.2,2.9-5.81,6.45-5.81H608.27c3.55,0,6.45,2.62,6.45,5.81v141.08C614.72,7114.78,611.82,7117.39,608.27,7117.39Z" transform="translate(-356.84 -6948.6)"/><text class="cls-3" transform="translate(24.17 32.92)">D<tspan x="5.36" y="0">ocker </tspan><tspan x="25.41" y="0">S</tspan><tspan x="29.4" y="0">e</tspan><tspan x="33.41" y="0">r</tspan><tspan x="36.22" y="0">vi</tspan><tspan x="41.94" y="0">c</tspan><tspan x="45.48" y="0">es</tspan></text><rect class="cls-4" x="38.71" y="111.17" width="84.68" height="41.4" rx="5.29" ry="5.29"/><rect class="cls-4" x="150.12" y="111.17" width="84.68" height="41.4" rx="5.29" ry="5.29"/><text class="cls-5" transform="translate(52.07 144.83)">D<tspan x="5.36" y="0">ocker </tspan><tspan x="25.41" y="0">C</tspan><tspan x="29.96" y="0">o</tspan><tspan x="34.35" y="0">n</tspan><tspan x="38.76" y="0">tainer</tspan></text><text class="cls-5" transform="translate(157.13 144.83)">D<tspan x="5.36" y="0">ocker </tspan><tspan x="25.41" y="0">C</tspan><tspan x="29.96" y="0">o</tspan><tspan x="34.35" y="0">n</tspan><tspan x="38.76" y="0">tainer</tspan></text><rect class="cls-4" x="193.37" y="227.45" width="54.25" height="24.37" rx="5.29" ry="5.29"/><text class="cls-6" transform="translate(210.77 243.18)">d<tspan x="4.99" y="0">a</tspan><tspan x="9.22" y="0">ta/</tspan></text><rect class="cls-4" x="29.37" y="227.45" width="54.25" height="24.37" rx="5.29" ry="5.29"/><text class="cls-6" transform="translate(37.7 243.18)">oneclie<tspan x="26.75" y="0">n</tspan><tspan x="31.63" y="0">t/</tspan></text><rect class="cls-4" x="92.43" y="227.45" width="91.35" height="24.37" rx="5.29" ry="5.29"/><text class="cls-6" transform="translate(100.08 243.18)">docke<tspan x="22.39" y="0">r</tspan><tspan x="25.24" y="0">-</tspan><tspan x="28.12" y="0">c</tspan><tspan x="32.03" y="0">ompos</tspan><tspan x="57.66" y="0">e</tspan><tspan x="61.99" y="0">.yml</tspan></text><text class="cls-7" transform="translate(22.88 181.43)">$ docker <tspan x="18.97" y="0">c</tspan><tspan x="21.18" y="0">ompose </tspan><tspan x="11.98" y="6">oneclie</tspan><tspan x="27.1" y="6">n</tspan><tspan x="29.86" y="6">t up </tspan></text><text class="cls-7" transform="translate(112.44 181.43)">$ docker <tspan x="-0.64" y="6">c</tspan><tspan x="1.57" y="6">ompose </tspan><tspan x="-4.14" y="12">oneclie</tspan><tspan x="10.98" y="12">n</tspan><tspan x="13.74" y="12">t up </tspan></text><text class="cls-7" transform="translate(145.44 181.43)">$ docker <tspan x="-0.64" y="6">c</tspan><tspan x="1.57" y="6">ompose </tspan><tspan x="-4.14" y="12">oneclie</tspan><tspan x="10.98" y="12">n</tspan><tspan x="13.74" y="12">t up </tspan></text><text class="cls-7" transform="translate(174.16 198.43)">&lt;<tspan x="2.98" y="0">y</tspan><tspan x="5.29" y="0">our d</tspan><tspan x="16.3" y="0">a</tspan><tspan x="18.69" y="0">ta in </tspan><tspan x="0" y="6">Oned</tspan><tspan x="11.54" y="6">a</tspan><tspan x="13.93" y="6">ta&gt;</tspan></text><text class="cls-7" transform="translate(225.16 198.43)">&lt;s<tspan x="4.96" y="0">t</tspan><tspan x="6.58" y="0">o</tspan><tspan x="9.33" y="0">r</tspan><tspan x="10.91" y="0">es </tspan><tspan x="16.46" y="0">r</tspan><tspan x="18.07" y="0">a</tspan><tspan x="20.44" y="0">w d</tspan><tspan x="28" y="0">a</tspan><tspan x="30.39" y="0">ta </tspan><tspan x="0" y="6">in&gt;</tspan></text><line class="cls-8" x1="137.95" y1="228.92" x2="138.25" y2="85.32"/><polygon class="cls-9" points="140.79 86.33 138.13 81.89 135.47 86.33 140.79 86.33"/><line class="cls-8" x1="64.15" y1="224.75" x2="64.15" y2="153.31"/><polygon class="cls-9" points="67.81 220.18 64.11 225.99 60.41 220.18 67.81 220.18"/><line class="cls-8" x1="106.8" y1="224.75" x2="106.8" y2="156.05"/><polygon class="cls-9" points="110.47 160.45 106.77 154.26 103.07 160.45 110.47 160.45"/><line class="cls-8" x1="171.58" y1="224.75" x2="171.58" y2="156.05"/><polygon class="cls-9" points="175.25 160.45 171.55 154.26 167.84 160.45 175.25 160.45"/><line class="cls-8" x1="219.18" y1="224.75" x2="218.72" y2="152.58"/><polygon class="cls-9" points="222.85 220.18 219.15 225.99 215.45 220.18 222.85 220.18"/><rect class="cls-10" x="158.47" y="117.42" width="67.97" height="16.03" rx="3.35" ry="3.35"/><rect class="cls-10" x="47.06" y="117.42" width="67.97" height="16.03" rx="3.35" ry="3.35"/><rect class="cls-4" x="93.91" y="35.5" width="84.68" height="41.4" rx="5.29" ry="5.29"/><text class="cls-5" transform="translate(107.15 69.17)">D<tspan x="5.36" y="0">ocker </tspan><tspan x="25.41" y="0">C</tspan><tspan x="29.96" y="0">o</tspan><tspan x="34.35" y="0">n</tspan><tspan x="38.76" y="0">tainer</tspan></text><rect class="cls-10" x="102.27" y="41.75" width="67.97" height="16.03" rx="3.35" ry="3.35"/><path class="cls-10" d="M525.89,7071.25a2.35,2.35,0,0,0-1.2.38c-0.11.07-.12,0.13,0,0.22l0.51,0.51a0.13,0.13,0,0,0,.2,0,1.44,1.44,0,0,1,1-.11,1.47,1.47,0,0,1,1,2.08,0.13,0.13,0,0,0,0,.19l0.51,0.51c0.09,0.09.15,0.09,0.22,0a2.44,2.44,0,0,0,.2-2.25,0.09,0.09,0,0,1,0-.12l1.11-1.11a0.36,0.36,0,0,0,.09-0.16,0.34,0.34,0,0,0-.11-0.32l-0.32-.32-0.46-.46a0.31,0.31,0,0,0-.48,0l-1.1,1.1a0.09,0.09,0,0,1-.12,0A2.56,2.56,0,0,0,525.89,7071.25Zm0.13,4.93a2.44,2.44,0,0,0,1.31-.38c0.11-.07.12-0.13,0-0.22l-0.51-.51a0.13,0.13,0,0,0-.2,0,1.44,1.44,0,0,1-1,.1,1.47,1.47,0,0,1-1-2.08,0.14,0.14,0,0,0,0-.18l-0.51-.51c-0.1-.1-0.15-0.09-0.22,0a2.44,2.44,0,0,0-.2,2.24,0.1,0.1,0,0,1,0,.13l-1.11,1.11a0.35,0.35,0,0,0-.09.14,0.35,0.35,0,0,0,.12.35l0.57,0.57a2.36,2.36,0,0,0,.24.23,0.29,0.29,0,0,0,.42,0L525,7076a0.09,0.09,0,0,1,.12,0A2.39,2.39,0,0,0,526,7076.19Zm0-1.68a0.79,0.79,0,1,0-.78-0.79A0.79,0.79,0,0,0,526,7074.51Z" transform="translate(-356.84 -6948.6)"/><path class="cls-11" d="M525.89,7071.25a2.56,2.56,0,0,1,1.05.18,0.09,0.09,0,0,0,.12,0l1.1-1.1a0.31,0.31,0,0,1,.48,0l0.46,0.46,0.32,0.32a0.34,0.34,0,0,1,.11.32,0.36,0.36,0,0,1-.09.16l-1.11,1.11a0.09,0.09,0,0,0,0,.12,2.44,2.44,0,0,1-.2,2.25c-0.07.11-.13,0.12-0.22,0l-0.51-.51a0.13,0.13,0,0,1,0-.19,1.47,1.47,0,0,0-1-2.08,1.44,1.44,0,0,0-1,.11,0.13,0.13,0,0,1-.2,0l-0.51-.51c-0.09-.09-0.08-0.15,0-0.22A2.35,2.35,0,0,1,525.89,7071.25Z" transform="translate(-356.84 -6948.6)"/><path class="cls-12" d="M526,7076.19a2.39,2.39,0,0,1-.94-0.18,0.09,0.09,0,0,0-.12,0l-1.11,1.11a0.29,0.29,0,0,1-.42,0,2.36,2.36,0,0,1-.24-0.23l-0.57-.57a0.35,0.35,0,0,1-.12-0.35,0.35,0.35,0,0,1,.09-0.14l1.11-1.11a0.1,0.1,0,0,0,0-.13,2.44,2.44,0,0,1,.2-2.24c0.07-.11.13-0.12,0.22,0l0.51,0.51a0.14,0.14,0,0,1,0,.18,1.47,1.47,0,0,0,1,2.08,1.44,1.44,0,0,0,1-.1,0.13,0.13,0,0,1,.2,0l0.51,0.51c0.09,0.09.08,0.15,0,.22A2.44,2.44,0,0,1,526,7076.19Z" transform="translate(-356.84 -6948.6)"/><circle class="cls-12" cx="526.01" cy="7073.72" r="0.79" transform="matrix(0.01, -1, 1, 0.01, -6909.74, 576.06)"/><path class="cls-13" d="M536.21,7075.77a2.71,2.71,0,0,1-3.65,0,3.69,3.69,0,0,1-.53-2.21,3.81,3.81,0,0,1,.53-2.23,2.64,2.64,0,0,1,3.65,0,3.81,3.81,0,0,1,.53,2.23A3.69,3.69,0,0,1,536.21,7075.77Zm-2.75-.73a1.19,1.19,0,0,0,1.84,0,3.19,3.19,0,0,0,.25-1.47,3.34,3.34,0,0,0-.25-1.5,1.14,1.14,0,0,0-1.84,0,3.34,3.34,0,0,0-.25,1.5A3.19,3.19,0,0,0,533.47,7075Z" transform="translate(-356.84 -6948.6)"/><path class="cls-13" d="M538.74,7076.37h-1.12v-4.17h1.11v0.23a2.09,2.09,0,0,1,1-.33,1.26,1.26,0,0,1,1.15.49,2.86,2.86,0,0,1,.32,1.52v2.26h-1.12v-2.23a1.88,1.88,0,0,0-.13-0.79,0.5,0.5,0,0,0-.5-0.25,1.89,1.89,0,0,0-.66.12l-0.1,0v3.12Z" transform="translate(-356.84 -6948.6)"/><path class="cls-13" d="M543.36,7075.32a0.83,0.83,0,0,0,.56.17q0.78,0,1.39-.05l0.23,0,0,0.83a7.41,7.41,0,0,1-1.74.23,1.7,1.7,0,0,1-1.37-.5,2.5,2.5,0,0,1-.43-1.63q0-2.24,1.84-2.24a1.64,1.64,0,0,1,1.82,1.89l-0.08.78h-2.45A0.72,0.72,0,0,0,543.36,7075.32Zm1.23-1.41a1.14,1.14,0,0,0-.16-0.7,0.88,0.88,0,0,0-1.11,0,1.16,1.16,0,0,0-.17.69h1.44Z" transform="translate(-356.84 -6948.6)"/><path class="cls-13" d="M546.5,7078.12v-5.93h1.11v0.23a1.92,1.92,0,0,1,1-.33,1.49,1.49,0,0,1,1.24.5,2.81,2.81,0,0,1,.4,1.71,2.46,2.46,0,0,1-.44,1.68,1.92,1.92,0,0,1-1.45.47,3.81,3.81,0,0,1-.59-0.05l-0.1,0v1.72H546.5Zm1.84-5a1.7,1.7,0,0,0-.63.13l-0.1,0v2.19a4.81,4.81,0,0,0,.61.05,0.72,0.72,0,0,0,.66-0.28,1.91,1.91,0,0,0,.18-1Q549.07,7073.1,548.34,7073.1Z" transform="translate(-356.84 -6948.6)"/><path class="cls-13" d="M551,7076.37v-4.17h1.11v0.44a4.25,4.25,0,0,1,1.34-.54v1.13q-0.68.14-1.16,0.29l-0.17.06v2.8H551Z" transform="translate(-356.84 -6948.6)"/><path class="cls-13" d="M554.37,7072.67a2.19,2.19,0,0,1,3,0,2.57,2.57,0,0,1,.44,1.61q0,2.19-1.92,2.19t-1.92-2.19A2.57,2.57,0,0,1,554.37,7072.67Zm0.86,2.55a0.78,0.78,0,0,0,1.23,0,2,2,0,0,0,.17-0.94,1.93,1.93,0,0,0-.17-0.93,0.79,0.79,0,0,0-1.23,0,1.93,1.93,0,0,0-.17.93A2,2,0,0,0,555.23,7075.22Z" transform="translate(-356.84 -6948.6)"/><path class="cls-13" d="M558.13,7072.2h1.17l0.67,3.22h0.23l0.7-3.22H562l-1,4.17h-1.9Z" transform="translate(-356.84 -6948.6)"/><path class="cls-13" d="M562.68,7071.66v-1.13h1.12v1.13h-1.12Zm0,4.71v-4.17h1.12v4.17h-1.12Z" transform="translate(-356.84 -6948.6)"/><path class="cls-13" d="M568.38,7070.53v5.84h-1.11v-0.18a2.45,2.45,0,0,1-1,.28,1.43,1.43,0,0,1-1.27-.53,3,3,0,0,1-.36-1.66,2.6,2.6,0,0,1,.43-1.66,1.58,1.58,0,0,1,1.3-.52,4.6,4.6,0,0,1,.74.08l0.16,0v-1.69h1.12Zm-1.23,4.84,0.12,0v-2.19a4.63,4.63,0,0,0-.82-0.08q-0.68,0-.68,1.2a2.07,2.07,0,0,0,.15.93,0.52,0.52,0,0,0,.5.28A2.9,2.9,0,0,0,567.14,7075.37Z" transform="translate(-356.84 -6948.6)"/><path class="cls-13" d="M570.54,7075.32a0.83,0.83,0,0,0,.56.17q0.78,0,1.39-.05l0.23,0,0,0.83a7.41,7.41,0,0,1-1.74.23,1.7,1.7,0,0,1-1.37-.5,2.5,2.5,0,0,1-.43-1.63q0-2.24,1.84-2.24a1.64,1.64,0,0,1,1.82,1.89l-0.08.78h-2.45A0.72,0.72,0,0,0,570.54,7075.32Zm1.23-1.41a1.14,1.14,0,0,0-.16-0.7,0.88,0.88,0,0,0-1.11,0,1.15,1.15,0,0,0-.17.69h1.44Z" transform="translate(-356.84 -6948.6)"/><path class="cls-13" d="M573.67,7076.37v-4.17h1.11v0.44a4.25,4.25,0,0,1,1.34-.54v1.13q-0.68.14-1.16,0.29l-0.17.06v2.8h-1.12Z" transform="translate(-356.84 -6948.6)"/><path d="M424.7,7076.22a2.89,2.89,0,0,1-3.89,0,3.93,3.93,0,0,1-.56-2.35,4.06,4.06,0,0,1,.56-2.38,2.81,2.81,0,0,1,3.89,0,4.06,4.06,0,0,1,.56,2.38A3.93,3.93,0,0,1,424.7,7076.22Zm-2.93-.78a1.27,1.27,0,0,0,2,0,3.4,3.4,0,0,0,.26-1.56,3.56,3.56,0,0,0-.27-1.6,1.21,1.21,0,0,0-2,0,3.56,3.56,0,0,0-.27,1.6A3.4,3.4,0,0,0,421.78,7075.44Z" transform="translate(-356.84 -6948.6)"/><path d="M427.31,7076.86h-1.19v-4.45h1.18v0.25a2.23,2.23,0,0,1,1.11-.36,1.35,1.35,0,0,1,1.23.52,3,3,0,0,1,.34,1.62v2.41h-1.19v-2.37a2,2,0,0,0-.13-0.84,0.54,0.54,0,0,0-.53-0.27,2,2,0,0,0-.7.12l-0.11,0v3.32Z" transform="translate(-356.84 -6948.6)"/><path d="M432.14,7075.74a0.89,0.89,0,0,0,.6.18q0.83,0,1.48-.05l0.25,0,0,0.88a7.9,7.9,0,0,1-1.85.25,1.81,1.81,0,0,1-1.46-.53,2.66,2.66,0,0,1-.45-1.73q0-2.39,2-2.39a1.75,1.75,0,0,1,1.94,2l-0.09.83h-2.61A0.77,0.77,0,0,0,432.14,7075.74Zm1.31-1.5a1.22,1.22,0,0,0-.17-0.74,0.93,0.93,0,0,0-1.19,0,1.23,1.23,0,0,0-.18.73h1.54Z" transform="translate(-356.84 -6948.6)"/><path d="M437.05,7072.31a6.37,6.37,0,0,1,1.18.14l0.24,0.05,0,0.94q-0.7-.07-1-0.07a1,1,0,0,0-.81.26,1.74,1.74,0,0,0-.2,1,1.79,1.79,0,0,0,.2,1,1,1,0,0,0,.82.27l1-.07,0,1a8.15,8.15,0,0,1-1.45.19,1.69,1.69,0,0,1-1.42-.56,2.92,2.92,0,0,1-.43-1.78,2.82,2.82,0,0,1,.44-1.77A1.74,1.74,0,0,1,437.05,7072.31Z" transform="translate(-356.84 -6948.6)"/><path d="M439.32,7076.86v-6.22h1.19v6.22h-1.19Z" transform="translate(-356.84 -6948.6)"/><path d="M441.58,7071.85v-1.21h1.19v1.21h-1.19Zm0,5v-4.45h1.19v4.45h-1.19Z" transform="translate(-356.84 -6948.6)"/><path d="M445,7075.74a0.89,0.89,0,0,0,.6.18q0.83,0,1.48-.05l0.25,0,0,0.88a7.9,7.9,0,0,1-1.85.25,1.81,1.81,0,0,1-1.46-.53,2.66,2.66,0,0,1-.45-1.73q0-2.39,2-2.39a1.75,1.75,0,0,1,1.94,2l-0.09.83h-2.61A0.77,0.77,0,0,0,445,7075.74Zm1.31-1.5a1.22,1.22,0,0,0-.17-0.74,0.93,0.93,0,0,0-1.19,0,1.23,1.23,0,0,0-.18.73h1.54Z" transform="translate(-356.84 -6948.6)"/><path d="M449.42,7076.86h-1.19v-4.45h1.18v0.25a2.23,2.23,0,0,1,1.11-.36,1.35,1.35,0,0,1,1.23.52,3,3,0,0,1,.34,1.62v2.41H450.9v-2.37a2,2,0,0,0-.13-0.84,0.54,0.54,0,0,0-.53-0.27,2,2,0,0,0-.7.12l-0.11,0v3.32Z" transform="translate(-356.84 -6948.6)"/><path d="M455.52,7073.43h-1.09v1.82a3.65,3.65,0,0,0,0,.38,0.31,0.31,0,0,0,.1.19,0.37,0.37,0,0,0,.26.08l0.68,0,0.05,1a4.5,4.5,0,0,1-.91.13,1.36,1.36,0,0,1-1.09-.36,2.19,2.19,0,0,1-.29-1.33v-1.85h-0.52v-1h0.52v-1.24h1.19v1.24h1.09v1Z" transform="translate(-356.84 -6948.6)"/><path d="M481.52,7000.45a3.4,3.4,0,0,1-4.58,0,4.63,4.63,0,0,1-.67-2.77,4.79,4.79,0,0,1,.67-2.8,3.32,3.32,0,0,1,4.58,0,4.79,4.79,0,0,1,.67,2.8A4.63,4.63,0,0,1,481.52,7000.45Zm-3.45-.92a1.49,1.49,0,0,0,2.32,0,4,4,0,0,0,.31-1.84,4.19,4.19,0,0,0-.31-1.88,1.43,1.43,0,0,0-2.31,0,4.2,4.2,0,0,0-.31,1.88A4,4,0,0,0,478.08,6999.53Z" transform="translate(-356.84 -6948.6)"/><path d="M484.6,7001.21h-1.4V6996h1.39v0.29a2.63,2.63,0,0,1,1.31-.42,1.59,1.59,0,0,1,1.45.62,3.59,3.59,0,0,1,.4,1.91v2.84h-1.4v-2.8a2.36,2.36,0,0,0-.16-1,0.63,0.63,0,0,0-.63-0.32,2.38,2.38,0,0,0-.83.15l-0.13,0v3.92Z" transform="translate(-356.84 -6948.6)"/><path d="M490.3,6999.89a1,1,0,0,0,.71.21q1,0,1.74-.06l0.29,0,0,1a9.31,9.31,0,0,1-2.18.29,2.14,2.14,0,0,1-1.72-.63,3.14,3.14,0,0,1-.53-2q0-2.82,2.32-2.82a2.06,2.06,0,0,1,2.28,2.37l-0.1,1H490A0.91,0.91,0,0,0,490.3,6999.89Zm1.55-1.77a1.43,1.43,0,0,0-.2-0.87,1.1,1.1,0,0,0-1.4,0,1.45,1.45,0,0,0-.21.86h1.81Z" transform="translate(-356.84 -6948.6)"/><path d="M493.91,6997.23V6996h3.89v1.26l-2.2,2.73h2.2v1.26h-3.89V7000l2.2-2.73h-2.2Z" transform="translate(-356.84 -6948.6)"/><path d="M499.06,6996.56a2.76,2.76,0,0,1,3.71,0,3.23,3.23,0,0,1,.56,2q0,2.76-2.41,2.76t-2.41-2.76A3.23,3.23,0,0,1,499.06,6996.56Zm1.08,3.2a1,1,0,0,0,1.54,0,2.49,2.49,0,0,0,.21-1.18,2.42,2.42,0,0,0-.21-1.17,1,1,0,0,0-1.54,0,2.42,2.42,0,0,0-.21,1.17A2.49,2.49,0,0,0,500.15,6999.77Z" transform="translate(-356.84 -6948.6)"/><path d="M505.65,7001.21h-1.4V6996h1.39v0.29a2.63,2.63,0,0,1,1.31-.42,1.59,1.59,0,0,1,1.45.62,3.59,3.59,0,0,1,.4,1.91v2.84h-1.4v-2.8a2.36,2.36,0,0,0-.16-1,0.63,0.63,0,0,0-.63-0.32,2.38,2.38,0,0,0-.83.15l-0.13,0v3.92Z" transform="translate(-356.84 -6948.6)"/><path d="M511.35,6999.89a1,1,0,0,0,.71.21q1,0,1.74-.06l0.29,0,0,1a9.31,9.31,0,0,1-2.18.29,2.14,2.14,0,0,1-1.72-.63,3.14,3.14,0,0,1-.53-2q0-2.82,2.32-2.82a2.06,2.06,0,0,1,2.28,2.37l-0.1,1h-3.08A0.91,0.91,0,0,0,511.35,6999.89Zm1.55-1.77a1.43,1.43,0,0,0-.2-0.87,1.1,1.1,0,0,0-1.4,0,1.45,1.45,0,0,0-.21.86h1.81Z" transform="translate(-356.84 -6948.6)"/></svg>