<?xml version="1.0" encoding="utf-8"?>
<!-- Generator: Adobe Illustrator 19.2.1, SVG Export Plug-In . SVG Version: 6.00 Build 0)  -->
<!DOCTYPE svg PUBLIC "-//W3C//DTD SVG 1.1//EN" "http://www.w3.org/Graphics/SVG/1.1/DTD/svg11.dtd">
<svg version="1.1" id="Warstwa_1" xmlns="http://www.w3.org/2000/svg" xmlns:xlink="http://www.w3.org/1999/xlink" x="0px" y="0px"
	 width="242.2px" height="153.2px" viewBox="0 0 242.2 153.2" enable-background="new 0 0 242.2 153.2" xml:space="preserve">
<g>
	<path fill="#666666" d="M238.9,77.3h-5v-1h5V77.3z M228.9,77.3h-5v-1h5V77.3z M218.9,77.3h-5v-1h5V77.3z M208.9,77.3h-5v-1h5V77.3z
		 M198.9,77.3h-5v-1h5V77.3z M188.9,77.3h-5v-1h5V77.3z M178.9,77.3h-5v-1h5V77.3z M168.9,77.3h-5v-1h5V77.3z M158.8,76.3
		c-0.4-0.5-0.7-1.2-0.7-1.9v-3.3h1v3.3c0,0.5,0.2,0.9,0.4,1.3L158.8,76.3z M241.4,75.7l-0.9-0.4c0.1-0.3,0.2-0.6,0.2-0.9v-3.9h1v3.9
		C241.6,74.8,241.5,75.3,241.4,75.7z M159.2,66.1h-1v-5h1V66.1z M241.6,65.5h-1v-5h1V65.5z M159.2,56.1h-1v-5h1V56.1z M241.6,55.5
		h-1v-5h1V55.5z M159.2,46.1h-1v-5h1V46.1z M241.6,45.5h-1v-5h1V45.5z M159.2,36.1h-1v-5h1V36.1z M241.6,35.5h-1v-5h1V35.5z
		 M159.2,26.1h-1v-5h1V26.1z M241.6,25.5h-1v-5h1V25.5z M159.2,16.1h-1V16c0-1.6,1.2-2.9,2.7-2.9h1.2v1h-1.2c-0.9,0-1.7,0.9-1.7,1.9
		V16.1z M240.6,15.6c-0.2-0.9-0.8-1.5-1.6-1.5h-1.9v-1h1.9c1.3,0,2.4,1,2.6,2.4L240.6,15.6z M232.1,14.1h-5v-1h5V14.1z M222.1,14.1
		h-5v-1h5V14.1z M212.1,14.1h-5v-1h5V14.1z M202.1,14.1h-5v-1h5V14.1z M192.1,14.1h-5v-1h5V14.1z M182.1,14.1h-5v-1h5V14.1z
		 M172.1,14.1h-5v-1h5V14.1z"/>
</g>
<g>
	<path fill="#666666" d="M238.9,152.7h-5v-1h5V152.7z M228.9,152.7h-5v-1h5V152.7z M218.9,152.7h-5v-1h5V152.7z M208.9,152.7h-5v-1
		h5V152.7z M198.9,152.7h-5v-1h5V152.7z M188.9,152.7h-5v-1h5V152.7z M178.9,152.7h-5v-1h5V152.7z M168.9,152.7h-5v-1h5V152.7z
		 M158.8,151.7c-0.4-0.5-0.7-1.2-0.7-1.9v-3.3h1v3.3c0,0.5,0.2,0.9,0.4,1.3L158.8,151.7z M241.3,151l-0.9-0.4
		c0.1-0.3,0.2-0.6,0.2-0.9v-3.9h1v3.9C241.6,150.2,241.5,150.6,241.3,151z M159.2,141.5h-1v-5h1V141.5z M241.6,140.9h-1v-5h1V140.9z
		 M159.2,131.5h-1v-5h1V131.5z M241.6,130.9h-1v-5h1V130.9z M159.2,121.5h-1v-5h1V121.5z M241.6,120.9h-1v-5h1V120.9z M159.2,111.5
		h-1v-5h1V111.5z M241.6,110.9h-1v-5h1V110.9z M159.2,101.5h-1v-5h1V101.5z M241.6,100.9h-1v-5h1V100.9z M159.2,91.5h-1v-0.2
		c0-1.6,1.2-2.9,2.7-2.9h1.2v1h-1.2c-0.9,0-1.7,0.9-1.7,1.9V91.5z M240.6,90.9c-0.2-0.9-0.8-1.5-1.6-1.5h-1.9v-1h1.9
		c1.3,0,2.4,1,2.6,2.4L240.6,90.9z M232.1,89.4h-5v-1h5V89.4z M222.1,89.4h-5v-1h5V89.4z M212.1,89.4h-5v-1h5V89.4z M202.1,89.4h-5
		v-1h5V89.4z M192.1,89.4h-5v-1h5V89.4z M182.1,89.4h-5v-1h5V89.4z M172.1,89.4h-5v-1h5V89.4z"/>
</g>
<g>
	<circle fill="#565D73" cx="199.7" cy="47.3" r="23.4"/>
</g>
<g>
	<path fill="#FFFFFF" d="M192.7,45l2.5-3.7v0h-2.3v-0.5h3.1v0.4l-2.5,3.7v0h2.5v0.5h-3.3V45z"/>
	<path fill="#FFFFFF" d="M199.6,43.7c0,1.2-0.8,1.7-1.6,1.7c-0.9,0-1.6-0.6-1.6-1.7c0-1.1,0.7-1.7,1.6-1.7
		C199,42,199.6,42.7,199.6,43.7z M197,43.7c0,0.7,0.4,1.2,1,1.2c0.6,0,1-0.5,1-1.3c0-0.5-0.3-1.2-1-1.2S197,43.1,197,43.7z"/>
	<path fill="#FFFFFF" d="M200.3,42.9c0-0.3,0-0.6,0-0.9h0.5l0,0.5h0c0.2-0.3,0.5-0.6,1.1-0.6c0.5,0,1.1,0.3,1.1,1.4v1.9h-0.6v-1.9
		c0-0.5-0.2-1-0.8-1c-0.4,0-0.7,0.3-0.8,0.6c0,0.1,0,0.2,0,0.3v2h-0.6V42.9z"/>
	<path fill="#FFFFFF" d="M204.4,43.8c0,0.8,0.5,1.1,1.1,1.1c0.4,0,0.7-0.1,0.9-0.2l0.1,0.4c-0.2,0.1-0.6,0.2-1.1,0.2
		c-1,0-1.6-0.7-1.6-1.6c0-1,0.6-1.8,1.5-1.8c1.1,0,1.3,0.9,1.3,1.5c0,0.1,0,0.2,0,0.3H204.4z M206.1,43.4c0-0.4-0.2-1-0.8-1
		c-0.6,0-0.9,0.6-0.9,1H206.1z"/>
	<path fill="#FFFFFF" d="M189.9,49.2c0,0.2-0.1,0.4-0.4,0.4c-0.2,0-0.4-0.2-0.4-0.4c0-0.2,0.2-0.4,0.4-0.4
		C189.7,48.8,189.9,49,189.9,49.2z M189.2,53.4v-3.2h0.6v3.2H189.2z"/>
	<path fill="#FFFFFF" d="M190.7,52.8c0.2,0.1,0.5,0.2,0.8,0.2c0.4,0,0.6-0.2,0.6-0.5c0-0.3-0.2-0.4-0.6-0.6
		c-0.6-0.2-0.9-0.5-0.9-0.9c0-0.5,0.4-1,1.1-1c0.3,0,0.6,0.1,0.8,0.2l-0.1,0.4c-0.1-0.1-0.4-0.2-0.7-0.2c-0.3,0-0.5,0.2-0.5,0.4
		c0,0.3,0.2,0.4,0.6,0.6c0.6,0.2,0.9,0.5,0.9,1c0,0.6-0.4,1-1.2,1c-0.4,0-0.7-0.1-0.9-0.2L190.7,52.8z"/>
	<path fill="#FFFFFF" d="M196.4,51.7c0,1.2-0.8,1.7-1.6,1.7c-0.9,0-1.6-0.6-1.6-1.7c0-1.1,0.7-1.7,1.6-1.7
		C195.7,50,196.4,50.7,196.4,51.7z M193.8,51.7c0,0.7,0.4,1.2,1,1.2c0.6,0,1-0.5,1-1.3c0-0.5-0.3-1.2-1-1.2
		C194.1,50.5,193.8,51.1,193.8,51.7z"/>
	<path fill="#FFFFFF" d="M197.1,48.6h0.6v4.8h-0.6V48.6z"/>
	<path fill="#FFFFFF" d="M200.5,53.4l0-0.4h0c-0.2,0.3-0.5,0.5-1,0.5c-0.7,0-1-0.5-1-0.9c0-0.8,0.7-1.2,2-1.2v-0.1
		c0-0.3-0.1-0.8-0.7-0.8c-0.3,0-0.6,0.1-0.8,0.2l-0.1-0.4c0.3-0.2,0.7-0.3,1.1-0.3c1,0,1.2,0.7,1.2,1.3v1.2c0,0.3,0,0.6,0.1,0.8
		H200.5z M200.4,51.7c-0.6,0-1.4,0.1-1.4,0.7c0,0.4,0.3,0.6,0.6,0.6c0.4,0,0.7-0.3,0.8-0.5c0-0.1,0-0.1,0-0.2V51.7z"/>
	<path fill="#FFFFFF" d="M202.6,49.2v0.9h0.8v0.5h-0.8v1.8c0,0.4,0.1,0.6,0.4,0.6c0.2,0,0.3,0,0.3,0l0,0.4c-0.1,0-0.3,0.1-0.5,0.1
		c-0.3,0-0.5-0.1-0.6-0.2c-0.2-0.2-0.2-0.5-0.2-0.8v-1.8h-0.5v-0.5h0.5v-0.8L202.6,49.2z"/>
	<path fill="#FFFFFF" d="M204.4,51.8c0,0.8,0.5,1.1,1.1,1.1c0.4,0,0.7-0.1,0.9-0.2l0.1,0.4c-0.2,0.1-0.6,0.2-1.1,0.2
		c-1,0-1.6-0.7-1.6-1.6c0-1,0.6-1.8,1.5-1.8c1.1,0,1.3,0.9,1.3,1.5c0,0.1,0,0.2,0,0.3H204.4z M206.1,51.4c0-0.4-0.2-1-0.8-1
		c-0.6,0-0.9,0.6-0.9,1H206.1z"/>
	<path fill="#FFFFFF" d="M210.3,48.6v3.9c0,0.3,0,0.6,0,0.8h-0.5l0-0.6h0c-0.2,0.4-0.6,0.6-1.1,0.6c-0.8,0-1.4-0.7-1.4-1.7
		c0-1.1,0.7-1.7,1.5-1.7c0.5,0,0.8,0.2,1,0.5h0v-1.9H210.3z M209.7,51.4c0-0.1,0-0.2,0-0.2c-0.1-0.4-0.4-0.7-0.9-0.7
		c-0.6,0-1,0.5-1,1.3c0,0.7,0.3,1.2,1,1.2c0.4,0,0.8-0.3,0.9-0.7c0-0.1,0-0.2,0-0.3V51.4z"/>
</g>
<g>
	<circle fill="#FFFFFF" cx="179.6" cy="32.4" r="5.1"/>
</g>
<g>
	<g>
		<path fill="#E94747" d="M179.6,31.5c1.8,0,3.1-0.7,3.1-1.3c0-0.6-1.3-1.3-3.1-1.3c-1.8,0-3.1,0.7-3.1,1.3
			C176.5,30.8,177.8,31.5,179.6,31.5"/>
	</g>
	<g>
		<path fill="#E94747" d="M176.5,33.8v0.5v0.3c0,0.6,1.3,1.3,3.1,1.3c1.8,0,3.1-0.7,3.1-1.3v-0.3v-0.5c-0.5,0.6-1.7,1-3.1,1
			C178.2,34.8,177.1,34.4,176.5,33.8"/>
	</g>
	<g>
		<path fill="#E94747" d="M176.5,32.3v0.3v0.5c0,0.6,1.3,1.3,3.1,1.3c1.8,0,3.1-0.7,3.1-1.3v-0.8c-0.5,0.6-1.7,1-3.1,1
			C178.2,33.3,177.1,32.9,176.5,32.3"/>
	</g>
	<g>
		<path fill="#E94747" d="M176.5,30.9v0.8c0,0.6,1.3,1.3,3.1,1.3c1.8,0,3.1-0.7,3.1-1.3v-0.8c-0.5,0.6-1.7,1-3.1,1
			C178.2,31.8,177.1,31.4,176.5,30.9"/>
	</g>
</g>
<g>
	<circle fill="#FFFFFF" cx="176.2" cy="42" r="5.1"/>
</g>
<g>
	<g>
		<path fill="#E94747" d="M176.2,41.1c1.8,0,3.1-0.7,3.1-1.3c0-0.6-1.3-1.3-3.1-1.3c-1.8,0-3.1,0.7-3.1,1.3
			C173.1,40.4,174.3,41.1,176.2,41.1"/>
	</g>
	<g>
		<path fill="#E94747" d="M173.1,43.4v0.5v0.3c0,0.6,1.3,1.3,3.1,1.3c1.8,0,3.1-0.7,3.1-1.3v-0.3v-0.5c-0.5,0.6-1.7,1-3.1,1
			C174.8,44.4,173.6,44,173.1,43.4"/>
	</g>
	<g>
		<path fill="#E94747" d="M173.1,41.9v0.3v0.5c0,0.6,1.3,1.3,3.1,1.3c1.8,0,3.1-0.7,3.1-1.3v-0.8c-0.5,0.6-1.7,1-3.1,1
			C174.8,42.9,173.6,42.5,173.1,41.9"/>
	</g>
	<g>
		<path fill="#E94747" d="M173.1,40.4v0.8c0,0.6,1.3,1.3,3.1,1.3c1.8,0,3.1-0.7,3.1-1.3v-0.8c-0.5,0.6-1.7,1-3.1,1
			C174.8,41.4,173.6,41,173.1,40.4"/>
	</g>
</g>
<g>
	<circle fill="#FFFFFF" cx="206.1" cy="26.9" r="5.1"/>
</g>
<g>
	<g>
		<path fill="#E94747" d="M206.4,26.3c1.8,0,3.1-0.7,3.1-1.3c0-0.6-1.3-1.3-3.1-1.3c-1.8,0-3.1,0.7-3.1,1.3
			C203.3,25.6,204.5,26.3,206.4,26.3"/>
	</g>
	<g>
		<path fill="#E94747" d="M203.3,28.6v0.5v0.3c0,0.6,1.3,1.3,3.1,1.3c1.8,0,3.1-0.7,3.1-1.3v-0.3v-0.5c-0.5,0.6-1.7,1-3.1,1
			C205,29.6,203.8,29.2,203.3,28.6"/>
	</g>
	<g>
		<path fill="#E94747" d="M203.3,27.1v0.3V28c0,0.6,1.3,1.3,3.1,1.3c1.8,0,3.1-0.7,3.1-1.3v-0.8c-0.5,0.6-1.7,1-3.1,1
			C205,28.1,203.8,27.7,203.3,27.1"/>
	</g>
	<g>
		<path fill="#E94747" d="M203.3,25.7v0.8c0,0.6,1.3,1.3,3.1,1.3c1.8,0,3.1-0.7,3.1-1.3v-0.8c-0.5,0.6-1.7,1-3.1,1
			C205,26.6,203.8,26.2,203.3,25.7"/>
	</g>
</g>
<g>
	<circle fill="#FFFFFF" cx="196.8" cy="23.2" r="5.1"/>
</g>
<g>
	<g>
		<path fill="#E94747" d="M196.8,22.3c1.8,0,3.1-0.7,3.1-1.3c0-0.6-1.3-1.3-3.1-1.3c-1.8,0-3.1,0.7-3.1,1.3
			C193.7,21.6,195,22.3,196.8,22.3"/>
	</g>
	<g>
		<path fill="#E94747" d="M193.7,24.6v0.5v0.3c0,0.6,1.3,1.3,3.1,1.3c1.8,0,3.1-0.7,3.1-1.3v-0.3v-0.5c-0.5,0.6-1.7,1-3.1,1
			C195.4,25.5,194.2,25.1,193.7,24.6"/>
	</g>
	<g>
		<path fill="#E94747" d="M193.7,23.1v0.3v0.5c0,0.6,1.3,1.3,3.1,1.3c1.8,0,3.1-0.7,3.1-1.3v-0.8c-0.5,0.6-1.7,1-3.1,1
			C195.4,24.1,194.2,23.7,193.7,23.1"/>
	</g>
	<g>
		<path fill="#E94747" d="M193.7,21.6v0.8c0,0.6,1.3,1.3,3.1,1.3c1.8,0,3.1-0.7,3.1-1.3v-0.8c-0.5,0.6-1.7,1-3.1,1
			C195.4,22.6,194.2,22.2,193.7,21.6"/>
	</g>
</g>
<g>
	<circle fill="#565D73" cx="199.7" cy="121.6" r="23.4"/>
</g>
<g>
	<path fill="#FFFFFF" d="M192.7,119.3l2.5-3.7v0h-2.3v-0.5h3.1v0.4l-2.5,3.7v0h2.5v0.5h-3.3V119.3z"/>
	<path fill="#FFFFFF" d="M199.6,118c0,1.2-0.8,1.7-1.6,1.7c-0.9,0-1.6-0.6-1.6-1.7c0-1.1,0.7-1.7,1.6-1.7
		C199,116.3,199.6,117,199.6,118z M197,118c0,0.7,0.4,1.2,1,1.2c0.6,0,1-0.5,1-1.3c0-0.5-0.3-1.2-1-1.2S197,117.4,197,118z"/>
	<path fill="#FFFFFF" d="M200.3,117.3c0-0.3,0-0.6,0-0.9h0.5l0,0.5h0c0.2-0.3,0.5-0.6,1.1-0.6c0.5,0,1.1,0.3,1.1,1.4v1.9h-0.6v-1.9
		c0-0.5-0.2-1-0.8-1c-0.4,0-0.7,0.3-0.8,0.6c0,0.1,0,0.2,0,0.3v2h-0.6V117.3z"/>
	<path fill="#FFFFFF" d="M204.4,118.1c0,0.8,0.5,1.1,1.1,1.1c0.4,0,0.7-0.1,0.9-0.2l0.1,0.4c-0.2,0.1-0.6,0.2-1.1,0.2
		c-1,0-1.6-0.7-1.6-1.6c0-1,0.6-1.8,1.5-1.8c1.1,0,1.3,0.9,1.3,1.5c0,0.1,0,0.2,0,0.3H204.4z M206.1,117.7c0-0.4-0.2-1-0.8-1
		c-0.6,0-0.9,0.6-0.9,1H206.1z"/>
	<path fill="#FFFFFF" d="M189.9,123.5c0,0.2-0.1,0.4-0.4,0.4c-0.2,0-0.4-0.2-0.4-0.4c0-0.2,0.2-0.4,0.4-0.4
		C189.7,123.2,189.9,123.3,189.9,123.5z M189.2,127.7v-3.2h0.6v3.2H189.2z"/>
	<path fill="#FFFFFF" d="M190.7,127.1c0.2,0.1,0.5,0.2,0.8,0.2c0.4,0,0.6-0.2,0.6-0.5c0-0.3-0.2-0.4-0.6-0.6
		c-0.6-0.2-0.9-0.5-0.9-0.9c0-0.5,0.4-1,1.1-1c0.3,0,0.6,0.1,0.8,0.2l-0.1,0.4c-0.1-0.1-0.4-0.2-0.7-0.2c-0.3,0-0.5,0.2-0.5,0.4
		c0,0.3,0.2,0.4,0.6,0.6c0.6,0.2,0.9,0.5,0.9,1c0,0.6-0.4,1-1.2,1c-0.4,0-0.7-0.1-0.9-0.2L190.7,127.1z"/>
	<path fill="#FFFFFF" d="M196.4,126c0,1.2-0.8,1.7-1.6,1.7c-0.9,0-1.6-0.6-1.6-1.7c0-1.1,0.7-1.7,1.6-1.7
		C195.7,124.4,196.4,125,196.4,126z M193.8,126.1c0,0.7,0.4,1.2,1,1.2c0.6,0,1-0.5,1-1.3c0-0.5-0.3-1.2-1-1.2
		C194.1,124.8,193.8,125.5,193.8,126.1z"/>
	<path fill="#FFFFFF" d="M197.1,122.9h0.6v4.8h-0.6V122.9z"/>
	<path fill="#FFFFFF" d="M200.5,127.7l0-0.4h0c-0.2,0.3-0.5,0.5-1,0.5c-0.7,0-1-0.5-1-0.9c0-0.8,0.7-1.2,2-1.2v-0.1
		c0-0.3-0.1-0.8-0.7-0.8c-0.3,0-0.6,0.1-0.8,0.2l-0.1-0.4c0.3-0.2,0.7-0.3,1.1-0.3c1,0,1.2,0.7,1.2,1.3v1.2c0,0.3,0,0.6,0.1,0.8
		H200.5z M200.4,126c-0.6,0-1.4,0.1-1.4,0.7c0,0.4,0.3,0.6,0.6,0.6c0.4,0,0.7-0.3,0.8-0.5c0-0.1,0-0.1,0-0.2V126z"/>
	<path fill="#FFFFFF" d="M202.6,123.5v0.9h0.8v0.5h-0.8v1.8c0,0.4,0.1,0.6,0.4,0.6c0.2,0,0.3,0,0.3,0l0,0.4c-0.1,0-0.3,0.1-0.5,0.1
		c-0.3,0-0.5-0.1-0.6-0.2c-0.2-0.2-0.2-0.5-0.2-0.8v-1.8h-0.5v-0.5h0.5v-0.8L202.6,123.5z"/>
	<path fill="#FFFFFF" d="M204.4,126.2c0,0.8,0.5,1.1,1.1,1.1c0.4,0,0.7-0.1,0.9-0.2l0.1,0.4c-0.2,0.1-0.6,0.2-1.1,0.2
		c-1,0-1.6-0.7-1.6-1.6c0-1,0.6-1.8,1.5-1.8c1.1,0,1.3,0.9,1.3,1.5c0,0.1,0,0.2,0,0.3H204.4z M206.1,125.8c0-0.4-0.2-1-0.8-1
		c-0.6,0-0.9,0.6-0.9,1H206.1z"/>
	<path fill="#FFFFFF" d="M210.3,122.9v3.9c0,0.3,0,0.6,0,0.8h-0.5l0-0.6h0c-0.2,0.4-0.6,0.6-1.1,0.6c-0.8,0-1.4-0.7-1.4-1.7
		c0-1.1,0.7-1.7,1.5-1.7c0.5,0,0.8,0.2,1,0.5h0v-1.9H210.3z M209.7,125.8c0-0.1,0-0.2,0-0.2c-0.1-0.4-0.4-0.7-0.9-0.7
		c-0.6,0-1,0.5-1,1.3c0,0.7,0.3,1.2,1,1.2c0.4,0,0.8-0.3,0.9-0.7c0-0.1,0-0.2,0-0.3V125.8z"/>
</g>
<g>
	<circle fill="#FFFFFF" cx="179.1" cy="132.7" r="5.1"/>
</g>
<g>
	<g>
		<path fill="#E94747" d="M179.1,131.9c1.8,0,3.1-0.7,3.1-1.3c0-0.6-1.3-1.3-3.1-1.3c-1.8,0-3.1,0.7-3.1,1.3
			C176,131.2,177.3,131.9,179.1,131.9"/>
	</g>
	<g>
		<path fill="#E94747" d="M176,134.2v0.5v0.3c0,0.6,1.3,1.3,3.1,1.3c1.8,0,3.1-0.7,3.1-1.3v-0.3v-0.5c-0.5,0.6-1.7,1-3.1,1
			C177.7,135.1,176.6,134.7,176,134.2"/>
	</g>
	<g>
		<path fill="#E94747" d="M176,132.7v0.3v0.5c0,0.6,1.3,1.3,3.1,1.3c1.8,0,3.1-0.7,3.1-1.3v-0.8c-0.5,0.6-1.7,1-3.1,1
			C177.7,133.6,176.6,133.2,176,132.7"/>
	</g>
	<g>
		<path fill="#E94747" d="M176,131.2v0.8c0,0.6,1.3,1.3,3.1,1.3c1.8,0,3.1-0.7,3.1-1.3v-0.8c-0.5,0.6-1.7,1-3.1,1
			C177.7,132.2,176.6,131.8,176,131.2"/>
	</g>
</g>
<g>
	<circle fill="#FFFFFF" cx="221" cy="66.3" r="5.1"/>
</g>
<g>
	<g>
		<path fill="#E94747" d="M221,57.8c1.8,0,3.1-0.7,3.1-1.3c0-0.6-1.3-1.3-3.1-1.3c-1.8,0-3.1,0.7-3.1,1.3
			C217.9,57.1,219.1,57.8,221,57.8"/>
	</g>
	<g>
		<path fill="#E94747" d="M217.9,60.1v0.5v0.3c0,0.6,1.3,1.3,3.1,1.3c1.8,0,3.1-0.7,3.1-1.3v-0.3v-0.5c-0.5,0.6-1.7,1-3.1,1
			C219.6,61,218.4,60.6,217.9,60.1"/>
	</g>
	<g>
		<path fill="#E94747" d="M217.9,58.6v0.3v0.5c0,0.6,1.3,1.3,3.1,1.3c1.8,0,3.1-0.7,3.1-1.3v-0.8c-0.5,0.6-1.7,1-3.1,1
			C219.6,59.6,218.4,59.2,217.9,58.6"/>
	</g>
	<g>
		<path fill="#E94747" d="M217.9,57.1v0.8c0,0.6,1.3,1.3,3.1,1.3c1.8,0,3.1-0.7,3.1-1.3v-0.8c-0.5,0.6-1.7,1-3.1,1
			C219.6,58.1,218.4,57.7,217.9,57.1"/>
	</g>
</g>
<g>
	<circle fill="#E94747" cx="75.3" cy="74.8" r="42.2"/>
</g>
<g>
	<path fill="#FFFFFF" d="M71.7,66.3c0,2.7-1.7,4.4-4.1,4.4c-2.5,0-3.9-1.9-3.9-4.2c0-2.5,1.6-4.4,4.1-4.4
		C70.3,62.1,71.7,64,71.7,66.3z M65.7,66.4c0,1.6,0.8,2.8,2,2.8c1.3,0,2-1.2,2-2.8c0-1.5-0.7-2.8-2-2.8
		C66.4,63.6,65.7,64.8,65.7,66.4z"/>
	<path fill="#FFFFFF" d="M73,70.6v-8.3h2.2l1.7,3.1c0.5,0.9,1,1.9,1.4,2.9h0c-0.1-1.1-0.2-2.2-0.2-3.5v-2.4h1.7v8.3h-2l-1.8-3.2
		c-0.5-0.9-1-2-1.4-2.9l0,0c0,1.1,0.1,2.3,0.1,3.6v2.5H73z"/>
	<path fill="#FFFFFF" d="M86.5,67.1h-3.1v2h3.4v1.5h-5.3v-8.3h5.1v1.5h-3.3v1.7h3.1V67.1z"/>
	<path fill="#FFFFFF" d="M56.4,85.5l-2-8.3h2l0.6,3.4c0.2,1,0.4,2.1,0.5,2.9h0c0.1-0.9,0.3-1.9,0.5-2.9l0.7-3.4h2l0.7,3.5
		c0.2,1,0.3,1.9,0.4,2.8h0c0.1-0.9,0.3-1.9,0.5-2.9l0.7-3.4h1.9l-2.2,8.3h-2l-0.7-3.6c-0.2-0.8-0.3-1.6-0.4-2.6h0
		c-0.1,0.9-0.3,1.7-0.5,2.6l-0.8,3.6H56.4z"/>
	<path fill="#FFFFFF" d="M73.6,81.2c0,2.7-1.7,4.4-4.1,4.4c-2.5,0-3.9-1.9-3.9-4.2c0-2.5,1.6-4.4,4.1-4.4
		C72.2,77,73.6,78.9,73.6,81.2z M67.6,81.3c0,1.6,0.8,2.8,2,2.8c1.3,0,2-1.2,2-2.8c0-1.5-0.7-2.8-2-2.8
		C68.3,78.5,67.6,79.7,67.6,81.3z"/>
	<path fill="#FFFFFF" d="M74.8,77.2c0.6-0.1,1.5-0.2,2.5-0.2c1.2,0,2.1,0.2,2.7,0.7c0.5,0.4,0.8,1,0.8,1.7c0,1.1-0.8,1.8-1.5,2.1v0
		c0.6,0.2,0.9,0.8,1.1,1.6c0.3,0.9,0.5,2,0.7,2.4h-1.9c-0.1-0.2-0.3-0.9-0.6-1.9c-0.2-1-0.6-1.3-1.3-1.3h-0.6v3.3h-1.9V77.2z
		 M76.7,80.8h0.7c0.9,0,1.5-0.5,1.5-1.2c0-0.8-0.5-1.2-1.4-1.2c-0.5,0-0.7,0-0.9,0.1V80.8z"/>
	<path fill="#FFFFFF" d="M82.2,77.1h1.9v6.8h3.3v1.6h-5.2V77.1z"/>
	<path fill="#FFFFFF" d="M88.5,77.2c0.7-0.1,1.6-0.2,2.5-0.2c1.6,0,2.6,0.3,3.4,0.9c0.9,0.6,1.4,1.7,1.4,3.1c0,1.6-0.6,2.7-1.4,3.4
		c-0.9,0.7-2.2,1.1-3.8,1.1c-1,0-1.7-0.1-2.1-0.1V77.2z M90.4,84c0.2,0,0.4,0,0.7,0c1.7,0,2.8-0.9,2.8-2.9c0-1.7-1-2.6-2.6-2.6
		c-0.4,0-0.7,0-0.9,0.1V84z"/>
</g>
<g>
	<circle fill="#565D73" cx="28.5" cy="44.2" r="23"/>
</g>
<g>
	<path fill="#FFFFFF" d="M13.8,46.7l3.9-5.7v0h-3.6v-0.8h4.8v0.6L15,46.4v0h3.9v0.8h-5.1V46.7z"/>
	<path fill="#FFFFFF" d="M24.5,44.6c0,1.9-1.3,2.7-2.5,2.7c-1.4,0-2.4-1-2.4-2.6c0-1.7,1.1-2.7,2.5-2.7C23.5,42,24.5,43.1,24.5,44.6
		z M20.5,44.7c0,1.1,0.6,1.9,1.5,1.9c0.9,0,1.5-0.8,1.5-2c0-0.9-0.4-1.9-1.5-1.9S20.5,43.7,20.5,44.7z"/>
	<path fill="#FFFFFF" d="M25.6,43.5c0-0.5,0-1,0-1.4h0.8l0.1,0.8h0c0.3-0.5,0.8-1,1.7-1c0.7,0,1.8,0.4,1.8,2.2v3H29v-2.9
		c0-0.8-0.3-1.5-1.2-1.5c-0.6,0-1.1,0.4-1.2,0.9c0,0.1-0.1,0.3-0.1,0.4v3h-0.9V43.5z"/>
	<path fill="#FFFFFF" d="M31.9,44.8c0,1.2,0.8,1.8,1.7,1.8c0.7,0,1.1-0.1,1.4-0.3l0.2,0.7c-0.3,0.1-0.9,0.3-1.7,0.3
		c-1.6,0-2.5-1-2.5-2.6c0-1.5,0.9-2.7,2.4-2.7c1.7,0,2.1,1.5,2.1,2.4c0,0.2,0,0.3,0,0.4H31.9z M34.6,44.2c0-0.6-0.2-1.5-1.3-1.5
		c-0.9,0-1.3,0.9-1.4,1.5H34.6z"/>
	<path fill="#FFFFFF" d="M40.6,41.3L40.6,41.3l-1.2,0.6l-0.2-0.7l1.5-0.8h0.8v6.8h-0.9V41.3z"/>
</g>
<g>
	<circle fill="#FFFFFF" cx="8.8" cy="29.6" r="5"/>
</g>
<g>
	<g>
		<path fill="#E94747" d="M8.8,28.7c1.8,0,3.1-0.7,3.1-1.3c0-0.6-1.2-1.3-3.1-1.3c-1.8,0-3.1,0.7-3.1,1.3C5.7,28,7,28.7,8.8,28.7"/>
	</g>
	<g>
		<path fill="#E94747" d="M5.7,31v0.5v0.3c0,0.6,1.2,1.3,3.1,1.3c1.8,0,3.1-0.7,3.1-1.3v-0.3v-0.5c-0.5,0.6-1.7,0.9-3.1,0.9
			C7.4,31.9,6.2,31.5,5.7,31"/>
	</g>
	<g>
		<path fill="#E94747" d="M5.7,29.5v0.3v0.5c0,0.6,1.2,1.3,3.1,1.3c1.8,0,3.1-0.7,3.1-1.3v-0.8c-0.5,0.6-1.7,0.9-3.1,0.9
			C7.4,30.4,6.2,30.1,5.7,29.5"/>
	</g>
	<g>
		<path fill="#E94747" d="M5.7,28v0.8c0,0.6,1.2,1.3,3.1,1.3c1.8,0,3.1-0.7,3.1-1.3V28c-0.5,0.6-1.7,0.9-3.1,0.9
			C7.4,29,6.2,28.6,5.7,28"/>
	</g>
</g>
<g>
	<circle fill="#FFFFFF" cx="5.4" cy="39" r="5"/>
</g>
<g>
	<g>
		<path fill="#E94747" d="M5.4,38.1c1.8,0,3.1-0.7,3.1-1.3c0-0.6-1.2-1.3-3.1-1.3c-1.8,0-3.1,0.7-3.1,1.3
			C2.3,37.4,3.5,38.1,5.4,38.1"/>
	</g>
	<g>
		<path fill="#E94747" d="M2.3,40.4v0.5v0.3c0,0.6,1.2,1.3,3.1,1.3c1.8,0,3.1-0.7,3.1-1.3v-0.3v-0.5c-0.5,0.6-1.7,0.9-3.1,0.9
			C4,41.3,2.8,40.9,2.3,40.4"/>
	</g>
	<g>
		<path fill="#E94747" d="M2.3,38.9v0.3v0.5c0,0.6,1.2,1.3,3.1,1.3c1.8,0,3.1-0.7,3.1-1.3v-0.8c-0.5,0.6-1.7,0.9-3.1,0.9
			C4,39.9,2.8,39.5,2.3,38.9"/>
	</g>
	<g>
		<path fill="#E94747" d="M2.3,37.5v0.8c0,0.6,1.2,1.3,3.1,1.3c1.8,0,3.1-0.7,3.1-1.3v-0.8c-0.5,0.6-1.7,0.9-3.1,0.9
			C4,38.4,2.8,38,2.3,37.5"/>
	</g>
</g>
<g>
	<circle fill="#FFFFFF" cx="25.6" cy="20.5" r="5"/>
</g>
<g>
	<g>
		<path fill="#E94747" d="M25.6,19.6c1.8,0,3.1-0.7,3.1-1.3c0-0.6-1.2-1.3-3.1-1.3c-1.8,0-3.1,0.7-3.1,1.3
			C22.6,18.9,23.8,19.6,25.6,19.6"/>
	</g>
	<g>
		<path fill="#E94747" d="M22.6,21.9v0.5v0.3c0,0.6,1.2,1.3,3.1,1.3c1.8,0,3.1-0.7,3.1-1.3v-0.3v-0.5c-0.5,0.6-1.7,0.9-3.1,0.9
			C24.3,22.8,23.1,22.4,22.6,21.9"/>
	</g>
	<g>
		<path fill="#E94747" d="M22.6,20.4v0.3v0.5c0,0.6,1.2,1.3,3.1,1.3c1.8,0,3.1-0.7,3.1-1.3v-0.8c-0.5,0.6-1.7,0.9-3.1,0.9
			C24.3,21.4,23.1,21,22.6,20.4"/>
	</g>
	<g>
		<path fill="#E94747" d="M22.6,19v0.8c0,0.6,1.2,1.3,3.1,1.3c1.8,0,3.1-0.7,3.1-1.3V19c-0.5,0.6-1.7,0.9-3.1,0.9
			C24.3,19.9,23.1,19.5,22.6,19"/>
	</g>
</g>
<g>
	<circle fill="#565D73" cx="43.3" cy="121.5" r="23"/>
</g>
<g>
	<path fill="#FFFFFF" d="M28.6,124l3.9-5.7v0H29v-0.8h4.8v0.6l-3.9,5.7v0h3.9v0.8h-5.1V124z"/>
	<path fill="#FFFFFF" d="M39.3,122c0,1.9-1.3,2.7-2.5,2.7c-1.4,0-2.4-1-2.4-2.6c0-1.7,1.1-2.7,2.5-2.7
		C38.3,119.4,39.3,120.4,39.3,122z M35.3,122c0,1.1,0.6,1.9,1.5,1.9c0.9,0,1.5-0.8,1.5-2c0-0.9-0.4-1.9-1.5-1.9S35.3,121.1,35.3,122
		z"/>
	<path fill="#FFFFFF" d="M40.5,120.9c0-0.5,0-1,0-1.4h0.8l0.1,0.8h0c0.3-0.5,0.8-1,1.7-1c0.7,0,1.8,0.4,1.8,2.2v3h-0.9v-2.9
		c0-0.8-0.3-1.5-1.2-1.5c-0.6,0-1.1,0.4-1.2,0.9c0,0.1-0.1,0.3-0.1,0.4v3h-0.9V120.9z"/>
	<path fill="#FFFFFF" d="M46.8,122.2c0,1.2,0.8,1.8,1.7,1.8c0.7,0,1.1-0.1,1.4-0.3l0.2,0.7c-0.3,0.1-0.9,0.3-1.7,0.3
		c-1.6,0-2.5-1-2.5-2.6c0-1.5,0.9-2.7,2.4-2.7c1.7,0,2.1,1.5,2.1,2.4c0,0.2,0,0.3,0,0.4H46.8z M49.5,121.5c0-0.6-0.2-1.5-1.3-1.5
		c-0.9,0-1.3,0.9-1.4,1.5H49.5z"/>
	<path fill="#FFFFFF" d="M53.6,123.5c0.3,0.2,0.9,0.4,1.5,0.4c1.2,0,1.5-0.8,1.5-1.3c0-1-0.9-1.4-1.8-1.4h-0.5v-0.7h0.5
		c0.7,0,1.5-0.3,1.5-1.1c0-0.5-0.3-1-1.2-1c-0.5,0-1.1,0.2-1.4,0.4l-0.2-0.7c0.4-0.3,1-0.5,1.8-0.5c1.3,0,1.9,0.8,1.9,1.6
		c0,0.7-0.4,1.3-1.3,1.6v0c0.8,0.2,1.5,0.8,1.5,1.7c0,1.1-0.8,2-2.5,2c-0.8,0-1.4-0.2-1.8-0.5L53.6,123.5z"/>
</g>
<g>
	<circle fill="#FFFFFF" cx="23.6" cy="106.9" r="5"/>
</g>
<g>
	<g>
		<path fill="#E94747" d="M23.6,106c1.8,0,3.1-0.7,3.1-1.3c0-0.6-1.2-1.3-3.1-1.3c-1.8,0-3.1,0.7-3.1,1.3
			C20.5,105.3,21.8,106,23.6,106"/>
	</g>
	<g>
		<path fill="#E94747" d="M20.5,108.3v0.5v0.3c0,0.6,1.2,1.3,3.1,1.3c1.8,0,3.1-0.7,3.1-1.3v-0.3v-0.5c-0.5,0.6-1.7,0.9-3.1,0.9
			C22.2,109.2,21.1,108.8,20.5,108.3"/>
	</g>
	<g>
		<path fill="#E94747" d="M20.5,106.8v0.3v0.5c0,0.6,1.2,1.3,3.1,1.3c1.8,0,3.1-0.7,3.1-1.3v-0.8c-0.5,0.6-1.7,0.9-3.1,0.9
			C22.2,107.8,21.1,107.4,20.5,106.8"/>
	</g>
	<g>
		<path fill="#E94747" d="M20.5,105.4v0.8c0,0.6,1.2,1.3,3.1,1.3c1.8,0,3.1-0.7,3.1-1.3v-0.8c-0.5,0.6-1.7,0.9-3.1,0.9
			C22.2,106.3,21.1,105.9,20.5,105.4"/>
	</g>
</g>
<g>
	<circle fill="#FFFFFF" cx="20.2" cy="116.3" r="5"/>
</g>
<g>
	<g>
		<path fill="#E94747" d="M20.2,115.4c1.8,0,3.1-0.7,3.1-1.3c0-0.6-1.2-1.3-3.1-1.3c-1.8,0-3.1,0.7-3.1,1.3
			C17.1,114.7,18.4,115.4,20.2,115.4"/>
	</g>
	<g>
		<path fill="#E94747" d="M17.1,117.7v0.5v0.3c0,0.6,1.2,1.3,3.1,1.3c1.8,0,3.1-0.7,3.1-1.3v-0.3v-0.5c-0.5,0.6-1.7,0.9-3.1,0.9
			C18.8,118.6,17.7,118.3,17.1,117.7"/>
	</g>
	<g>
		<path fill="#E94747" d="M17.1,116.2v0.3v0.5c0,0.6,1.2,1.3,3.1,1.3c1.8,0,3.1-0.7,3.1-1.3v-0.8c-0.5,0.6-1.7,0.9-3.1,0.9
			C18.8,117.2,17.7,116.8,17.1,116.2"/>
	</g>
	<g>
		<path fill="#E94747" d="M17.1,114.8v0.8c0,0.6,1.2,1.3,3.1,1.3c1.8,0,3.1-0.7,3.1-1.3v-0.8c-0.5,0.6-1.7,0.9-3.1,0.9
			C18.8,115.7,17.7,115.3,17.1,114.8"/>
	</g>
</g>
<g>
	<circle fill="#FFFFFF" cx="40.5" cy="97.8" r="5"/>
</g>
<g>
	<g>
		<path fill="#E94747" d="M40.5,97c1.8,0,3.1-0.7,3.1-1.3c0-0.6-1.2-1.3-3.1-1.3c-1.8,0-3.1,0.7-3.1,1.3C37.4,96.3,38.7,97,40.5,97"
			/>
	</g>
	<g>
		<path fill="#E94747" d="M37.4,99.2v0.5v0.3c0,0.6,1.2,1.3,3.1,1.3c1.8,0,3.1-0.7,3.1-1.3v-0.3v-0.5c-0.5,0.6-1.7,0.9-3.1,0.9
			C39.1,100.1,37.9,99.8,37.4,99.2"/>
	</g>
	<g>
		<path fill="#E94747" d="M37.4,97.8v0.3v0.5c0,0.6,1.2,1.3,3.1,1.3c1.8,0,3.1-0.7,3.1-1.3v-0.8c-0.5,0.6-1.7,0.9-3.1,0.9
			C39.1,98.7,37.9,98.3,37.4,97.8"/>
	</g>
	<g>
		<path fill="#E94747" d="M37.4,96.3v0.8c0,0.6,1.2,1.3,3.1,1.3c1.8,0,3.1-0.7,3.1-1.3v-0.8c-0.5,0.6-1.7,0.9-3.1,0.9
			C39.1,97.3,37.9,96.9,37.4,96.3"/>
	</g>
</g>
<g>
	<circle fill="#565D73" cx="95.6" cy="28.6" r="23"/>
</g>
<g>
	<path fill="#FFFFFF" d="M80.9,31.2l3.9-5.7v0h-3.6v-0.8H86v0.6l-3.9,5.7v0H86v0.8h-5.1V31.2z"/>
	<path fill="#FFFFFF" d="M91.5,29.1c0,1.9-1.3,2.7-2.5,2.7c-1.4,0-2.4-1-2.4-2.6c0-1.7,1.1-2.7,2.5-2.7
		C90.6,26.5,91.5,27.6,91.5,29.1z M87.5,29.2c0,1.1,0.6,1.9,1.5,1.9c0.9,0,1.5-0.8,1.5-2c0-0.9-0.4-1.9-1.5-1.9S87.5,28.2,87.5,29.2
		z"/>
	<path fill="#FFFFFF" d="M92.7,28c0-0.5,0-1,0-1.4h0.8l0.1,0.8h0c0.3-0.5,0.8-1,1.7-1c0.7,0,1.8,0.4,1.8,2.2v3h-0.9v-2.9
		c0-0.8-0.3-1.5-1.2-1.5c-0.6,0-1.1,0.4-1.2,0.9c0,0.1-0.1,0.3-0.1,0.4v3h-0.9V28z"/>
	<path fill="#FFFFFF" d="M99,29.3c0,1.2,0.8,1.8,1.7,1.8c0.7,0,1.1-0.1,1.4-0.3l0.2,0.7c-0.3,0.1-0.9,0.3-1.7,0.3
		c-1.6,0-2.5-1-2.5-2.6c0-1.5,0.9-2.7,2.4-2.7c1.7,0,2.1,1.5,2.1,2.4c0,0.2,0,0.3,0,0.4H99z M101.7,28.7c0-0.6-0.2-1.5-1.3-1.5
		c-0.9,0-1.3,0.9-1.4,1.5H101.7z"/>
	<path fill="#FFFFFF" d="M105.7,31.7v-0.6l0.7-0.7c1.7-1.7,2.5-2.5,2.5-3.6c0-0.7-0.3-1.3-1.3-1.3c-0.6,0-1.1,0.3-1.4,0.6l-0.3-0.6
		c0.5-0.4,1.1-0.7,1.9-0.7c1.5,0,2.1,1,2.1,2c0,1.3-0.9,2.3-2.3,3.6l-0.5,0.5v0h3.1v0.8H105.7z"/>
</g>
<g>
	<circle fill="#FFFFFF" cx="112.8" cy="9" r="4.3"/>
</g>
<g>
	<g>
		<path fill="#E94747" d="M112.8,8.2c1.5,0,2.6-0.6,2.6-1.1c0-0.5-1.1-1.1-2.6-1.1c-1.5,0-2.6,0.6-2.6,1.1
			C110.1,7.6,111.2,8.2,112.8,8.2"/>
	</g>
	<g>
		<path fill="#E94747" d="M110.1,10.1v0.4v0.2c0,0.5,1.1,1.1,2.6,1.1c1.5,0,2.6-0.6,2.6-1.1v-0.3v-0.4c-0.4,0.5-1.4,0.8-2.6,0.8
			C111.6,10.9,110.6,10.6,110.1,10.1"/>
	</g>
	<g>
		<path fill="#E94747" d="M110.1,8.9v0.3v0.4c0,0.5,1.1,1.1,2.6,1.1c1.5,0,2.6-0.6,2.6-1.1V8.9c-0.4,0.5-1.4,0.8-2.6,0.8
			C111.6,9.7,110.6,9.4,110.1,8.9"/>
	</g>
	<g>
		<path fill="#E94747" d="M110.1,7.7v0.7c0,0.5,1.1,1.1,2.6,1.1c1.5,0,2.6-0.6,2.6-1.1V7.7c-0.4,0.5-1.4,0.8-2.6,0.8
			C111.6,8.5,110.6,8.1,110.1,7.7"/>
	</g>
</g>
<g>
	<circle fill="#FFFFFF" cx="118.2" cy="15.4" r="4.3"/>
</g>
<g>
	<g>
		<path fill="#E94747" d="M118.2,14.7c1.5,0,2.6-0.6,2.6-1.1c0-0.5-1.1-1.1-2.6-1.1c-1.5,0-2.6,0.6-2.6,1.1
			C115.6,14.1,116.7,14.7,118.2,14.7"/>
	</g>
	<g>
		<path fill="#E94747" d="M115.6,16.6v0.4v0.2c0,0.5,1.1,1.1,2.6,1.1c1.5,0,2.6-0.6,2.6-1.1V17v-0.4c-0.4,0.5-1.4,0.8-2.6,0.8
			C117.1,17.4,116.1,17.1,115.6,16.6"/>
	</g>
	<g>
		<path fill="#E94747" d="M115.6,15.4v0.3v0.4c0,0.5,1.1,1.1,2.6,1.1c1.5,0,2.6-0.6,2.6-1.1v-0.7c-0.4,0.5-1.4,0.8-2.6,0.8
			C117.1,16.2,116.1,15.8,115.6,15.4"/>
	</g>
	<g>
		<path fill="#E94747" d="M115.6,14.1v0.7c0,0.5,1.1,1.1,2.6,1.1c1.5,0,2.6-0.6,2.6-1.1v-0.7c-0.4,0.5-1.4,0.8-2.6,0.8
			C117.1,14.9,116.1,14.6,115.6,14.1"/>
	</g>
</g>
<g>
	<circle fill="#FFFFFF" cx="95.2" cy="6.2" r="5"/>
</g>
<g>
	<g>
		<path fill="#E94747" d="M95.5,5.6c1.8,0,3.1-0.7,3.1-1.3c0-0.6-1.2-1.3-3.1-1.3c-1.8,0-3.1,0.7-3.1,1.3
			C92.4,4.9,93.7,5.6,95.5,5.6"/>
	</g>
	<g>
		<path fill="#E94747" d="M92.4,7.9v0.5v0.3c0,0.6,1.2,1.3,3.1,1.3c1.8,0,3.1-0.7,3.1-1.3V8.4V7.8c-0.5,0.6-1.7,0.9-3.1,0.9
			C94.1,8.8,92.9,8.4,92.4,7.9"/>
	</g>
	<g>
		<path fill="#E94747" d="M92.4,6.4v0.3v0.5c0,0.6,1.2,1.3,3.1,1.3c1.8,0,3.1-0.7,3.1-1.3V6.4C98,7,96.8,7.4,95.5,7.4
			C94.1,7.4,92.9,7,92.4,6.4"/>
	</g>
	<g>
		<path fill="#E94747" d="M92.4,5v0.8c0,0.6,1.2,1.3,3.1,1.3c1.8,0,3.1-0.7,3.1-1.3V5c-0.5,0.6-1.7,0.9-3.1,0.9
			C94.1,5.9,92.9,5.5,92.4,5"/>
	</g>
</g>
<g>
	<circle fill="#FFFFFF" cx="80.8" cy="10.7" r="5"/>
</g>
<g>
	<g>
		<path fill="#E94747" d="M80.8,9.8c1.8,0,3.1-0.7,3.1-1.3c0-0.6-1.2-1.3-3.1-1.3c-1.8,0-3.1,0.7-3.1,1.3C77.8,9.1,79,9.8,80.8,9.8"
			/>
	</g>
	<g>
		<path fill="#E94747" d="M77.8,12.1v0.5v0.3c0,0.6,1.2,1.3,3.1,1.3c1.8,0,3.1-0.7,3.1-1.3v-0.3v-0.5c-0.5,0.6-1.7,0.9-3.1,0.9
			C79.5,13,78.3,12.6,77.8,12.1"/>
	</g>
	<g>
		<path fill="#E94747" d="M77.8,10.6v0.3v0.5c0,0.6,1.2,1.3,3.1,1.3c1.8,0,3.1-0.7,3.1-1.3v-0.8c-0.5,0.6-1.7,0.9-3.1,0.9
			C79.5,11.6,78.3,11.2,77.8,10.6"/>
	</g>
	<g>
		<path fill="#E94747" d="M77.8,9.2V10c0,0.6,1.2,1.3,3.1,1.3c1.8,0,3.1-0.7,3.1-1.3V9.2c-0.5,0.6-1.7,0.9-3.1,0.9
			C79.5,10.1,78.3,9.7,77.8,9.2"/>
	</g>
</g>
</svg>
