<?xml version="1.0" encoding="utf-8"?>
<!-- Generator: Adobe Illustrator 19.2.1, SVG Export Plug-In . SVG Version: 6.00 Build 0)  -->
<!DOCTYPE svg PUBLIC "-//W3C//DTD SVG 1.1//EN" "http://www.w3.org/Graphics/SVG/1.1/DTD/svg11.dtd">
<svg version="1.1" id="Warstwa_1" xmlns="http://www.w3.org/2000/svg" xmlns:xlink="http://www.w3.org/1999/xlink" x="0px" y="0px"
	 width="385.2px" height="395.5px" viewBox="0 0 385.2 395.5" style="enable-background:new 0 0 385.2 395.5;" xml:space="preserve"
	>
<style type="text/css">
	.st0{fill:#626262;}
	.st1{fill:#F53B3B;}
	.st2{fill:#FFFFFF;}
	.st3{fill:#E53233;}
	.st4{fill:#F53C3C;}
	.st5{clip-path:url(#SVGID_2_);}
	.st6{fill:#050505;}
</style>
<g>
	<g>
		<path class="st0" d="M133.8,395.5H47.1l3.4-8.4l-3.4-6.2l3.7-5.9l-3.4-5.8l3.4-5.5l-4.1-6.2h87.7l-5.7,5.4l3.4,5.8l-3.4,6l3.4,6
			l-3.6,6.3L133.8,395.5z M50,393.5h80.2l-3.6-5.9v-1.1l3.3-5.7l-3.3-5.7v-0.5l0.1-0.3l3.1-5.5l-3.3-5.7v-0.7l0.3-0.4l2.6-2.5h-79
			l2.8,4.1l-3.5,5.6l3.4,5.8l-3.7,5.9l3.1,5.8v0.4l-0.1,0.2L50,393.5z"/>
	</g>
	<g>
		<path class="st0" d="M65.2,369.6c0,2.3-0.8,3.5-2.1,3.5c-1.2,0-2-1.2-2-3.4c0-2.2,0.9-3.5,2.1-3.5
			C64.5,366.2,65.2,367.5,65.2,369.6z M61.9,369.7c0,1.7,0.5,2.7,1.2,2.7c0.8,0,1.2-1.1,1.2-2.8c0-1.6-0.4-2.7-1.2-2.7
			C62.5,366.9,61.9,367.9,61.9,369.7z"/>
		<path class="st0" d="M69.7,367.2L69.7,367.2l-1.1,0.6l-0.2-0.7l1.3-0.8h0.7v6.7h-0.8V367.2z"/>
		<path class="st0" d="M78.7,369.6c0,2.3-0.8,3.5-2.1,3.5c-1.2,0-2-1.2-2-3.4c0-2.2,0.9-3.5,2.1-3.5C78,366.2,78.7,367.5,78.7,369.6
			z M75.5,369.7c0,1.7,0.5,2.7,1.2,2.7c0.8,0,1.2-1.1,1.2-2.8c0-1.6-0.4-2.7-1.2-2.7C76,366.9,75.5,367.9,75.5,369.7z"/>
		<path class="st0" d="M83.2,367.2L83.2,367.2l-1.1,0.6l-0.2-0.7l1.3-0.8H84v6.7h-0.8V367.2z"/>
		<path class="st0" d="M92.3,369.6c0,2.3-0.8,3.5-2.1,3.5c-1.2,0-2-1.2-2-3.4c0-2.2,0.9-3.5,2.1-3.5
			C91.5,366.2,92.3,367.5,92.3,369.6z M89,369.7c0,1.7,0.5,2.7,1.2,2.7c0.8,0,1.2-1.1,1.2-2.8c0-1.6-0.4-2.7-1.2-2.7
			C89.5,366.9,89,367.9,89,369.7z"/>
		<path class="st0" d="M96.8,367.2L96.8,367.2l-1.1,0.6l-0.2-0.7l1.3-0.8h0.7v6.7h-0.8V367.2z"/>
		<path class="st0" d="M103.5,367.2L103.5,367.2l-1.1,0.6l-0.2-0.7l1.3-0.8h0.7v6.7h-0.8V367.2z"/>
		<path class="st0" d="M110.3,367.2L110.3,367.2l-1.1,0.6l-0.2-0.7l1.3-0.8h0.7v6.7h-0.8V367.2z"/>
		<path class="st0" d="M119.3,369.6c0,2.3-0.8,3.5-2.1,3.5c-1.2,0-2-1.2-2-3.4c0-2.2,0.9-3.5,2.1-3.5
			C118.5,366.2,119.3,367.5,119.3,369.6z M116,369.7c0,1.7,0.5,2.7,1.2,2.7c0.8,0,1.2-1.1,1.2-2.8c0-1.6-0.4-2.7-1.2-2.7
			C116.5,366.9,116,367.9,116,369.7z"/>
		<path class="st0" d="M65.2,381.9c0,2.3-0.8,3.5-2.1,3.5c-1.2,0-2-1.2-2-3.4c0-2.2,0.9-3.5,2.1-3.5
			C64.5,378.5,65.2,379.8,65.2,381.9z M61.9,382c0,1.7,0.5,2.7,1.2,2.7c0.8,0,1.2-1.1,1.2-2.8c0-1.6-0.4-2.7-1.2-2.7
			C62.5,379.2,61.9,380.2,61.9,382z"/>
		<path class="st0" d="M69.7,379.5L69.7,379.5l-1.1,0.6l-0.2-0.7l1.3-0.8h0.7v6.7h-0.8V379.5z"/>
		<path class="st0" d="M78.7,381.9c0,2.3-0.8,3.5-2.1,3.5c-1.2,0-2-1.2-2-3.4c0-2.2,0.9-3.5,2.1-3.5C78,378.5,78.7,379.8,78.7,381.9
			z M75.5,382c0,1.7,0.5,2.7,1.2,2.7c0.8,0,1.2-1.1,1.2-2.8c0-1.6-0.4-2.7-1.2-2.7C76,379.2,75.5,380.2,75.5,382z"/>
		<path class="st0" d="M83.2,379.5L83.2,379.5l-1.1,0.6l-0.2-0.7l1.3-0.8H84v6.7h-0.8V379.5z"/>
		<path class="st0" d="M92.3,381.9c0,2.3-0.8,3.5-2.1,3.5c-1.2,0-2-1.2-2-3.4c0-2.2,0.9-3.5,2.1-3.5
			C91.5,378.5,92.3,379.8,92.3,381.9z M89,382c0,1.7,0.5,2.7,1.2,2.7c0.8,0,1.2-1.1,1.2-2.8c0-1.6-0.4-2.7-1.2-2.7
			C89.5,379.2,89,380.2,89,382z"/>
		<path class="st0" d="M96.8,379.5L96.8,379.5l-1.1,0.6l-0.2-0.7l1.3-0.8h0.7v6.7h-0.8V379.5z"/>
		<path class="st0" d="M105.8,381.9c0,2.3-0.8,3.5-2.1,3.5c-1.2,0-2-1.2-2-3.4c0-2.2,0.9-3.5,2.1-3.5
			C105,378.5,105.8,379.8,105.8,381.9z M102.5,382c0,1.7,0.5,2.7,1.2,2.7c0.8,0,1.2-1.1,1.2-2.8c0-1.6-0.4-2.7-1.2-2.7
			C103,379.2,102.5,380.2,102.5,382z"/>
		<path class="st0" d="M112.5,381.9c0,2.3-0.8,3.5-2.1,3.5c-1.2,0-2-1.2-2-3.4c0-2.2,0.9-3.5,2.1-3.5
			C111.8,378.5,112.5,379.8,112.5,381.9z M109.2,382c0,1.7,0.5,2.7,1.2,2.7c0.8,0,1.2-1.1,1.2-2.8c0-1.6-0.4-2.7-1.2-2.7
			C109.7,379.2,109.2,380.2,109.2,382z"/>
		<path class="st0" d="M117,379.5L117,379.5l-1.1,0.6l-0.2-0.7l1.3-0.8h0.7v6.7H117V379.5z"/>
	</g>
	<g>
		<path class="st0" d="M373.6,395.5h-91.4l4.2-8.5l-3.8-6.2l3.7-5.9l-3.6-5.8l3.6-5.5l-4.4-6.2h92.3l-5.5,5.4l3.5,5.9l-3.6,6l3.6,6
			l-3.8,6.3L373.6,395.5z M285.5,393.5h84.6l-3.5-5.9v-1.1l3.4-5.7l-3.4-5.7v-0.6l0.1-0.3l3.3-5.4l-3.4-5.7v-0.7l0.3-0.4l2.5-2.5
			h-83.6l2.9,4.1l-3.7,5.6l3.6,5.8l-3.7,5.9l3.6,5.8v0.5l-0.1,0.3L285.5,393.5z"/>
	</g>
	<g>
		<path class="st0" d="M301.4,369.6c0,2.3-0.8,3.5-2.2,3.5c-1.2,0-2.1-1.2-2.1-3.4c0-2.2,0.9-3.5,2.2-3.5
			C300.7,366.2,301.4,367.5,301.4,369.6z M298,369.7c0,1.7,0.5,2.7,1.3,2.7c0.9,0,1.3-1.1,1.3-2.8c0-1.6-0.4-2.7-1.3-2.7
			C298.5,366.9,298,367.9,298,369.7z"/>
		<path class="st0" d="M306.2,367.2L306.2,367.2l-1.1,0.6l-0.2-0.7l1.4-0.8h0.7v6.7h-0.8V367.2z"/>
		<path class="st0" d="M315.7,369.6c0,2.3-0.8,3.5-2.2,3.5c-1.2,0-2.1-1.2-2.1-3.4c0-2.2,0.9-3.5,2.2-3.5
			C314.9,366.2,315.7,367.5,315.7,369.6z M312.2,369.7c0,1.7,0.5,2.7,1.3,2.7c0.9,0,1.3-1.1,1.3-2.8c0-1.6-0.4-2.7-1.3-2.7
			C312.8,366.9,312.2,367.9,312.2,369.7z"/>
		<path class="st0" d="M320.4,367.2L320.4,367.2l-1.1,0.6l-0.2-0.7l1.4-0.8h0.7v6.7h-0.8V367.2z"/>
		<path class="st0" d="M329.9,369.6c0,2.3-0.8,3.5-2.2,3.5c-1.2,0-2.1-1.2-2.1-3.4c0-2.2,0.9-3.5,2.2-3.5
			C329.2,366.2,329.9,367.5,329.9,369.6z M326.5,369.7c0,1.7,0.5,2.7,1.3,2.7c0.9,0,1.3-1.1,1.3-2.8c0-1.6-0.4-2.7-1.3-2.7
			C327,366.9,326.5,367.9,326.5,369.7z"/>
		<path class="st0" d="M334.7,367.2L334.7,367.2l-1.1,0.6l-0.2-0.7l1.4-0.8h0.7v6.7h-0.8V367.2z"/>
		<path class="st0" d="M341.8,367.2L341.8,367.2l-1.1,0.6l-0.2-0.7l1.4-0.8h0.7v6.7h-0.8V367.2z"/>
		<path class="st0" d="M348.9,367.2L348.9,367.2l-1.1,0.6l-0.2-0.7l1.4-0.8h0.7v6.7h-0.8V367.2z"/>
		<path class="st0" d="M358.4,369.6c0,2.3-0.8,3.5-2.2,3.5c-1.2,0-2.1-1.2-2.1-3.4c0-2.2,0.9-3.5,2.2-3.5
			C357.7,366.2,358.4,367.5,358.4,369.6z M355,369.7c0,1.7,0.5,2.7,1.3,2.7c0.9,0,1.3-1.1,1.3-2.8c0-1.6-0.4-2.7-1.3-2.7
			C355.5,366.9,355,367.9,355,369.7z"/>
		<path class="st0" d="M301.4,381.9c0,2.3-0.8,3.5-2.2,3.5c-1.2,0-2.1-1.2-2.1-3.4c0-2.2,0.9-3.5,2.2-3.5
			C300.7,378.5,301.4,379.8,301.4,381.9z M298,382c0,1.7,0.5,2.7,1.3,2.7c0.9,0,1.3-1.1,1.3-2.8c0-1.6-0.4-2.7-1.3-2.7
			C298.5,379.2,298,380.2,298,382z"/>
		<path class="st0" d="M306.2,379.5L306.2,379.5l-1.1,0.6l-0.2-0.7l1.4-0.8h0.7v6.7h-0.8V379.5z"/>
		<path class="st0" d="M315.7,381.9c0,2.3-0.8,3.5-2.2,3.5c-1.2,0-2.1-1.2-2.1-3.4c0-2.2,0.9-3.5,2.2-3.5
			C314.9,378.5,315.7,379.8,315.7,381.9z M312.2,382c0,1.7,0.5,2.7,1.3,2.7c0.9,0,1.3-1.1,1.3-2.8c0-1.6-0.4-2.7-1.3-2.7
			C312.8,379.2,312.2,380.2,312.2,382z"/>
		<path class="st0" d="M320.4,379.5L320.4,379.5l-1.1,0.6l-0.2-0.7l1.4-0.8h0.7v6.7h-0.8V379.5z"/>
		<path class="st0" d="M329.9,381.9c0,2.3-0.8,3.5-2.2,3.5c-1.2,0-2.1-1.2-2.1-3.4c0-2.2,0.9-3.5,2.2-3.5
			C329.2,378.5,329.9,379.8,329.9,381.9z M326.5,382c0,1.7,0.5,2.7,1.3,2.7c0.9,0,1.3-1.1,1.3-2.8c0-1.6-0.4-2.7-1.3-2.7
			C327,379.2,326.5,380.2,326.5,382z"/>
		<path class="st0" d="M334.7,379.5L334.7,379.5l-1.1,0.6l-0.2-0.7l1.4-0.8h0.7v6.7h-0.8V379.5z"/>
		<path class="st0" d="M344.2,381.9c0,2.3-0.8,3.5-2.2,3.5c-1.2,0-2.1-1.2-2.1-3.4c0-2.2,0.9-3.5,2.2-3.5
			C343.4,378.5,344.2,379.8,344.2,381.9z M340.7,382c0,1.7,0.5,2.7,1.3,2.7c0.9,0,1.3-1.1,1.3-2.8c0-1.6-0.4-2.7-1.3-2.7
			C341.3,379.2,340.7,380.2,340.7,382z"/>
		<path class="st0" d="M351.3,381.9c0,2.3-0.8,3.5-2.2,3.5c-1.2,0-2.1-1.2-2.1-3.4c0-2.2,0.9-3.5,2.2-3.5
			C350.5,378.5,351.3,379.8,351.3,381.9z M347.8,382c0,1.7,0.5,2.7,1.3,2.7c0.9,0,1.3-1.1,1.3-2.8c0-1.6-0.4-2.7-1.3-2.7
			C348.4,379.2,347.8,380.2,347.8,382z"/>
		<path class="st0" d="M356.1,379.5L356.1,379.5l-1.1,0.6l-0.2-0.7l1.4-0.8h0.7v6.7h-0.8V379.5z"/>
	</g>
	<g>
		<path class="st0" d="M266.2,395.5H151.6l3.9-8.4l-4.2-6.3l5.2-5.8l-4.6-5.8l4.6-5.5l-5.5-6.2h115.9l-6,5.4l4.5,5.9l-4.6,6l4.6,6
			l-4.8,6.3L266.2,395.5z M154.7,393.5h107.8l-3.9-5.9v-1.2l4.3-5.6l-4.3-5.6v-0.7l0.2-0.4l4.1-5.3l-4.3-5.6v-0.8l0.3-0.4l2.7-2.5
			H155.4l3.7,4.1l-4.6,5.6l4.6,5.8l-5.3,5.9l3.8,5.7v0.5l-0.1,0.2L154.7,393.5z"/>
	</g>
	<g>
		<path class="st0" d="M172.5,369.6c0,2.3-0.8,3.5-2.2,3.5c-1.3,0-2.1-1.2-2.1-3.4c0-2.2,0.9-3.5,2.2-3.5
			C171.7,366.2,172.5,367.5,172.5,369.6z M169,369.7c0,1.7,0.5,2.7,1.3,2.7c0.9,0,1.3-1.1,1.3-2.8c0-1.6-0.4-2.7-1.3-2.7
			C169.6,366.9,169,367.9,169,369.7z"/>
		<path class="st0" d="M177.3,367.2L177.3,367.2l-1.1,0.6l-0.2-0.7l1.4-0.8h0.7v6.7h-0.8V367.2z"/>
		<path class="st0" d="M186.9,369.6c0,2.3-0.8,3.5-2.2,3.5c-1.3,0-2.1-1.2-2.1-3.4c0-2.2,0.9-3.5,2.2-3.5
			C186.1,366.2,186.9,367.5,186.9,369.6z M183.4,369.7c0,1.7,0.5,2.7,1.3,2.7c0.9,0,1.3-1.1,1.3-2.8c0-1.6-0.4-2.7-1.3-2.7
			C183.9,366.9,183.4,367.9,183.4,369.7z"/>
		<path class="st0" d="M191.7,367.2L191.7,367.2l-1.1,0.6l-0.2-0.7l1.4-0.8h0.7v6.7h-0.8V367.2z"/>
		<path class="st0" d="M201.2,369.6c0,2.3-0.8,3.5-2.2,3.5c-1.3,0-2.1-1.2-2.1-3.4c0-2.2,0.9-3.5,2.2-3.5
			C200.5,366.2,201.2,367.5,201.2,369.6z M197.7,369.7c0,1.7,0.5,2.7,1.3,2.7c0.9,0,1.3-1.1,1.3-2.8c0-1.6-0.4-2.7-1.3-2.7
			C198.3,366.9,197.7,367.9,197.7,369.7z"/>
		<path class="st0" d="M206,367.2L206,367.2l-1.1,0.6l-0.2-0.7l1.4-0.8h0.7v6.7H206V367.2z"/>
		<path class="st0" d="M213.2,367.2L213.2,367.2l-1.1,0.6l-0.2-0.7l1.4-0.8h0.7v6.7h-0.8V367.2z"/>
		<path class="st0" d="M220.4,367.2L220.4,367.2l-1.1,0.6l-0.2-0.7l1.4-0.8h0.7v6.7h-0.8V367.2z"/>
		<path class="st0" d="M230,369.6c0,2.3-0.8,3.5-2.2,3.5c-1.3,0-2.1-1.2-2.1-3.4c0-2.2,0.9-3.5,2.2-3.5
			C229.2,366.2,230,367.5,230,369.6z M226.5,369.7c0,1.7,0.5,2.7,1.3,2.7c0.9,0,1.3-1.1,1.3-2.8c0-1.6-0.4-2.7-1.3-2.7
			C227,366.9,226.5,367.9,226.5,369.7z"/>
		<path class="st0" d="M237.2,369.6c0,2.3-0.8,3.5-2.2,3.5c-1.3,0-2.1-1.2-2.1-3.4c0-2.2,0.9-3.5,2.2-3.5
			C236.4,366.2,237.2,367.5,237.2,369.6z M233.7,369.7c0,1.7,0.5,2.7,1.3,2.7c0.9,0,1.3-1.1,1.3-2.8c0-1.6-0.4-2.7-1.3-2.7
			C234.2,366.9,233.7,367.9,233.7,369.7z"/>
		<path class="st0" d="M242,367.2L242,367.2l-1.1,0.6l-0.2-0.7l1.4-0.8h0.7v6.7H242V367.2z"/>
		<path class="st0" d="M251.5,369.6c0,2.3-0.8,3.5-2.2,3.5c-1.3,0-2.1-1.2-2.1-3.4c0-2.2,0.9-3.5,2.2-3.5
			C250.8,366.2,251.5,367.5,251.5,369.6z M248,369.7c0,1.7,0.5,2.7,1.3,2.7c0.9,0,1.3-1.1,1.3-2.8c0-1.6-0.4-2.7-1.3-2.7
			C248.6,366.9,248,367.9,248,369.7z"/>
		<path class="st0" d="M169.1,379.5L169.1,379.5l-1.1,0.6l-0.2-0.7l1.4-0.8h0.7v6.7h-0.8V379.5z"/>
		<path class="st0" d="M178.6,381.9c0,2.3-0.8,3.5-2.2,3.5c-1.3,0-2.1-1.2-2.1-3.4c0-2.2,0.9-3.5,2.2-3.5
			C177.9,378.5,178.6,379.8,178.6,381.9z M175.1,382c0,1.7,0.5,2.7,1.3,2.7c0.9,0,1.3-1.1,1.3-2.8c0-1.6-0.4-2.7-1.3-2.7
			C175.7,379.2,175.1,380.2,175.1,382z"/>
		<path class="st0" d="M183.4,379.5L183.4,379.5l-1.1,0.6l-0.2-0.7l1.4-0.8h0.7v6.7h-0.8V379.5z"/>
		<path class="st0" d="M193,381.9c0,2.3-0.8,3.5-2.2,3.5c-1.3,0-2.1-1.2-2.1-3.4c0-2.2,0.9-3.5,2.2-3.5
			C192.2,378.5,193,379.8,193,381.9z M189.5,382c0,1.7,0.5,2.7,1.3,2.7c0.9,0,1.3-1.1,1.3-2.8c0-1.6-0.4-2.7-1.3-2.7
			C190.1,379.2,189.5,380.2,189.5,382z"/>
		<path class="st0" d="M200.2,381.9c0,2.3-0.8,3.5-2.2,3.5c-1.3,0-2.1-1.2-2.1-3.4c0-2.2,0.9-3.5,2.2-3.5
			C199.4,378.5,200.2,379.8,200.2,381.9z M196.7,382c0,1.7,0.5,2.7,1.3,2.7c0.9,0,1.3-1.1,1.3-2.8c0-1.6-0.4-2.7-1.3-2.7
			C197.3,379.2,196.7,380.2,196.7,382z"/>
		<path class="st0" d="M205,379.5L205,379.5l-1.1,0.6l-0.2-0.7l1.4-0.8h0.7v6.7H205V379.5z"/>
		<path class="st0" d="M214.6,381.9c0,2.3-0.8,3.5-2.2,3.5c-1.3,0-2.1-1.2-2.1-3.4c0-2.2,0.9-3.5,2.2-3.5
			C213.8,378.5,214.6,379.8,214.6,381.9z M211.1,382c0,1.7,0.5,2.7,1.3,2.7c0.9,0,1.3-1.1,1.3-2.8c0-1.6-0.4-2.7-1.3-2.7
			C211.6,379.2,211.1,380.2,211.1,382z"/>
		<path class="st0" d="M219.4,379.5L219.4,379.5l-1.1,0.6l-0.2-0.7l1.4-0.8h0.7v6.7h-0.8V379.5z"/>
		<path class="st0" d="M228.9,381.9c0,2.3-0.8,3.5-2.2,3.5c-1.3,0-2.1-1.2-2.1-3.4c0-2.2,0.9-3.5,2.2-3.5
			C228.2,378.5,228.9,379.8,228.9,381.9z M225.4,382c0,1.7,0.5,2.7,1.3,2.7c0.9,0,1.3-1.1,1.3-2.8c0-1.6-0.4-2.7-1.3-2.7
			C226,379.2,225.4,380.2,225.4,382z"/>
		<path class="st0" d="M233.7,379.5L233.7,379.5l-1.1,0.6l-0.2-0.7l1.4-0.8h0.7v6.7h-0.8V379.5z"/>
		<path class="st0" d="M243.3,381.9c0,2.3-0.8,3.5-2.2,3.5c-1.3,0-2.1-1.2-2.1-3.4c0-2.2,0.9-3.5,2.2-3.5
			C242.5,378.5,243.3,379.8,243.3,381.9z M239.8,382c0,1.7,0.5,2.7,1.3,2.7c0.9,0,1.3-1.1,1.3-2.8c0-1.6-0.4-2.7-1.3-2.7
			C240.4,379.2,239.8,380.2,239.8,382z"/>
		<path class="st0" d="M250.2,379.5L250.2,379.5l-1.1,0.6l-0.2-0.7l1.4-0.8h0.7v6.7h-0.8V379.5z"/>
	</g>
	<g>
		<path class="st1" d="M231.7,110.9c0-0.4,0-0.6,0-0.9c0-16.3-13.1-29.4-29.4-29.4c-11.8,0-21.8,6.8-26.6,16.7
			c-2.1-0.9-4.4-1.7-6.8-1.7c-7.6,0-13.7,5.5-15,12.7c-8.9,3-15.4,11.6-15.4,21.4c0,12.5,10.2,22.8,22.8,22.8h70.4l0,0
			c11.4,0,20.7-9.3,20.7-20.9C252.6,120.2,243.3,110.9,231.7,110.9z"/>
	</g>
	<g>
		<path class="st2" d="M168.4,122.2c0.7,0.4,1.7,0.8,2.7,0.8c1.6,0,2.5-0.8,2.5-2c0-1.1-0.6-1.7-2.2-2.3c-1.9-0.7-3.1-1.7-3.1-3.3
			c0-1.8,1.5-3.2,3.8-3.2c1.2,0,2.1,0.3,2.6,0.6l-0.4,1.2c-0.4-0.2-1.2-0.6-2.2-0.6c-1.6,0-2.2,1-2.2,1.8c0,1.1,0.7,1.6,2.3,2.3
			c2,0.8,3,1.7,3,3.5c0,1.8-1.3,3.4-4.1,3.4c-1.1,0-2.4-0.3-3-0.8L168.4,122.2z"/>
		<path class="st2" d="M177.1,118.4c0-1.1,0-2-0.1-2.8h1.4l0.1,1.4h0c0.6-1,1.6-1.6,3-1.6c2,0,3.6,1.7,3.6,4.3c0,3-1.8,4.5-3.8,4.5
			c-1.1,0-2.1-0.5-2.6-1.3h0v4.6h-1.5V118.4z M178.6,120.6c0,0.2,0,0.4,0.1,0.6c0.3,1.1,1.2,1.8,2.3,1.8c1.6,0,2.6-1.3,2.6-3.3
			c0-1.7-0.9-3.1-2.5-3.1c-1,0-2,0.8-2.3,1.9c-0.1,0.2-0.1,0.4-0.1,0.6V120.6z"/>
		<path class="st2" d="M191.7,124.1l-0.1-1.1h-0.1c-0.5,0.7-1.4,1.3-2.6,1.3c-1.7,0-2.6-1.2-2.6-2.4c0-2,1.8-3.2,5.1-3.1v-0.2
			c0-0.7-0.2-2-1.9-2c-0.8,0-1.6,0.2-2.2,0.6l-0.3-1c0.7-0.5,1.7-0.8,2.8-0.8c2.6,0,3.2,1.8,3.2,3.5v3.2c0,0.7,0,1.4,0.1,2H191.7z
			 M191.5,119.8c-1.7,0-3.6,0.3-3.6,1.9c0,1,0.7,1.5,1.4,1.5c1.1,0,1.8-0.7,2-1.4c0.1-0.2,0.1-0.3,0.1-0.5V119.8z"/>
		<path class="st2" d="M201.5,123.8c-0.4,0.2-1.3,0.5-2.4,0.5c-2.5,0-4.2-1.7-4.2-4.3c0-2.6,1.8-4.5,4.5-4.5c0.9,0,1.7,0.2,2.1,0.4
			l-0.3,1.2c-0.4-0.2-0.9-0.4-1.8-0.4c-1.9,0-3,1.4-3,3.2c0,2,1.3,3.2,2.9,3.2c0.9,0,1.4-0.2,1.9-0.4L201.5,123.8z"/>
		<path class="st2" d="M204,120.1c0,2.1,1.4,2.9,2.9,2.9c1.1,0,1.8-0.2,2.3-0.4l0.3,1.1c-0.5,0.2-1.5,0.5-2.8,0.5
			c-2.6,0-4.2-1.7-4.2-4.3c0-2.5,1.5-4.6,4-4.6c2.8,0,3.5,2.4,3.5,4c0,0.3,0,0.6-0.1,0.7H204z M208.5,119c0-1-0.4-2.5-2.1-2.5
			c-1.6,0-2.2,1.4-2.4,2.5H208.5z"/>
		<path class="st2" d="M218.4,114.2L218.4,114.2l-2,1.1l-0.3-1.2l2.5-1.3h1.3v11.3h-1.5V114.2z"/>
		<path class="st2" d="M172,139.2c-1.1-0.3-2.1-0.6-3-0.9c-0.2-0.1-0.3-0.1-0.5-0.1c-1.9-0.1-3.5-1.4-3.5-4c0-2.5,1.5-4.1,3.7-4.1
			c2.1,0,3.5,1.7,3.5,4c0,2-0.9,3.3-2.2,3.8v0c0.8,0.2,1.6,0.4,2.3,0.5L172,139.2z M171.2,134.1c0-1.6-0.8-3.2-2.5-3.2
			c-1.7,0-2.5,1.6-2.5,3.3c0,1.7,0.9,3.2,2.5,3.2C170.3,137.3,171.2,135.9,171.2,134.1z"/>
		<path class="st2" d="M178.3,136.5c0,0.6,0,1.1,0,1.5h-0.9l-0.1-0.9h0c-0.3,0.5-0.9,1-1.9,1c-0.9,0-1.9-0.5-1.9-2.5v-3.3h1v3.1
			c0,1.1,0.3,1.8,1.3,1.8c0.7,0,1.2-0.5,1.3-0.9c0.1-0.2,0.1-0.3,0.1-0.5v-3.5h1V136.5z"/>
		<path class="st2" d="M185.1,135.2c0,2.1-1.4,3-2.8,3c-1.5,0-2.7-1.1-2.7-2.9c0-1.9,1.2-3,2.8-3C184,132.3,185.1,133.5,185.1,135.2
			z M180.6,135.2c0,1.2,0.7,2.2,1.7,2.2c1,0,1.7-0.9,1.7-2.2c0-1-0.5-2.2-1.7-2.2C181.1,133.1,180.6,134.2,180.6,135.2z"/>
		<path class="st2" d="M187.6,130.8v1.6h1.5v0.8h-1.5v3c0,0.7,0.2,1.1,0.8,1.1c0.3,0,0.5,0,0.6-0.1l0,0.8c-0.2,0.1-0.5,0.1-0.9,0.1
			c-0.5,0-0.9-0.2-1.1-0.4c-0.3-0.3-0.4-0.8-0.4-1.5v-3.1h-0.9v-0.8h0.9v-1.3L187.6,130.8z"/>
		<path class="st2" d="M193.3,138l-0.1-0.7h0c-0.3,0.4-0.9,0.8-1.7,0.8c-1.1,0-1.7-0.8-1.7-1.6c0-1.4,1.2-2.1,3.4-2.1v-0.1
			c0-0.5-0.1-1.3-1.3-1.3c-0.5,0-1.1,0.2-1.5,0.4l-0.2-0.7c0.5-0.3,1.1-0.5,1.8-0.5c1.7,0,2.1,1.2,2.1,2.3v2.1c0,0.5,0,1,0.1,1.3
			H193.3z M193.2,135.2c-1.1,0-2.4,0.2-2.4,1.3c0,0.7,0.4,1,1,1c0.7,0,1.2-0.5,1.4-0.9c0-0.1,0.1-0.2,0.1-0.3V135.2z"/>
		<path class="st2" d="M195.6,133.3c0-0.4,0.3-0.7,0.7-0.7c0.4,0,0.7,0.3,0.7,0.7c0,0.4-0.3,0.7-0.7,0.7
			C195.9,134.1,195.6,133.8,195.6,133.3z M195.6,137.4c0-0.4,0.3-0.7,0.7-0.7c0.4,0,0.7,0.3,0.7,0.7c0,0.4-0.3,0.7-0.7,0.7
			C195.9,138.2,195.6,137.9,195.6,137.4z"/>
		<path class="st2" d="M200.4,138v-0.6l0.8-0.8c1.9-1.8,2.8-2.8,2.8-4c0-0.8-0.4-1.5-1.5-1.5c-0.7,0-1.3,0.3-1.6,0.6l-0.3-0.7
			c0.5-0.4,1.3-0.8,2.1-0.8c1.6,0,2.3,1.1,2.3,2.2c0,1.4-1,2.5-2.6,4.1l-0.6,0.6v0h3.4v0.8H200.4z"/>
		<path class="st2" d="M211.4,134.2c0,2.6-1,4-2.6,4c-1.5,0-2.5-1.4-2.5-3.9c0-2.5,1.1-3.9,2.6-3.9
			C210.5,130.4,211.4,131.8,211.4,134.2z M207.3,134.3c0,2,0.6,3.1,1.5,3.1c1,0,1.5-1.2,1.5-3.2c0-1.9-0.5-3.1-1.5-3.1
			C207.9,131.1,207.3,132.2,207.3,134.3z"/>
		<path class="st2" d="M216.1,131.1h-2.4v-0.9h5.8v0.9h-2.4v7h-1V131.1z"/>
		<path class="st2" d="M220.4,130.3c0.4-0.1,1.1-0.2,1.8-0.2c1,0,1.7,0.2,2.2,0.6c0.4,0.3,0.7,0.8,0.7,1.4c0,0.8-0.5,1.4-1.3,1.7v0
			c0.7,0.2,1.6,0.8,1.6,2c0,0.7-0.3,1.2-0.7,1.6c-0.5,0.5-1.4,0.7-2.7,0.7c-0.7,0-1.2,0-1.6-0.1V130.3z M221.4,133.5h0.9
			c1.1,0,1.7-0.6,1.7-1.3c0-0.9-0.7-1.3-1.7-1.3c-0.5,0-0.7,0-0.9,0.1V133.5z M221.4,137.3c0.2,0,0.5,0,0.8,0c1,0,2-0.4,2-1.5
			c0-1.1-0.9-1.5-2-1.5h-0.8V137.3z"/>
	</g>
	<g>
		<path d="M6.6,10C6.9,10,7.4,9.9,7.9,9.9c0.7,0,1.2,0.1,1.6,0.4c0.3,0.2,0.4,0.6,0.4,1c0,0.7-0.4,1.2-1,1.4v0
			c0.4,0.1,0.7,0.5,0.8,1.1c0.2,0.8,0.3,1.3,0.4,1.5H9.3c-0.1-0.2-0.2-0.6-0.4-1.3c-0.2-0.7-0.4-1-1.1-1H7.2v2.3H6.6V10z M7.2,12.5
			H8c0.7,0,1.2-0.4,1.2-1c0-0.7-0.5-1-1.2-1c-0.3,0-0.6,0-0.7,0.1V12.5z"/>
		<path d="M11.3,13.5c0,1,0.6,1.3,1.3,1.3c0.5,0,0.8-0.1,1.1-0.2l0.1,0.5c-0.2,0.1-0.7,0.2-1.3,0.2c-1.2,0-1.9-0.8-1.9-2
			s0.7-2.1,1.8-2.1c1.3,0,1.6,1.1,1.6,1.8c0,0.1,0,0.3,0,0.3H11.3z M13.3,13c0-0.4-0.2-1.1-1-1.1c-0.7,0-1,0.7-1.1,1.1H13.3z"/>
		<path d="M17.5,14.8L17.5,14.8c-0.2,0.4-0.7,0.7-1.3,0.7c-0.9,0-1.6-0.8-1.6-2c0-1.4,0.9-2.1,1.8-2.1c0.6,0,1,0.3,1.2,0.7h0l0-0.6
			h0.7c0,0.3,0,0.7,0,1.1v4.4h-0.7V14.8z M17.5,13.1c0-0.1,0-0.2,0-0.3c-0.1-0.4-0.5-0.8-1-0.8c-0.7,0-1.2,0.6-1.2,1.5
			c0,0.8,0.4,1.4,1.1,1.4c0.5,0,0.8-0.3,1-0.8c0-0.1,0.1-0.2,0.1-0.3V13.1z"/>
		<path d="M22.6,14.3c0,0.4,0,0.8,0,1.1H22l0-0.6h0c-0.2,0.3-0.6,0.7-1.3,0.7c-0.6,0-1.3-0.3-1.3-1.7v-2.3H20v2.1
			c0,0.7,0.2,1.2,0.9,1.2c0.5,0,0.8-0.3,0.9-0.6c0-0.1,0.1-0.2,0.1-0.4v-2.4h0.7V14.3z"/>
		<path d="M24.2,13.5c0,1,0.6,1.3,1.3,1.3c0.5,0,0.8-0.1,1.1-0.2l0.1,0.5c-0.2,0.1-0.7,0.2-1.3,0.2c-1.2,0-1.9-0.8-1.9-2
			s0.7-2.1,1.8-2.1c1.3,0,1.6,1.1,1.6,1.8c0,0.1,0,0.3,0,0.3H24.2z M26.2,13c0-0.4-0.2-1.1-1-1.1c-0.7,0-1,0.7-1.1,1.1H26.2z"/>
		<path d="M27.7,14.6c0.2,0.1,0.6,0.3,0.9,0.3c0.5,0,0.8-0.3,0.8-0.6c0-0.3-0.2-0.5-0.7-0.7c-0.7-0.2-1-0.6-1-1.1
			c0-0.6,0.5-1.1,1.3-1.1c0.4,0,0.7,0.1,1,0.2l-0.2,0.5c-0.2-0.1-0.4-0.2-0.8-0.2c-0.4,0-0.6,0.2-0.6,0.5c0,0.3,0.2,0.5,0.7,0.7
			c0.7,0.3,1,0.6,1,1.2c0,0.7-0.5,1.2-1.4,1.2c-0.4,0-0.8-0.1-1.1-0.3L27.7,14.6z"/>
		<path d="M31.8,10.4v1.1h1V12h-1v2.1c0,0.5,0.1,0.8,0.5,0.8c0.2,0,0.3,0,0.4,0l0,0.5c-0.1,0.1-0.4,0.1-0.6,0.1
			c-0.3,0-0.6-0.1-0.8-0.3c-0.2-0.2-0.3-0.6-0.3-1V12h-0.6v-0.5h0.6v-0.9L31.8,10.4z"/>
		<path d="M34.4,10.4c0,0.2-0.2,0.4-0.4,0.4c-0.2,0-0.4-0.2-0.4-0.4c0-0.2,0.2-0.4,0.4-0.4C34.2,10,34.4,10.1,34.4,10.4z M33.6,15.4
			v-3.9h0.7v3.9H33.6z"/>
		<path d="M35.5,12.5c0-0.4,0-0.7,0-1h0.6l0,0.6h0c0.2-0.4,0.6-0.7,1.3-0.7c0.5,0,1.4,0.3,1.4,1.6v2.3h-0.7v-2.2
			c0-0.6-0.2-1.1-0.9-1.1c-0.5,0-0.8,0.3-0.9,0.7c0,0.1,0,0.2,0,0.3v2.3h-0.7V12.5z"/>
		<path d="M43.2,11.5c0,0.3,0,0.6,0,1.1v2.2c0,0.9-0.2,1.4-0.6,1.8c-0.4,0.4-0.9,0.5-1.4,0.5c-0.5,0-1-0.1-1.3-0.3l0.2-0.5
			c0.3,0.2,0.7,0.3,1.1,0.3c0.7,0,1.2-0.4,1.2-1.4v-0.4h0c-0.2,0.4-0.6,0.6-1.2,0.6c-1,0-1.6-0.8-1.6-1.9c0-1.3,0.9-2.1,1.7-2.1
			c0.7,0,1,0.4,1.2,0.7h0l0-0.6H43.2z M42.5,13c0-0.1,0-0.2,0-0.3c-0.1-0.4-0.5-0.7-1-0.7c-0.7,0-1.2,0.6-1.2,1.5
			c0,0.8,0.4,1.4,1.1,1.4c0.4,0,0.8-0.3,1-0.7c0-0.1,0.1-0.3,0.1-0.4V13z"/>
		<path d="M12.1,24.2c0.2,0.1,0.6,0.3,0.9,0.3c0.5,0,0.8-0.3,0.8-0.6c0-0.3-0.2-0.5-0.7-0.7c-0.7-0.2-1-0.6-1-1.1
			c0-0.6,0.5-1.1,1.3-1.1c0.4,0,0.7,0.1,1,0.2l-0.2,0.5c-0.2-0.1-0.4-0.2-0.8-0.2c-0.4,0-0.6,0.2-0.6,0.5c0,0.3,0.2,0.5,0.7,0.7
			c0.7,0.3,1,0.6,1,1.2c0,0.7-0.5,1.2-1.4,1.2c-0.4,0-0.8-0.1-1.1-0.3L12.1,24.2z"/>
		<path d="M18.6,23.9c0,0.4,0,0.8,0,1.1H18l0-0.6h0c-0.2,0.3-0.6,0.7-1.3,0.7c-0.6,0-1.3-0.3-1.3-1.7v-2.3H16v2.1
			c0,0.7,0.2,1.2,0.9,1.2c0.5,0,0.8-0.3,0.9-0.6c0-0.1,0.1-0.2,0.1-0.4v-2.4h0.7V23.9z"/>
		<path d="M19.8,22.3c0-0.5,0-0.9,0-1.3h0.6l0,0.7h0c0.3-0.5,0.7-0.8,1.4-0.8c0.9,0,1.6,0.8,1.6,2c0,1.4-0.8,2.1-1.8,2.1
			c-0.5,0-1-0.2-1.2-0.6h0v2.1h-0.7V22.3z M20.5,23.4c0,0.1,0,0.2,0,0.3c0.1,0.5,0.6,0.8,1.1,0.8c0.7,0,1.2-0.6,1.2-1.5
			c0-0.8-0.4-1.4-1.2-1.4c-0.5,0-0.9,0.3-1.1,0.9c0,0.1,0,0.2,0,0.3V23.4z"/>
		<path d="M24.3,22.3c0-0.5,0-0.9,0-1.3h0.6l0,0.7h0c0.3-0.5,0.7-0.8,1.4-0.8c0.9,0,1.6,0.8,1.6,2c0,1.4-0.8,2.1-1.8,2.1
			c-0.5,0-1-0.2-1.2-0.6h0v2.1h-0.7V22.3z M25,23.4c0,0.1,0,0.2,0,0.3c0.1,0.5,0.6,0.8,1.1,0.8c0.7,0,1.2-0.6,1.2-1.5
			c0-0.8-0.4-1.4-1.2-1.4c-0.5,0-0.9,0.3-1.1,0.9c0,0.1,0,0.2,0,0.3V23.4z"/>
		<path d="M32.4,23c0,1.4-1,2.1-1.9,2.1c-1,0-1.9-0.8-1.9-2c0-1.3,0.8-2.1,1.9-2.1C31.6,21,32.4,21.8,32.4,23z M29.3,23
			c0,0.8,0.5,1.5,1.2,1.5c0.7,0,1.2-0.6,1.2-1.5c0-0.7-0.3-1.5-1.2-1.5C29.7,21.5,29.3,22.3,29.3,23z"/>
		<path d="M33.3,22.3c0-0.5,0-0.8,0-1.2h0.6l0,0.8h0c0.2-0.5,0.6-0.8,1.1-0.8c0.1,0,0.1,0,0.2,0v0.7c-0.1,0-0.1,0-0.2,0
			c-0.5,0-0.8,0.4-0.9,0.9c0,0.1,0,0.2,0,0.3v2.1h-0.7V22.3z"/>
		<path d="M36.9,20v1.1h1v0.5h-1v2.1c0,0.5,0.1,0.8,0.5,0.8c0.2,0,0.3,0,0.4,0l0,0.5C37.7,25,37.5,25,37.2,25
			c-0.3,0-0.6-0.1-0.8-0.3c-0.2-0.2-0.3-0.6-0.3-1v-2.1h-0.6v-0.5h0.6v-0.9L36.9,20z"/>
	</g>
	<g>
		<path class="st1" d="M345.1,119.8c0-0.3,0-0.4,0-0.7c0-12.3-9.9-22.3-22.3-22.3c-8.9,0-16.5,5.2-20.1,12.6
			c-1.6-0.7-3.3-1.3-5.2-1.3c-5.7,0-10.3,4.2-11.3,9.6c-6.7,2.3-11.6,8.8-11.6,16.2c0,9.5,7.8,17.2,17.2,17.2h53.3l0,0
			c8.6,0,15.7-7,15.7-15.8C360.9,126.8,353.8,119.8,345.1,119.8z"/>
	</g>
	<g>
		<path class="st2" d="M297.3,127.1c0.5,0.3,1.3,0.6,2,0.6c1.2,0,1.8-0.6,1.8-1.5c0-0.8-0.5-1.3-1.7-1.8c-1.4-0.5-2.3-1.3-2.3-2.5
			c0-1.4,1.1-2.4,2.9-2.4c0.9,0,1.6,0.2,1.9,0.4l-0.3,0.9c-0.3-0.2-0.9-0.4-1.7-0.4c-1.2,0-1.7,0.7-1.7,1.3c0,0.8,0.5,1.2,1.8,1.7
			c1.5,0.6,2.2,1.3,2.2,2.6c0,1.4-1,2.5-3.1,2.5c-0.9,0-1.8-0.2-2.2-0.6L297.3,127.1z"/>
		<path class="st2" d="M303.9,124.2c0-0.8,0-1.5-0.1-2.1h1l0.1,1.1h0c0.5-0.8,1.2-1.2,2.2-1.2c1.5,0,2.7,1.3,2.7,3.2
			c0,2.3-1.4,3.4-2.9,3.4c-0.8,0-1.6-0.4-1.9-1h0v3.4h-1.1V124.2z M305,125.9c0,0.2,0,0.3,0.1,0.5c0.2,0.8,0.9,1.3,1.7,1.3
			c1.2,0,1.9-1,1.9-2.4c0-1.3-0.7-2.4-1.9-2.4c-0.8,0-1.5,0.6-1.7,1.4c0,0.1-0.1,0.3-0.1,0.5V125.9z"/>
		<path class="st2" d="M314.9,128.5l-0.1-0.8h0c-0.4,0.5-1,0.9-1.9,0.9c-1.3,0-1.9-0.9-1.9-1.8c0-1.5,1.4-2.4,3.8-2.4v-0.1
			c0-0.5-0.1-1.5-1.4-1.5c-0.6,0-1.2,0.2-1.6,0.5l-0.3-0.8c0.5-0.3,1.3-0.6,2.1-0.6c1.9,0,2.4,1.3,2.4,2.6v2.4c0,0.5,0,1.1,0.1,1.5
			H314.9z M314.7,125.3c-1.3,0-2.7,0.2-2.7,1.4c0,0.7,0.5,1.1,1.1,1.1c0.8,0,1.3-0.5,1.5-1.1c0-0.1,0.1-0.2,0.1-0.4V125.3z"/>
		<path class="st2" d="M322.2,128.3c-0.3,0.2-1,0.4-1.8,0.4c-1.9,0-3.2-1.3-3.2-3.2c0-1.9,1.3-3.4,3.4-3.4c0.7,0,1.3,0.2,1.6,0.3
			l-0.3,0.9c-0.3-0.2-0.7-0.3-1.3-0.3c-1.5,0-2.2,1.1-2.2,2.4c0,1.5,0.9,2.4,2.2,2.4c0.7,0,1.1-0.2,1.4-0.3L322.2,128.3z"/>
		<path class="st2" d="M324.1,125.5c0,1.6,1,2.2,2.2,2.2c0.8,0,1.3-0.1,1.8-0.3l0.2,0.8c-0.4,0.2-1.1,0.4-2.1,0.4
			c-1.9,0-3.1-1.3-3.1-3.2s1.1-3.4,3-3.4c2.1,0,2.6,1.8,2.6,3c0,0.2,0,0.4,0,0.5H324.1z M327.5,124.7c0-0.7-0.3-1.9-1.6-1.9
			c-1.2,0-1.7,1.1-1.8,1.9H327.5z"/>
		<path class="st2" d="M332.4,128.5v-0.7l0.9-0.9c2.2-2.1,3.2-3.2,3.2-4.4c0-0.9-0.4-1.7-1.7-1.7c-0.8,0-1.4,0.4-1.8,0.7l-0.4-0.8
			c0.6-0.5,1.4-0.9,2.4-0.9c1.8,0,2.6,1.3,2.6,2.5c0,1.6-1.1,2.8-2.9,4.6l-0.7,0.6v0h3.8v1H332.4z"/>
		<path class="st2" d="M297.3,143.6c-1.1-0.3-2.1-0.6-3-0.9c-0.2-0.1-0.3-0.1-0.5-0.1c-1.9-0.1-3.5-1.4-3.5-4c0-2.5,1.5-4.1,3.7-4.1
			c2.1,0,3.5,1.7,3.5,4c0,2-0.9,3.3-2.2,3.8v0c0.8,0.2,1.6,0.4,2.3,0.5L297.3,143.6z M296.4,138.5c0-1.6-0.8-3.2-2.5-3.2
			c-1.7,0-2.5,1.6-2.5,3.3c0,1.7,0.9,3.2,2.5,3.2C295.5,141.7,296.4,140.3,296.4,138.5z"/>
		<path class="st2" d="M303.5,140.9c0,0.6,0,1.1,0,1.5h-0.9l-0.1-0.9h0c-0.3,0.5-0.9,1-1.9,1c-0.9,0-1.9-0.5-1.9-2.5v-3.3h1v3.1
			c0,1.1,0.3,1.8,1.3,1.8c0.7,0,1.2-0.5,1.3-0.9c0.1-0.2,0.1-0.3,0.1-0.5v-3.5h1V140.9z"/>
		<path class="st2" d="M310.3,139.6c0,2.1-1.4,3-2.8,3c-1.5,0-2.7-1.1-2.7-2.9c0-1.9,1.2-3,2.8-3
			C309.2,136.7,310.3,137.9,310.3,139.6z M305.8,139.6c0,1.2,0.7,2.2,1.7,2.2c1,0,1.7-0.9,1.7-2.2c0-1-0.5-2.2-1.7-2.2
			C306.4,137.5,305.8,138.6,305.8,139.6z"/>
		<path class="st2" d="M312.8,135.2v1.6h1.5v0.8h-1.5v3c0,0.7,0.2,1.1,0.8,1.1c0.3,0,0.5,0,0.6-0.1l0,0.8c-0.2,0.1-0.5,0.1-0.9,0.1
			c-0.5,0-0.9-0.2-1.1-0.4c-0.3-0.3-0.4-0.8-0.4-1.5v-3.1H311v-0.8h0.9v-1.3L312.8,135.2z"/>
		<path class="st2" d="M318.6,142.4l-0.1-0.7h0c-0.3,0.4-0.9,0.8-1.7,0.8c-1.1,0-1.7-0.8-1.7-1.6c0-1.4,1.2-2.1,3.4-2.1v-0.1
			c0-0.5-0.1-1.3-1.3-1.3c-0.5,0-1.1,0.2-1.5,0.4l-0.2-0.7c0.5-0.3,1.1-0.5,1.8-0.5c1.7,0,2.1,1.2,2.1,2.3v2.1c0,0.5,0,1,0.1,1.3
			H318.6z M318.4,139.6c-1.1,0-2.4,0.2-2.4,1.3c0,0.7,0.4,1,1,1c0.7,0,1.2-0.5,1.4-0.9c0-0.1,0.1-0.2,0.1-0.3V139.6z"/>
		<path class="st2" d="M320.8,137.7c0-0.4,0.3-0.7,0.7-0.7c0.4,0,0.7,0.3,0.7,0.7c0,0.4-0.3,0.7-0.7,0.7
			C321.1,138.5,320.8,138.2,320.8,137.7z M320.8,141.8c0-0.4,0.3-0.7,0.7-0.7c0.4,0,0.7,0.3,0.7,0.7c0,0.4-0.3,0.7-0.7,0.7
			C321.1,142.6,320.8,142.3,320.8,141.8z"/>
		<path class="st2" d="M325.5,140.5c0-1,0.6-1.6,1.5-2l0,0c-0.8-0.4-1.2-1-1.2-1.7c0-1.2,1-2,2.3-2c1.5,0,2.2,0.9,2.2,1.9
			c0,0.6-0.3,1.3-1.2,1.8v0c0.9,0.4,1.5,1,1.5,2c0,1.3-1.1,2.2-2.6,2.2C326.5,142.6,325.5,141.6,325.5,140.5z M329.6,140.5
			c0-0.9-0.6-1.4-1.7-1.7c-0.9,0.3-1.4,0.8-1.4,1.6c0,0.8,0.5,1.4,1.5,1.4C329,141.8,329.6,141.3,329.6,140.5z M326.8,136.7
			c0,0.8,0.6,1.2,1.4,1.4c0.7-0.2,1.2-0.7,1.2-1.4c0-0.6-0.4-1.2-1.3-1.2C327.2,135.5,326.8,136,326.8,136.7z"/>
		<path class="st2" d="M335.4,135.5H333v-0.9h5.8v0.9h-2.4v7h-1V135.5z"/>
		<path class="st2" d="M339.7,134.7c0.4-0.1,1.1-0.2,1.8-0.2c1,0,1.7,0.2,2.2,0.6c0.4,0.3,0.7,0.8,0.7,1.4c0,0.8-0.5,1.4-1.3,1.7v0
			c0.7,0.2,1.6,0.8,1.6,2c0,0.7-0.3,1.2-0.7,1.6c-0.5,0.5-1.4,0.7-2.7,0.7c-0.7,0-1.2,0-1.6-0.1V134.7z M340.7,137.9h0.9
			c1.1,0,1.7-0.6,1.7-1.3c0-0.9-0.7-1.3-1.7-1.3c-0.5,0-0.7,0-0.9,0.1V137.9z M340.7,141.7c0.2,0,0.5,0,0.8,0c1,0,2-0.4,2-1.5
			c0-1.1-0.9-1.5-2-1.5h-0.8V141.7z"/>
	</g>
	<g>
		<path class="st0" d="M129.8,206.3c-1.1-0.3-2-0.7-3-1.1c-0.2-0.1-0.4-0.1-0.5-0.1c-1.7-0.1-3.4-1.4-3.4-3.9c0-2.3,1.5-4.1,3.8-4.1
			c2.4,0,3.7,1.8,3.7,3.9c0,1.8-0.8,3-1.8,3.4v0c0.6,0.2,1.3,0.3,1.9,0.4L129.8,206.3z M128.4,201.1c0-1.4-0.7-2.6-1.9-2.6
			s-1.9,1.2-1.9,2.6c0,1.5,0.7,2.6,1.9,2.6C127.7,203.7,128.4,202.6,128.4,201.1z"/>
		<path class="st0" d="M133.1,197.2v4.4c0,1.3,0.5,2,1.4,2c0.9,0,1.4-0.6,1.4-2v-4.4h1.7v4.3c0,2.4-1.2,3.5-3.2,3.5
			c-1.9,0-3.1-1.1-3.1-3.5v-4.3H133.1z"/>
		<path class="st0" d="M146.3,201c0,2.5-1.5,4.1-3.8,4.1c-2.3,0-3.6-1.7-3.6-3.9c0-2.3,1.5-4,3.8-4C145,197.1,146.3,198.9,146.3,201
			z M140.7,201.1c0,1.5,0.7,2.6,1.9,2.6c1.2,0,1.9-1.1,1.9-2.6c0-1.4-0.7-2.6-1.9-2.6C141.4,198.5,140.7,199.6,140.7,201.1z"/>
		<path class="st0" d="M148.6,198.7h-2.1v-1.5h5.9v1.5h-2.1v6.3h-1.8V198.7z"/>
		<path class="st0" d="M154.4,203l-0.6,2H152l2.4-7.7h2.3l2.4,7.7h-1.9l-0.6-2H154.4z M156.3,201.7l-0.5-1.6c-0.1-0.5-0.3-1-0.4-1.5
			h0c-0.1,0.5-0.2,1-0.4,1.5l-0.5,1.6H156.3z"/>
		<path class="st0" d="M129.7,212.8L129.7,212.8l-1.4,0.7l-0.3-1.3l2-0.9h1.4v7.4h-1.7V212.8z"/>
		<path class="st0" d="M138.8,212.7h-2.9l-0.2,1.1c0.2,0,0.3,0,0.5,0c0.7,0,1.4,0.2,2,0.5c0.6,0.4,0.9,1,0.9,1.9
			c0,1.4-1.2,2.6-3.2,2.6c-0.9,0-1.7-0.2-2.1-0.4l0.3-1.3c0.3,0.2,1,0.4,1.7,0.4c0.7,0,1.5-0.3,1.5-1.1c0-0.8-0.6-1.2-2.1-1.2
			c-0.4,0-0.7,0-1,0.1l0.5-3.9h4.1V212.7z"/>
		<path class="st0" d="M143.8,212.4h-2.1V211h5.9v1.5h-2.1v6.3h-1.8V212.4z"/>
		<path class="st0" d="M148.6,211.1c0.5-0.1,1.4-0.2,2.3-0.2c1.1,0,1.7,0.1,2.3,0.4c0.5,0.3,0.9,0.8,0.9,1.5c0,0.7-0.4,1.3-1.3,1.7
			v0c0.9,0.2,1.5,0.9,1.5,1.9c0,0.7-0.3,1.2-0.8,1.6c-0.6,0.4-1.5,0.7-3,0.7c-0.9,0-1.5-0.1-1.9-0.1V211.1z M150.3,214h0.6
			c0.9,0,1.4-0.4,1.4-1c0-0.6-0.4-0.9-1.2-0.9c-0.4,0-0.6,0-0.7,0V214z M150.3,217.5c0.2,0,0.4,0,0.7,0c0.8,0,1.5-0.3,1.5-1.1
			c0-0.8-0.7-1.1-1.6-1.1h-0.6V217.5z"/>
	</g>
	<g>
		<path class="st0" d="M53.3,206.3c-1.1-0.3-2-0.7-3-1.1c-0.2-0.1-0.4-0.1-0.5-0.1c-1.7-0.1-3.4-1.4-3.4-3.9c0-2.3,1.5-4.1,3.8-4.1
			c2.4,0,3.7,1.8,3.7,3.9c0,1.8-0.8,3-1.8,3.4v0c0.6,0.2,1.3,0.3,1.9,0.4L53.3,206.3z M51.9,201.1c0-1.4-0.7-2.6-1.9-2.6
			c-1.2,0-1.9,1.2-1.9,2.6c0,1.5,0.7,2.6,1.9,2.6C51.2,203.7,51.9,202.6,51.9,201.1z"/>
		<path class="st0" d="M56.7,197.2v4.4c0,1.3,0.5,2,1.4,2c0.9,0,1.4-0.6,1.4-2v-4.4h1.7v4.3c0,2.4-1.2,3.5-3.2,3.5
			c-1.9,0-3.1-1.1-3.1-3.5v-4.3H56.7z"/>
		<path class="st0" d="M69.8,201c0,2.5-1.5,4.1-3.8,4.1c-2.3,0-3.6-1.7-3.6-3.9c0-2.3,1.5-4,3.8-4C68.5,197.1,69.8,198.9,69.8,201z
			 M64.2,201.1c0,1.5,0.7,2.6,1.9,2.6c1.2,0,1.9-1.1,1.9-2.6c0-1.4-0.7-2.6-1.9-2.6C64.9,198.5,64.2,199.6,64.2,201.1z"/>
		<path class="st0" d="M72.1,198.7h-2.1v-1.5H76v1.5h-2.1v6.3h-1.8V198.7z"/>
		<path class="st0" d="M77.9,203l-0.6,2h-1.8l2.4-7.7h2.3l2.4,7.7h-1.9l-0.6-2H77.9z M79.9,201.7l-0.5-1.6c-0.1-0.5-0.3-1-0.4-1.5h0
			c-0.1,0.5-0.2,1-0.4,1.5l-0.5,1.6H79.9z"/>
		<path class="st0" d="M59.1,212.7h-2.9l-0.2,1.1c0.2,0,0.3,0,0.5,0c0.7,0,1.4,0.2,2,0.5c0.6,0.4,0.9,1,0.9,1.9
			c0,1.4-1.2,2.6-3.2,2.6c-0.9,0-1.7-0.2-2.1-0.4l0.3-1.3c0.3,0.2,1,0.4,1.7,0.4c0.7,0,1.5-0.3,1.5-1.1c0-0.8-0.6-1.2-2.1-1.2
			c-0.4,0-0.7,0-1,0.1l0.5-3.9h4.1V212.7z"/>
		<path class="st0" d="M64.2,212.4h-2.1V211H68v1.5h-2.1v6.3h-1.8V212.4z"/>
		<path class="st0" d="M69,211.1c0.5-0.1,1.4-0.2,2.3-0.2c1.1,0,1.7,0.1,2.3,0.4c0.5,0.3,0.9,0.8,0.9,1.5c0,0.7-0.4,1.3-1.3,1.7v0
			c0.9,0.2,1.5,0.9,1.5,1.9c0,0.7-0.3,1.2-0.8,1.6c-0.6,0.4-1.5,0.7-3,0.7c-0.9,0-1.5-0.1-1.9-0.1V211.1z M70.7,214h0.6
			c0.9,0,1.4-0.4,1.4-1c0-0.6-0.4-0.9-1.2-0.9c-0.4,0-0.6,0-0.7,0V214z M70.7,217.5c0.2,0,0.4,0,0.7,0c0.8,0,1.5-0.3,1.5-1.1
			c0-0.8-0.7-1.1-1.6-1.1h-0.6V217.5z"/>
	</g>
	<g>
		<path class="st0" d="M354,206.3c-1.1-0.3-2-0.7-3-1.1c-0.2-0.1-0.4-0.1-0.5-0.1c-1.7-0.1-3.4-1.4-3.4-3.9c0-2.3,1.5-4.1,3.8-4.1
			c2.4,0,3.7,1.8,3.7,3.9c0,1.8-0.8,3-1.8,3.4v0c0.6,0.2,1.3,0.3,1.9,0.4L354,206.3z M352.6,201.1c0-1.4-0.7-2.6-1.9-2.6
			s-1.9,1.2-1.9,2.6c0,1.5,0.7,2.6,1.9,2.6C351.9,203.7,352.6,202.6,352.6,201.1z"/>
		<path class="st0" d="M357.3,197.2v4.4c0,1.3,0.5,2,1.4,2c0.9,0,1.4-0.6,1.4-2v-4.4h1.7v4.3c0,2.4-1.2,3.5-3.2,3.5
			c-1.9,0-3.1-1.1-3.1-3.5v-4.3H357.3z"/>
		<path class="st0" d="M370.5,201c0,2.5-1.5,4.1-3.8,4.1c-2.3,0-3.6-1.7-3.6-3.9c0-2.3,1.5-4,3.8-4
			C369.2,197.1,370.5,198.9,370.5,201z M364.9,201.1c0,1.5,0.7,2.6,1.9,2.6c1.2,0,1.9-1.1,1.9-2.6c0-1.4-0.7-2.6-1.9-2.6
			C365.6,198.5,364.9,199.6,364.9,201.1z"/>
		<path class="st0" d="M372.8,198.7h-2.1v-1.5h5.9v1.5h-2.1v6.3h-1.8V198.7z"/>
		<path class="st0" d="M378.6,203l-0.6,2h-1.8l2.4-7.7h2.3l2.4,7.7h-1.9l-0.6-2H378.6z M380.5,201.7L380,200c-0.1-0.5-0.3-1-0.4-1.5
			h0c-0.1,0.5-0.2,1-0.4,1.5l-0.5,1.6H380.5z"/>
		<path class="st0" d="M354.8,218.7v-1.1l1-0.9c1.6-1.5,2.4-2.3,2.4-3.2c0-0.6-0.4-1.1-1.2-1.1c-0.6,0-1.2,0.3-1.6,0.6l-0.5-1.2
			c0.6-0.4,1.4-0.8,2.4-0.8c1.7,0,2.6,1,2.6,2.3c0,1.2-0.9,2.2-2,3.2l-0.7,0.6v0h2.8v1.4H354.8z"/>
		<path class="st0" d="M364.8,212.4h-2.1V211h5.9v1.5h-2.1v6.3h-1.8V212.4z"/>
		<path class="st0" d="M369.6,211.1c0.5-0.1,1.4-0.2,2.3-0.2c1.1,0,1.7,0.1,2.3,0.4c0.5,0.3,0.9,0.8,0.9,1.5c0,0.7-0.4,1.3-1.3,1.7
			v0c0.9,0.2,1.5,0.9,1.5,1.9c0,0.7-0.3,1.2-0.8,1.6c-0.6,0.4-1.5,0.7-3,0.7c-0.9,0-1.5-0.1-1.9-0.1V211.1z M371.3,214h0.6
			c0.9,0,1.4-0.4,1.4-1c0-0.6-0.4-0.9-1.2-0.9c-0.4,0-0.6,0-0.7,0V214z M371.3,217.5c0.2,0,0.4,0,0.7,0c0.8,0,1.5-0.3,1.5-1.1
			c0-0.8-0.7-1.1-1.6-1.1h-0.6V217.5z"/>
	</g>
	<g>
		<path class="st0" d="M216.6,206.3c-1.1-0.3-2-0.7-3-1.1c-0.2-0.1-0.4-0.1-0.5-0.1c-1.7-0.1-3.4-1.4-3.4-3.9c0-2.3,1.5-4.1,3.8-4.1
			c2.4,0,3.7,1.8,3.7,3.9c0,1.8-0.8,3-1.8,3.4v0c0.6,0.2,1.3,0.3,1.9,0.4L216.6,206.3z M215.3,201.1c0-1.4-0.7-2.6-1.9-2.6
			c-1.2,0-1.9,1.2-1.9,2.6c0,1.5,0.7,2.6,1.9,2.6C214.6,203.7,215.3,202.6,215.3,201.1z"/>
		<path class="st0" d="M220,197.2v4.4c0,1.3,0.5,2,1.4,2c0.9,0,1.4-0.6,1.4-2v-4.4h1.7v4.3c0,2.4-1.2,3.5-3.2,3.5
			c-1.9,0-3.1-1.1-3.1-3.5v-4.3H220z"/>
		<path class="st0" d="M233.1,201c0,2.5-1.5,4.1-3.8,4.1c-2.3,0-3.6-1.7-3.6-3.9c0-2.3,1.5-4,3.8-4
			C231.8,197.1,233.1,198.9,233.1,201z M227.5,201.1c0,1.5,0.7,2.6,1.9,2.6c1.2,0,1.9-1.1,1.9-2.6c0-1.4-0.7-2.6-1.9-2.6
			C228.2,198.5,227.5,199.6,227.5,201.1z"/>
		<path class="st0" d="M235.4,198.7h-2.1v-1.5h5.9v1.5h-2.1v6.3h-1.8V198.7z"/>
		<path class="st0" d="M241.2,203l-0.5,2h-1.8l2.4-7.7h2.3l2.4,7.7H244l-0.6-2H241.2z M243.2,201.7l-0.5-1.6c-0.1-0.5-0.3-1-0.4-1.5
			h0c-0.1,0.5-0.2,1-0.4,1.5l-0.5,1.6H243.2z"/>
		<path class="st0" d="M222.2,212.5c-0.2,0-0.4,0-0.7,0c-1.5,0.1-2.2,0.9-2.4,1.8h0c0.4-0.4,0.9-0.6,1.6-0.6c1.2,0,2.3,0.9,2.3,2.4
			c0,1.5-1.1,2.7-2.8,2.7c-2,0-3-1.5-3-3.3c0-1.4,0.5-2.6,1.3-3.3c0.7-0.7,1.7-1,2.9-1.1c0.3,0,0.5,0,0.7,0V212.5z M221.3,216.2
			c0-0.7-0.4-1.3-1.1-1.3c-0.5,0-0.9,0.3-1,0.7c0,0.1-0.1,0.2-0.1,0.4c0,0.8,0.4,1.5,1.2,1.5C220.9,217.5,221.3,217,221.3,216.2z"/>
		<path class="st0" d="M227.5,212.4h-2.1V211h5.9v1.5h-2.1v6.3h-1.8V212.4z"/>
		<path class="st0" d="M232.3,211.1c0.5-0.1,1.4-0.2,2.3-0.2c1.1,0,1.7,0.1,2.3,0.4c0.5,0.3,0.9,0.8,0.9,1.5c0,0.7-0.4,1.3-1.3,1.7
			v0c0.9,0.2,1.5,0.9,1.5,1.9c0,0.7-0.3,1.2-0.8,1.6c-0.6,0.4-1.5,0.7-3,0.7c-0.9,0-1.5-0.1-1.9-0.1V211.1z M234,214h0.6
			c0.9,0,1.4-0.4,1.4-1c0-0.6-0.4-0.9-1.2-0.9c-0.4,0-0.6,0-0.7,0V214z M234,217.5c0.2,0,0.4,0,0.7,0c0.8,0,1.5-0.3,1.5-1.1
			c0-0.8-0.7-1.1-1.6-1.1H234V217.5z"/>
	</g>
	<g>
		<g>
			<g>
				<path class="st3" d="M177.4,50.8l5-22h8.5l5,22h-4.5l-0.9-4h-7.7l-0.9,4H177.4z M185.8,32.5l-2.2,10.5h6l-2.2-10.5H185.8z"/>
			</g>
			<g>
				<path class="st3" d="M195.5,32.7v-4h16.2v4h-5.8v18.1h-4.5V32.7H195.5z"/>
			</g>
			<g>
				<path class="st3" d="M211.5,50.8l5-22h8.5l5,22h-4.5l-0.9-4h-7.7l-0.9,4H211.5z M219.9,32.5l-2.2,10.5h6l-2.2-10.5H219.9z"/>
			</g>
			<g>
				<path class="st3" d="M175.3,34.6c-0.3-1.2-0.7-2.3-1.4-3.2c-0.7-0.9-1.6-1.6-2.9-2c-1.2-0.4-2.8-0.6-4.7-0.6h-2.9v3.9h2.9
					c1.1,0,1.9,0.1,2.6,0.3c0.6,0.2,1.1,0.6,1.4,1.2c0.3,0.6,0.5,1.3,0.6,2c0.1,0.7,0.1,1.7,0.1,2.9c0,1.2,0,2.2-0.1,2.9
					c-0.2,1.7-0.5,3-1.2,3.6c-0.7,0.8-1.9,1.2-3.5,1.2h-2.9v3.9h2.9c1.9,0,3.5-0.2,4.8-0.7c1.3-0.5,2.2-1.2,2.9-2.2
					c0.7-1,1.1-2.2,1.3-3.5c0.2-1.3,0.4-3,0.4-4.9C175.7,37.4,175.5,35.8,175.3,34.6z"/>
			</g>
		</g>
		<g>
			<g>
				<path d="M116.3,48.5c-1.4,1.8-3.7,2.7-7.1,2.7c-3.3,0-5.7-0.9-7.1-2.7c-1.4-1.8-2.1-4.7-2.1-8.6s0.7-6.8,2.1-8.7
					c1.4-1.9,3.7-2.8,7.1-2.8c3.3,0,5.7,0.9,7.1,2.8c1.4,1.9,2.1,4.8,2.1,8.7S117.7,46.6,116.3,48.5z M105.6,45.6
					c0.6,1.1,1.8,1.7,3.6,1.7s2.9-0.6,3.6-1.7c0.6-1.1,1-3,1-5.7s-0.3-4.6-1-5.8c-0.6-1.2-1.8-1.8-3.6-1.8c-1.7,0-2.9,0.6-3.6,1.8
					c-0.6,1.2-1,3.1-1,5.8S105,44.5,105.6,45.6z"/>
			</g>
			<g>
				<path d="M122.2,50.8v-22h7.5l5.3,18.1h0.3V28.8h4.5v22h-7.4L127,32.7h-0.3v18.1H122.2z"/>
			</g>
		</g>
		<g>
			<rect x="144.6" y="28.8" width="14.3" height="3.9"/>
		</g>
		<g>
			<rect x="144.6" y="37.8" width="14.3" height="3.9"/>
		</g>
		<g>
			<rect x="144.6" y="46.9" width="14.3" height="3.9"/>
		</g>
	</g>
	<g>
		<rect x="153.1" y="263.8" class="st4" width="112" height="79.3"/>
		<path class="st0" d="M269.1,347.1h-120v-87.3h120V347.1z M157.1,339.1h104v-71.3h-104V339.1z"/>
	</g>
	<g>
		<g>
			<path class="st2" d="M203.1,314.3h-36.3c-0.8,0-1.5,0.8-1.5,1.8v4.1c0,1,0.8,1.8,1.5,1.8h36.3c0.8,0,1.4-0.8,1.4-1.8v-4.1
				C204.5,315.1,203.9,314.3,203.1,314.3z M201.6,318.9c-0.5,0-0.9-0.4-0.9-0.9s0.4-0.9,0.9-0.9c0.5,0,0.9,0.4,0.9,0.9
				S202.1,318.9,201.6,318.9z"/>
		</g>
		<g>
			<path class="st2" d="M203.1,296h-36.3c-0.8,0-1.5,0.8-1.5,1.8v4.1c0,1,0.8,1.8,1.5,1.8h36.3c0.8,0,1.4-0.8,1.4-1.8v-4.1
				C204.5,296.8,203.9,296,203.1,296z M201.6,300.7c-0.5,0-0.9-0.4-0.9-0.9s0.4-0.9,0.9-0.9c0.5,0,0.9,0.4,0.9,0.9
				S202.1,300.7,201.6,300.7z"/>
		</g>
		<g>
			<path class="st2" d="M203.1,305.2h-36.3c-0.8,0-1.5,0.8-1.5,1.8v4.1c0,1,0.8,1.8,1.5,1.8h36.3c0.8,0,1.4-0.8,1.4-1.8V307
				C204.5,306,203.9,305.2,203.1,305.2z M201.6,309.5c-0.5,0-0.9-0.4-0.9-0.9c0-0.5,0.4-0.9,0.9-0.9c0.5,0,0.9,0.4,0.9,0.9
				C202.5,309.1,202.1,309.5,201.6,309.5z"/>
		</g>
		<g>
			<path class="st2" d="M203.1,286.5h-36.3c-0.8,0-1.5,0.8-1.5,1.8v4.1c0,1,0.8,1.8,1.5,1.8h36.3c0.8,0,1.4-0.8,1.4-1.8v-4.1
				C204.5,287.4,203.9,286.5,203.1,286.5z M201.6,291.2c-0.5,0-0.9-0.4-0.9-0.9c0-0.5,0.4-0.9,0.9-0.9c0.5,0,0.9,0.4,0.9,0.9
				C202.5,290.8,202.1,291.2,201.6,291.2z"/>
		</g>
	</g>
	<g>
		<g>
			<path class="st2" d="M253.1,314.3h-36.3c-0.8,0-1.5,0.8-1.5,1.8v4.1c0,1,0.8,1.8,1.5,1.8h36.3c0.8,0,1.4-0.8,1.4-1.8v-4.1
				C254.5,315.1,253.9,314.3,253.1,314.3z M251.6,318.9c-0.5,0-0.9-0.4-0.9-0.9s0.4-0.9,0.9-0.9c0.5,0,0.9,0.4,0.9,0.9
				S252.1,318.9,251.6,318.9z"/>
		</g>
		<g>
			<path class="st2" d="M253.1,296h-36.3c-0.8,0-1.5,0.8-1.5,1.8v4.1c0,1,0.8,1.8,1.5,1.8h36.3c0.8,0,1.4-0.8,1.4-1.8v-4.1
				C254.5,296.8,253.9,296,253.1,296z M251.6,300.7c-0.5,0-0.9-0.4-0.9-0.9s0.4-0.9,0.9-0.9c0.5,0,0.9,0.4,0.9,0.9
				S252.1,300.7,251.6,300.7z"/>
		</g>
		<g>
			<path class="st2" d="M253.1,305.2h-36.3c-0.8,0-1.5,0.8-1.5,1.8v4.1c0,1,0.8,1.8,1.5,1.8h36.3c0.8,0,1.4-0.8,1.4-1.8V307
				C254.5,306,253.9,305.2,253.1,305.2z M251.6,309.5c-0.5,0-0.9-0.4-0.9-0.9c0-0.5,0.4-0.9,0.9-0.9c0.5,0,0.9,0.4,0.9,0.9
				C252.5,309.1,252.1,309.5,251.6,309.5z"/>
		</g>
		<g>
			<path class="st2" d="M253.1,286.5h-36.3c-0.8,0-1.5,0.8-1.5,1.8v4.1c0,1,0.8,1.8,1.5,1.8h36.3c0.8,0,1.4-0.8,1.4-1.8v-4.1
				C254.5,287.4,253.9,286.5,253.1,286.5z M251.6,291.2c-0.5,0-0.9-0.4-0.9-0.9c0-0.5,0.4-0.9,0.9-0.9c0.5,0,0.9,0.4,0.9,0.9
				C252.5,290.8,252.1,291.2,251.6,291.2z"/>
		</g>
	</g>
	<g>
		<rect x="284" y="263" class="st4" width="85.8" height="80.8"/>
		<path class="st0" d="M373.8,347.9H280V259h93.8V347.9z M288,339.9h77.8V267H288V339.9z"/>
	</g>
	<g>
		<g>
			<path class="st2" d="M345.3,314.9H309c-0.8,0-1.5,0.8-1.5,1.8v4.1c0,1,0.8,1.8,1.5,1.8h36.3c0.8,0,1.4-0.8,1.4-1.8v-4.1
				C346.8,315.7,346.1,314.9,345.3,314.9z M343.9,319.5c-0.5,0-0.9-0.4-0.9-0.9c0-0.5,0.4-0.9,0.9-0.9c0.5,0,0.9,0.4,0.9,0.9
				C344.7,319.2,344.3,319.5,343.9,319.5z"/>
		</g>
		<g>
			<path class="st2" d="M345.3,296.6H309c-0.8,0-1.5,0.8-1.5,1.8v4.1c0,1,0.8,1.8,1.5,1.8h36.3c0.8,0,1.4-0.8,1.4-1.8v-4.1
				C346.8,297.5,346.1,296.6,345.3,296.6z M343.9,301.3c-0.5,0-0.9-0.4-0.9-0.9c0-0.5,0.4-0.9,0.9-0.9c0.5,0,0.9,0.4,0.9,0.9
				C344.7,300.9,344.3,301.3,343.9,301.3z"/>
		</g>
		<g>
			<path class="st2" d="M345.3,305.8H309c-0.8,0-1.5,0.8-1.5,1.8v4.1c0,1,0.8,1.8,1.5,1.8h36.3c0.8,0,1.4-0.8,1.4-1.8v-4.1
				C346.8,306.6,346.1,305.8,345.3,305.8z M343.9,310.1c-0.5,0-0.9-0.4-0.9-0.9c0-0.5,0.4-0.9,0.9-0.9c0.5,0,0.9,0.4,0.9,0.9
				C344.7,309.7,344.3,310.1,343.9,310.1z"/>
		</g>
		<g>
			<path class="st2" d="M345.3,287.2H309c-0.8,0-1.5,0.8-1.5,1.8v4.1c0,1,0.8,1.8,1.5,1.8h36.3c0.8,0,1.4-0.8,1.4-1.8V289
				C346.8,288,346.1,287.2,345.3,287.2z M343.9,291.8c-0.5,0-0.9-0.4-0.9-0.9c0-0.5,0.4-0.9,0.9-0.9c0.5,0,0.9,0.4,0.9,0.9
				C344.7,291.4,344.3,291.8,343.9,291.8z"/>
		</g>
	</g>
	<g>
		<rect x="49.2" y="263" class="st4" width="85.8" height="80.8"/>
		<path class="st0" d="M139,347.9H45.2V259H139V347.9z M53.2,339.9H131V267H53.2V339.9z"/>
	</g>
	<g>
		<g>
			<path class="st2" d="M110.5,314.9H74.2c-0.8,0-1.5,0.8-1.5,1.8v4.1c0,1,0.8,1.8,1.5,1.8h36.3c0.8,0,1.4-0.8,1.4-1.8v-4.1
				C111.9,315.7,111.3,314.9,110.5,314.9z M109,319.5c-0.5,0-0.9-0.4-0.9-0.9c0-0.5,0.4-0.9,0.9-0.9c0.5,0,0.9,0.4,0.9,0.9
				C109.9,319.2,109.5,319.5,109,319.5z"/>
		</g>
		<g>
			<path class="st2" d="M110.5,296.6H74.2c-0.8,0-1.5,0.8-1.5,1.8v4.1c0,1,0.8,1.8,1.5,1.8h36.3c0.8,0,1.4-0.8,1.4-1.8v-4.1
				C111.9,297.5,111.3,296.6,110.5,296.6z M109,301.3c-0.5,0-0.9-0.4-0.9-0.9c0-0.5,0.4-0.9,0.9-0.9c0.5,0,0.9,0.4,0.9,0.9
				C109.9,300.9,109.5,301.3,109,301.3z"/>
		</g>
		<g>
			<path class="st2" d="M110.5,305.8H74.2c-0.8,0-1.5,0.8-1.5,1.8v4.1c0,1,0.8,1.8,1.5,1.8h36.3c0.8,0,1.4-0.8,1.4-1.8v-4.1
				C111.9,306.6,111.3,305.8,110.5,305.8z M109,310.1c-0.5,0-0.9-0.4-0.9-0.9c0-0.5,0.4-0.9,0.9-0.9c0.5,0,0.9,0.4,0.9,0.9
				C109.9,309.7,109.5,310.1,109,310.1z"/>
		</g>
		<g>
			<path class="st2" d="M110.5,287.2H74.2c-0.8,0-1.5,0.8-1.5,1.8v4.1c0,1,0.8,1.8,1.5,1.8h36.3c0.8,0,1.4-0.8,1.4-1.8V289
				C111.9,288,111.3,287.2,110.5,287.2z M109,291.8c-0.5,0-0.9-0.4-0.9-0.9c0-0.5,0.4-0.9,0.9-0.9c0.5,0,0.9,0.4,0.9,0.9
				C109.9,291.4,109.5,291.8,109,291.8z"/>
		</g>
	</g>
	<g>
		<g>
			<path class="st0" d="M169.9,244.9c-0.7-1.9-1.3-3.9-1.7-5.9l2.9-0.7c0.4,1.9,1,3.8,1.6,5.6L169.9,244.9z"/>
		</g>
		<g>
			<path class="st0" d="M169.9,225.7l-3-0.1c0.1-4.2,0.6-8.7,1.5-13.2l2.9,0.6C170.4,217.4,169.9,221.7,169.9,225.7z M174.8,200.7
				l-2.8-1c1.4-4,3.1-8.1,5.1-12.2l2.7,1.3C177.8,192.8,176.2,196.8,174.8,200.7z"/>
		</g>
		<g>
			<path class="st0" d="M185.8,177.5l-2.6-1.5c1-1.7,2.1-3.5,3.2-5.2l2.5,1.6C187.9,174.1,186.8,175.8,185.8,177.5z"/>
		</g>
		<g>
			<g>
				<polygon class="st0" points="192.7,177.7 193.9,162.8 180.4,169.2 				"/>
			</g>
		</g>
	</g>
	<g>
		<g>
			<path class="st0" d="M88.9,245c-0.8-1.9-1.6-3.8-2.2-5.8l2.9-0.9c0.6,1.8,1.3,3.7,2.1,5.5L88.9,245z"/>
		</g>
		<g>
			<path class="st0" d="M84.4,227.4c-0.1-1-0.1-2.1-0.1-3.1c0-3,0.3-6,0.8-9l2.9,0.6c-0.5,2.8-0.8,5.6-0.8,8.4c0,1,0,1.9,0.1,2.9
				L84.4,227.4z M91.5,204.9l-2.8-1.2c1.5-3.5,3.5-7.1,5.8-10.5l2.5,1.7C94.8,198.2,93,201.6,91.5,204.9z M104.1,185.7l-2.3-2
				c2.5-2.9,5.3-5.7,8.4-8.5l2,2.2C109.3,180.1,106.5,182.9,104.1,185.7z"/>
		</g>
		<g>
			<path class="st0" d="M121.2,170l-1.8-2.4c1.6-1.2,3.3-2.4,4.9-3.6l1.7,2.5C124.3,167.7,122.7,168.8,121.2,170z"/>
		</g>
		<g>
			<g>
				<polygon class="st0" points="127.3,172.9 134.2,159.6 119.3,160.3 				"/>
			</g>
		</g>
	</g>
	<g>
		<g>
			<path class="st0" d="M244.4,239.8c-0.1-2,0-4.1,0.2-6.2l3,0.3c-0.2,1.9-0.3,3.9-0.2,5.8L244.4,239.8z"/>
		</g>
		<g>
			<path class="st0" d="M249.7,224l-2.9-0.9c1-3.2,2.3-6.5,4-9.9l2.7,1.3C251.9,217.8,250.6,220.9,249.7,224z M258.5,205.7l-2.5-1.6
				c1.8-2.8,3.9-5.7,6.1-8.6l2.4,1.9C262.3,200.1,260.3,203,258.5,205.7z M271.2,189.5l-2.2-2c2.3-2.5,4.8-5,7.3-7.5l2.1,2.2
				C275.8,184.5,273.4,187,271.2,189.5z"/>
		</g>
		<g>
			<path class="st0" d="M286,175.1l-2-2.3c1.5-1.3,3.1-2.6,4.6-3.9l1.9,2.3C289,172.5,287.5,173.8,286,175.1z"/>
		</g>
		<g>
			<g>
				<polygon class="st0" points="292.5,177.5 298.1,163.6 283.3,165.6 				"/>
			</g>
		</g>
	</g>
	<g>
		<g>
			<path class="st0" d="M42.8,75.8l-2.5-1.6c1.1-1.7,2.2-3.4,3.2-5.1l2.5,1.6C44.9,72.4,43.9,74.1,42.8,75.8z"/>
		</g>
		<g>
			<path class="st0" d="M17.8,274.4c-1.2-3.6-2.3-7.3-3.3-11.1l2.9-0.8c1,3.7,2.1,7.4,3.3,10.9L17.8,274.4z M11.7,252.1
				c-0.8-3.7-1.6-7.5-2.3-11.3l3-0.5c0.7,3.7,1.4,7.5,2.3,11.2L11.7,252.1z M7.6,229.4c-0.5-3.8-0.9-7.7-1.3-11.5l3-0.3
				c0.3,3.8,0.8,7.6,1.3,11.3L7.6,229.4z M5.6,206.4c-0.1-3.4-0.2-6.7-0.2-10.1l0-1.5l3,0l0,1.5c0,3.3,0.1,6.6,0.2,10L5.6,206.4z
				 M8.7,183.4l-3-0.2c0.2-3.8,0.5-7.7,0.9-11.5l3,0.3C9.3,175.8,8.9,179.6,8.7,183.4z M11.1,160.7l-3-0.5c0.6-3.8,1.3-7.6,2.1-11.4
				l2.9,0.6C12.4,153.2,11.7,157,11.1,160.7z M15.8,138.4l-2.9-0.8c1-3.7,2.1-7.4,3.2-11.1l2.9,0.9
				C17.8,131.1,16.7,134.8,15.8,138.4z M22.7,116.7l-2.8-1.1c1.3-3.6,2.8-7.2,4.3-10.7l2.8,1.2C25.4,109.6,24,113.1,22.7,116.7z
				 M31.7,95.8L29,94.4c1.7-3.4,3.5-6.9,5.4-10.2l2.6,1.5C35.2,89,33.4,92.4,31.7,95.8z"/>
		</g>
		<g>
			<path class="st0" d="M23.9,290.9c-0.8-1.8-1.5-3.7-2.2-5.6l2.8-1.1c0.7,1.9,1.4,3.7,2.2,5.5L23.9,290.9z"/>
		</g>
		<g>
			<g>
				<polygon class="st0" points="17.6,291.4 29.7,300.2 31.2,285.3 				"/>
			</g>
		</g>
	</g>
	<g>
		<g>
			<path class="st0" d="M336.8,244.9l-2.8-1c0.7-1.8,1.2-3.7,1.6-5.6l2.9,0.7C338.1,241,337.5,243,336.8,244.9z"/>
		</g>
		<g>
			<path class="st0" d="M336.9,225.7c-0.1-4-0.6-8.3-1.5-12.7l2.9-0.6c0.9,4.5,1.5,9,1.5,13.2L336.9,225.7z M331.9,200.7
				c-1.4-3.9-3-7.9-5-11.9l2.7-1.3c2,4.1,3.7,8.2,5.1,12.2L331.9,200.7z"/>
		</g>
		<g>
			<path class="st0" d="M320.9,177.5c-1-1.7-2-3.4-3.1-5.1l2.5-1.6c1.1,1.7,2.2,3.4,3.2,5.2L320.9,177.5z"/>
		</g>
		<g>
			<g>
				<polygon class="st0" points="326.3,169.2 312.8,162.8 314,177.7 				"/>
			</g>
		</g>
	</g>
	<g>
		<g>
			<defs>
				<rect id="SVGID_1_" x="52.7" y="15.9" width="31.6" height="54"/>
			</defs>
			<clipPath id="SVGID_2_">
				<use xlink:href="#SVGID_1_"  style="overflow:visible;"/>
			</clipPath>
			<g class="st5">
				<path d="M82,46.1l-7.3-2.4v0l-0.3-0.1c1.1-1.3,2-2.9,2.6-4.5c1.3-0.3,2.6-1.6,3.1-3.5c0.4-1.2,0.4-2.4,0.2-3.4
					c-0.2-0.9-0.7-1.6-1.3-2c0-0.2,0-0.6-0.4-0.7c0-0.3-0.1-0.5-0.1-0.8l0.2-1.9c0.6-5.2-2.6-10.1-7.4-10.8c-1.9-0.3-3.7,0.4-5,1.9
					L66.3,18c-1.8-0.9-3.8-0.7-5.4,0.6c-1.8,1.4-2.8,3.7-2.7,6.1l0.2,4.8c-0.2,0-0.5,0.3-0.4,0.7c-0.6,0.4-1.1,1.1-1.3,2
					c-0.2,1-0.2,2.3,0.2,3.4c0.6,1.8,1.8,3.2,3.1,3.5c0.7,1.6,1.6,3.2,2.6,4.5l-0.3,0.1l-0.8,0.3l-6.5,2.2c-1.3,0.4-2.2,1.8-2.2,3.3
					v2.9c0,9.7,7.1,17.5,15.8,17.5h0c8.7,0,15.8-7.8,15.8-17.5v-2.9C84.3,47.9,83.4,46.5,82,46.1L82,46.1z M64.7,21.9
					c-0.3,4.8,6.8,4.1,6.8,4.1c2.2-0.2,3.7,0.1,4.7,0.7c0.4,1,0.6,2.1,0.7,3.2c-0.6,0.4-1.1,0.9-1.5,1.3c-0.5-1.2-1.6-2.1-3-2.1
					c-1.2,0-2.3,0.8-2.8,1.9c-0.8-0.3-1.7-0.3-2.5,0c-0.6-1.1-1.6-1.9-2.8-1.9c-1.3,0-2.4,0.9-3,2.1c-0.4-0.5-0.9-0.9-1.5-1.3
					C60.3,26.4,62.2,23.4,64.7,21.9L64.7,21.9z M70.9,31.9c0-0.1-0.1-0.1-0.2-0.1c0.3-0.7,1-1.2,1.8-1.2c1.1,0,2.1,1,2.1,2.3
					c0,1.3-0.9,2.3-2.1,2.3c-1.1,0-1.9-0.9-2-2.1c0.1,0,0.3-0.1,0.4-0.2C71.2,32.6,71.2,32.2,70.9,31.9L70.9,31.9z M66.1,32.8
					c0.1,0.1,0.2,0.2,0.4,0.2c-0.1,1.2-1,2.1-2,2.1c-1.1,0-2.1-1-2.1-2.3c0-1.3,0.9-2.3,2.1-2.3c0.8,0,1.5,0.5,1.8,1.2
					c-0.1,0-0.1,0.1-0.2,0.1C65.8,32.2,65.8,32.6,66.1,32.8L66.1,32.8z M61.2,37.9c-0.1-0.3-0.5-0.5-0.8-0.5c-0.7,0-1.6-0.8-2.1-2.3
					c-0.3-0.8-0.3-1.7-0.1-2.4c0.1-0.3,0.3-0.9,0.8-1.1c0,0,0.1,0,0.2,0c0.2,0,0.3-0.1,0.5-0.2c0.8,0.6,1.4,1.5,1.6,1.8
					c0.1,1.9,1.5,3.4,3.2,3.4c1.8,0,3.3-1.6,3.3-3.6c0-0.1,0-0.3,0-0.5c0.6-0.2,1.2-0.2,1.7,0c0,0.1-0.1,0.3-0.1,0.5
					c0,2,1.5,3.6,3.3,3.6c1.7,0,3.1-1.5,3.2-3.4c0.2-0.3,0.7-1.2,1.6-1.8c0.1,0.1,0.3,0.2,0.5,0.2c0,0,0.1,0,0.2,0
					c0.5,0.2,0.7,0.8,0.7,1.1c0.2,0.7,0.1,1.6-0.1,2.4c-0.5,1.5-1.5,2.3-2.1,2.3h0c-0.3,0-0.6,0.2-0.8,0.5c-1.4,3.6-4,7.4-7.2,7.4
					C65.3,45.3,62.6,41.5,61.2,37.9L61.2,37.9z M68.5,50.9c-3,0-5.4-2.3-6.1-5.4l1.5-0.5c1.3,1.2,2.9,2.1,4.6,2.1
					c1.7,0,3.2-0.8,4.6-2.1l1.5,0.5C73.9,48.6,71.5,50.9,68.5,50.9L68.5,50.9z M68.5,50.9"/>
			</g>
		</g>
	</g>
	<g>
		<path class="st6" d="M45.8-0.3H4.1C1.8-0.3,0,1.6,0,3.8v27.1c0,2.3,1.9,4.2,4.2,4.2h29.3l8.2,8.2v-8.2h4.2c2.3,0,4.2-1.9,4.2-4.2
			V3.8C50,1.6,48.1-0.3,45.8-0.3z M47.9,30.9c0,1.1-0.9,2.1-2.1,2.1h-4.2h-2.1v2.1v3.2l-4.7-4.7L34.2,33h-0.8H4.1
			c-1.1,0-2.1-0.9-2.1-2.1V3.8c0-1.1,0.9-2.1,2.1-2.1h41.7c1.1,0,2.1,0.9,2.1,2.1V30.9z"/>
	</g>
</g>
</svg>
